<?xml version="1.0" standalone="no"?>
<!DOCTYPE svg PUBLIC "-//W3C//DTD SVG 1.1//EN" "http://www.w3.org/Graphics/SVG/1.1/DTD/svg11.dtd" >
<svg xmlns="http://www.w3.org/2000/svg">
<metadata></metadata>
<defs>
<font id="scriptinaregular" horiz-adv-x="905" >
<font-face units-per-em="2048" ascent="1638" descent="-410" />
<missing-glyph horiz-adv-x="673" />
<glyph horiz-adv-x="0" />
<glyph horiz-adv-x="682" />
<glyph horiz-adv-x="708" d="M74 1614q-4 -47 17.5 -94t57 -85t84 -62.5t99.5 -24.5q49 0 99 17t90 50t67.5 81t34.5 112q2 12 -17 12q-18 0 -22 -12q-25 -55 -58.5 -88t-68.5 -51.5t-66 -23.5t-47 -5q-18 0 -41.5 4t-53.5 20.5t-63.5 52t-72.5 97.5q-6 10 -23 10q-14 0 -16 -10z" />
<glyph horiz-adv-x="585" d="M160 1417q0 -55 39 -96t96 -41q55 0 97 37t42 96q0 55 -39 93t-96 38q-53 0 -96 -35.5t-43 -91.5z" />
<glyph horiz-adv-x="292" d="M74 1489q0 -35 24.5 -58.5t59.5 -23.5t60.5 23.5t25.5 58.5t-25.5 59.5t-60.5 24.5t-59.5 -24.5t-24.5 -59.5zM92 1489q0 29 18.5 48t47.5 19t48 -19t19 -48q0 -27 -19 -46.5t-48 -19.5t-47.5 19.5t-18.5 46.5z" />
<glyph unicode="&#xa;" horiz-adv-x="563" d="M31 1315q0 -12 14 -12q4 0 12 4q172 147 209 249q6 20 -6 68q-14 47 -31 49q-14 4 -51 -24q-39 -29 -28 -41q10 -25 17 -43.5t5 -34.5q-12 -117 -133 -201q-8 -6 -8 -14zM281 1315q0 -12 14 -12q4 0 12 4q172 147 209 249q6 20 -6 68q-14 47 -31 49q-14 4 -51 -24 q-39 -29 -29 -41q10 -25 17.5 -43.5t5.5 -34.5q-12 -117 -133 -201q-8 -8 -8 -14z" />
<glyph horiz-adv-x="241" d="M61 -134q-2 -32 0 -58.5t9 -38.5q10 -23 25.5 -27t31.5 2t29.5 18.5t21.5 22.5q10 16 19 -2l14 63q-4 23 -18 -2q-31 -41 -56.5 -50t-40.5 20q-6 12 -8 32.5t-1 46t5 53t14 50.5q6 16 -1 17t-17 -17q-10 -29 -17.5 -63.5t-9.5 -66.5z" />
<glyph horiz-adv-x="411" d="M57 1339q0 -4 4 -16q117 -166 121 -168q2 -4 72 66q43 39 68.5 62.5t35.5 31.5q6 12 7 20q0 18 -17 4q-47 -37 -88 -61.5t-74 -38.5q-12 -2 -51 39q-31 31 -61 68q-6 8 -11 6q-6 -4 -6 -13z" />
<glyph unicode="&#xd;" horiz-adv-x="673" />
<glyph horiz-adv-x="837" d="M-113 -154q0 -37 4 -49q13 0 23 43q18 74 156.5 233.5t394.5 405.5q231 223 429 395.5t363 294.5q25 18 25 33q0 16 -18 17q-18 0 -41 -17q-160 -117 -357.5 -293t-439.5 -411q-524 -514 -539 -652z" />
<glyph horiz-adv-x="913" d="M-1493 -770q-23 -98 6 -191.5t103.5 -154t191.5 -73.5t270 48q129 51 263.5 175t263.5 287t248.5 349.5t223 361.5t185.5 323.5t133 236.5q10 16 58.5 22.5t102.5 5t97 -6.5t43 -7q-2 -10 -18 -45t-41 -86t-53.5 -111.5t-53 -119t-41 -110.5t-16.5 -85q0 -37 18.5 -62.5 t45 -40t52 -19.5t38.5 1q45 20 105.5 57.5t120.5 78t111 79.5t76 64q10 12 16.5 23.5t6.5 17.5t-8 4t-27 -21q-29 -27 -82 -65.5t-114.5 -77.5t-121 -69.5t-98.5 -38.5q-18 -4 -41 -5q-23 0 -37 12.5t-13 40t26 78.5t32 67.5t10 22t6 12.5t20.5 41t55.5 104.5t107 201.5 q18 35 8 60.5t-51 29.5h-305q35 57 91.5 138t126 159t148 137.5t162.5 71.5q47 6 92.5 -12.5t79.5 -53.5q6 -4 13.5 1.5t13.5 14.5t10 18t4 14q0 12 -17 31.5t-42 23.5q-53 8 -110.5 -1t-114 -30.5t-108.5 -51.5t-95 -63q-45 -35 -90 -82t-88 -100t-83 -108.5t-75 -106.5 q-25 -4 -47 -2t-45 2q-12 0 -32.5 1t-24.5 -15q-8 -18 11 -27.5t36 -19.5q14 -10 26.5 -25.5t-4.5 -44.5q-55 -102 -133 -248.5t-173 -310.5t-203.5 -333t-224.5 -316.5t-234.5 -259t-235.5 -162.5q-119 -51 -221.5 -46t-173 54t-100 135t-1.5 199q35 135 119 232.5 t189 144.5q29 12 27.5 19t-29.5 -3q-57 -20 -115.5 -58t-110 -89.5t-89.5 -112.5t-52 -129z" />
<glyph horiz-adv-x="0" d="M-3623 -874q0 -195 162 -334q162 -137 418 -138q162 0 333 62q377 135 799 612q86 98 173 208t177 237q293 49 373 135q8 8 8 20q0 14 -7 31.5t-18.5 34t-23.5 29t-22 14.5q-29 4 -58.5 6t-62.5 4q27 41 51.5 83t52.5 87q96 160 191.5 321.5t183.5 323.5q10 16 35 17 q74 0 134 -2.5t110 2.5q-18 -33 -24.5 -42.5t-4.5 -5.5q-47 -80 -97.5 -171t-100.5 -183t-97 -180t-86 -163t-68 -131t-41 -83q-4 -10 -3 -20.5t5.5 -17.5t10.5 -8t12 9q45 86 100.5 187.5t113.5 205t114.5 203t104.5 182t83 142t49 84.5q150 -4 344.5 10t419.5 57t477 119 t519 197q162 74 260 168t142 195.5t38 203.5t-53.5 191.5t-131 158t-196.5 102t-250 26.5t-291 -70q-145 -59 -279 -147.5t-256 -193t-228.5 -219t-198.5 -225.5q-180 -2 -375 -147q-147 -111 -336 -398h-92q-53 0 -57 -14q-6 -16 11 -27.5t36 -19.5q33 -20 32 -51 q0 -14 -6 -29q-211 -393 -422 -723q-35 2 -69.5 4t-71.5 2q-387 0 -782 -80q-473 -94 -834 -288q-430 -231 -430 -563zM-3588 -901q0 274 426 520q711 414 1599 414q29 0 57.5 -1t57.5 -1q-670 -1033 -1276 -1291q-141 -59 -293 -59q-229 0 -401 123q-170 115 -170 295z M-1546 -207q41 57 81 116t79 120q37 -4 67.5 -7.5t58.5 -7.5q41 -10 41 -39q0 -23 -20 -41q-125 -104 -307 -141zM-856 915q158 223 285 353.5t241 152.5q33 6 70 -4q-127 -162 -215 -296t-129 -206h-252zM-639 838q2 0 2 6q0 -2 -1 -3zM-524 922q61 106 140 226t173 247 q2 0 3 -1t3 -1q57 -35 53 -39q12 0 24.5 20.5t12.5 28.5q-2 16 -16 29.5t-35 21.5q90 115 192.5 227.5t218 213t241.5 184.5t262 139q111 45 227.5 52t222 -16.5t195.5 -74.5t147 -122.5t76.5 -159t-16 -181.5t-131 -193.5t-267.5 -195.5t-343 -162.5t-335 -111.5 t-316.5 -72t-287.5 -40t-247.5 -16t-196.5 -3z" />
<glyph horiz-adv-x="1439" d="M36 140q-13 -13 3 -48q2 -10 12 -25.5t24.5 -31t31 -26.5t34.5 -11q27 0 53.5 13.5t36.5 11.5q33 -12 97.5 -35t148.5 -47.5t179.5 -50t188.5 -46t178 -33t146 -10.5q45 0 77 7.5t53.5 18.5t37 24.5t29.5 29.5q20 23 16 32t-32 -17q-16 -14 -31.5 -24.5t-34 -18t-43 -9.5 t-63.5 -2q-47 0 -115 11.5t-145.5 29t-159.5 40t-159 47t-144.5 49t-112.5 42.5q-27 10 -23.5 14.5t15.5 12.5q63 33 101 79t85 109q78 104 135.5 195.5t106.5 175.5q41 12 82 24.5t80 24.5q66 16 51 45q-4 18 -47 2l-133 -36q59 102 122.5 193t155.5 183q86 86 154.5 112 t97.5 7q33 -23 36 -40t11 -40q8 -31 28.5 -25.5t24.5 40.5q4 16 5.5 38.5t-9.5 49.5q-14 39 -61 38t-104.5 -23.5t-117 -58.5t-98.5 -67q-41 -31 -86 -79t-90 -106.5t-91 -123t-89 -129.5l-205 -58q-78 -18 -67 -51q2 -16 45 -6q49 14 96 26.5t92 26.5q-39 -61 -73.5 -118.5 t-63.5 -104.5t-49.5 -79.5t-28.5 -47.5q-35 -49 -71.5 -101t-61.5 -69q-2 -2 -7 -4t-16 2q-37 12 -92 27.5t-94 23.5q-39 10 -52 -3z" />
<glyph horiz-adv-x="806" d="M53 -45q10 -68 51 -90.5t70 -18.5q14 4 21.5 6.5t14.5 5.5t16.5 8t25.5 15q53 29 43 44.5t-57 -11.5q-66 -33 -104 -17.5t-30 78.5q6 70 38 159t82 188.5t112.5 205t130.5 211.5q31 12 44 17.5t16 6.5t4 2t9.5 4t30 12.5t66.5 27.5q57 25 45 47q-4 18 -45 0l-129 -53l2 2 q106 162 206.5 308.5t166.5 252.5q20 29 2.5 51.5t-45.5 22.5q-55 0 -66.5 -28t-11.5 -60q0 -20 -17 -45q-59 -100 -151 -243.5t-191 -303.5l-161 -66q-37 -14 -51.5 -29.5t-10.5 -27.5q6 -14 43 -2q37 16 73 31.5t71 31.5q-66 -109 -125.5 -217t-103.5 -205.5t-67.5 -180.5 t-17.5 -140z" />
<glyph horiz-adv-x="1517" d="M3.5 209q-17.5 -33 4.5 -70q18 -35 54 -58.5t76 -38.5t78 -22.5t60 -5.5q53 2 105.5 15.5t81.5 31.5q23 12 37 7q49 -18 137 -44t192.5 -50.5t217 -43t210.5 -20.5q45 -2 75 -1t50.5 6t39 14.5t42.5 23.5q27 16 19 25.5t-39 -13.5q-35 -23 -88 -25.5t-99 1.5 q-74 6 -157.5 22.5t-171.5 40t-175 51t-165 54.5q-16 4 -15.5 13t21.5 19q53 25 117.5 85.5t128 133t121 147.5t94.5 130q4 8 8 10t14 2h111q14 0 26.5 5t17.5 11.5t0 12.5t-24 6h-102q-12 0 -10 6t8 17q63 82 117.5 152.5t107.5 127.5t110.5 100t129.5 70q12 8 20 12.5 t19 4.5q16 0 29.5 4t29.5 12q18 8 22.5 23.5t-1 27.5t-18.5 19.5t-32 1.5q-8 -2 -25.5 -10.5t-27.5 -8.5q-57 0 -135 8.5t-168 19.5t-185.5 22.5t-185.5 18.5t-170 7t-139 -12q-82 -16 -124 -50t-59.5 -73t-18.5 -78t3 -64q2 -25 14.5 -62.5t29 -77.5t35 -75.5t34.5 -60.5 q14 -20 22.5 -25.5t10.5 -0.5t0 16.5t-6 23.5q-45 137 -56 277q-2 18 3.5 44.5t23.5 53.5t52 49.5t89 34.5q104 25 231.5 27t248 -8.5t220 -25.5t146.5 -24q23 -6 31 -11t7 -10t-11 -10.5t-25 -11.5q-119 -51 -243.5 -163.5t-268.5 -305.5q-4 -8 -6 -7t-12 -3h-33h-53h-51 h-33q-14 0 -22.5 -6t-9.5 -14.5t5 -13.5t19 -5h147q23 0 15.5 -6t-13.5 -16q-39 -55 -92 -124t-110.5 -135.5t-115 -124t-104.5 -87.5q-16 -10 -26.5 -9.5t-20.5 5.5q-33 12 -84 28.5t-106.5 31.5t-109.5 24.5t-93 7.5q-61 0 -78.5 -33zM57.5 177q16.5 13 32.5 7 q20 -4 58 -13t81 -21.5t86 -24.5t74 -23q23 -10 12.5 -16t-28.5 -12q-37 -12 -82 -13.5t-88 6t-80 24.5t-57 42q-25 31 -8.5 44zM903 1559q0 -2 4 -19q119 -164 123 -166q2 -4 72 66q41 39 66.5 62.5t35.5 31.5q8 8 8 20q0 18 -16 5q-47 -37 -88 -62t-74 -39q-12 -2 -51 37 q-31 31 -61 68q-6 10 -13 8q-6 -4 -6 -12z" />
<glyph horiz-adv-x="878" d="M23.5 -50.5q23.5 -15.5 70.5 13.5q43 31 100.5 54.5t118 40t115.5 25.5t94 9q25 4 45.5 -1t35.5 -14t24.5 -21.5t11.5 -22.5q2 -12 9 -20.5t13.5 -10.5t9.5 5t-1 30q-8 29 -30 61.5t-56 51.5q-31 14 -77 17t-96.5 -2t-98.5 -18.5t-81 -31.5q-18 -10 -29.5 -4t15.5 28 q43 47 127 122t179 156t185.5 154.5t149.5 120.5q14 10 16.5 27.5t-5 33t-20.5 23.5t-30 2q-6 -4 -13 -12t-18 -16q-27 -6 -76.5 -9.5t-105 -6.5t-106.5 -4t-76 -1q-14 0 -18.5 14.5t-18.5 8.5q-31 -6 -64.5 -18.5t-56.5 -18.5q-16 -8 -13 -22.5t15.5 -28t26.5 -23.5t24 -8 q31 2 79 7t100.5 12t100.5 14.5t81 11.5q29 10 38 -7.5t-13 -33.5q-35 -27 -87.5 -71t-112 -97t-120.5 -111.5t-112.5 -110.5t-88.5 -95t-49 -66q-4 -8 -17.5 -16.5t-30.5 -18.5t-34.5 -21.5t-25.5 -23.5q-27 -41 -3.5 -56.5zM430 1090q0 -4 4 -21q63 -88 93 -132t34 -46 q2 -4 72 72q45 41 70.5 66.5t35.5 33.5q6 8 6 22q0 18 -16 5q-47 -39 -89 -67t-75 -40q-12 -2 -51 39q-16 16 -31.5 33.5t-33.5 40.5q-6 8 -13 6q-6 -4 -6 -12z" />
<glyph unicode=" "  horiz-adv-x="673" />
<glyph unicode="&#x09;" horiz-adv-x="673" />
<glyph unicode="&#xa0;" horiz-adv-x="673" />
<glyph unicode="!" horiz-adv-x="444" d="M47 63q10 -47 15.5 -56t19.5 -9q25 0 55.5 13.5t30.5 25.5q0 109 -16 125q-4 4 -13 4q-20 0 -52 -15.5t-40 -25.5q-6 -8 0 -62zM209 295q0 -23 18 -23q13 1 21 17q31 55 85 157.5t132 253.5q55 111 101 193t81 141q2 4 11.5 5t18.5 3t18.5 4.5t11.5 8.5q12 18 6 71 t-19 56q-20 8 -57 -2.5t-45 -28.5q-55 -154 -150.5 -363.5t-230.5 -478.5q-2 -6 -2 -14z" />
<glyph unicode="&#x22;" horiz-adv-x="589" d="M420 840q0 -6 10 -11q10 -3 16 7q131 184 209 282q6 8 7 15q0 39 -48 38q-20 0 -28 -16l-164 -305q-2 -2 -2 -10zM635 834q0 -8 12 -11q7 -4 15 6q66 92 117.5 162t92.5 119q6 12 7 16q0 39 -48 39q-18 0 -28 -16l-166 -307q-2 -2 -2 -8z" />
<glyph unicode="#" horiz-adv-x="993" d="M8 367q0 -8 25 -9q8 0 27.5 1t52.5 1h112q-53 -90 -95 -157.5t-71 -114.5q-14 -23 -14 -35q0 -6 4 -6q10 0 39 41q57 90 102.5 156.5t77.5 113.5h228q-111 -178 -166 -270q-14 -23 -15 -35q0 -6 4 -6q14 0 39 41q59 92 104.5 158.5t76.5 111.5q20 0 44.5 1t53.5 1h72 q10 0 30.5 12.5t20.5 22.5t-33 11h-160q53 80 92 138t66 97q18 0 39.5 2t46.5 2h66q8 0 28.5 12.5t20.5 20.5q0 12 -31 12h-137q86 119 139 192.5t76 104.5q27 35 -6 35q-20 0 -35 -10q-78 -106 -136.5 -186.5t-93.5 -135.5h-215q96 135 149.5 208t65.5 89q27 35 -6 35 q-20 0 -34 -10q-53 -70 -109.5 -150t-120.5 -172h-194q-12 0 -37 -15.5t-25 -23.5q0 -10 25 -10q8 0 29.5 2t56.5 2h116q-51 -80 -87.5 -139.5t-63.5 -99.5h-180q-6 0 -16.5 -4.5t-20.5 -10.5t-18.5 -13t-8.5 -11zM297 406q80 119 99 148l59 87q18 0 45.5 2t64.5 2h107 q-57 -88 -95 -147.5t-57 -91.5h-223z" />
<glyph unicode="$" horiz-adv-x="950" d="M43 109q0 -49 213 -80q10 -2 8 -9q-18 -31 -36.5 -59.5t-41.5 -56.5q-6 -12 -6 -17q0 -8 17 -8q23 0 30 15q53 82 76 120q14 10 10 11q236 0 387 104q96 63 97 160q0 39 -15 67q-27 49 -147 164q-10 10 -2 21q59 102 126.5 210.5t145.5 225.5q12 12 17 8q121 8 143 -43 q6 -16 22 -16q25 0 25 26q0 12 -6 23q-41 57 -156 57h-6q-2 0 0 2q0 2 2 4q23 33 39 57.5t29 45.5q2 2 2 4t2 4q0 8 -12 8q-16 0 -33 -16q-41 -61 -72 -103q-8 -8 -14 -8q-254 -51 -377 -158q-84 -70 -84 -159q0 -111 125 -219q12 -6 -2 -21q-72 -119 -130.5 -213 t-105.5 -166q-6 -8 -20 -8q-111 8 -189 59q-2 4 -10 5q-16 0 -33.5 -12.5t-17.5 -28.5zM356 90q55 90 111 180.5t115 180.5q6 10 12 4q31 -31 51.5 -55.5t32.5 -45.5q37 -66 37 -106q0 -53 -51 -92q-23 -18 -58 -35t-76 -27t-85 -13t-83 1q-8 0 -6 8zM514 735q0 29 9 54.5 t32 48.5q78 86 287 135q12 2 14 0l-2 -8q-98 -156 -158.5 -254.5t-89.5 -141.5q-6 -10 -14 -2q-78 88 -78 168z" />
<glyph unicode="%" horiz-adv-x="1404" d="M330 639q0 -123 121 -123q25 0 53 6q55 16 103 46t95 77q43 41 70 88t43 98q14 74 8 136q-4 12 7.5 19t21.5 13q8 16 448 17q31 0 29 -2q-166 -135 -323.5 -279.5t-311.5 -304.5q-348 -362 -362 -481q0 -23 1 -34t3 -17q12 0 22 43q37 145 445 540q180 176 350 323.5 t334 270.5q25 14 24 33q0 16 -18 16q-8 0 -21.5 -7t-33.5 -17q-29 -16 -43.5 -25.5t-16.5 -11.5q-59 -29 -78 -29q-145 2 -276 2t-252 2h-10t-16.5 1t-11.5 2l-11 3q-33 29 -68 29q-33 0 -69 -37q-59 0 -66 -16q-8 -29 -6 -37q-4 -10 -28.5 -41t-65.5 -84q-59 -72 -80 -143 q-10 -47 -10 -76zM387 672q0 10 1 22.5t3 24.5q25 123 144 227q33 29 71.5 41.5t87.5 16.5q98 2 99 -97q0 -35 -13 -78q-35 -115 -111.5 -189.5t-158.5 -90.5q-47 -10 -85 22.5t-38 100.5zM874 133q0 -127 125 -127q29 0 56 8q109 29 194 121q80 82 111 187q16 47 16 92 q0 139 -131 127q-55 -6 -121 -47q-80 -27 -151 -117q-59 -78 -88 -172q-10 -41 -11 -72zM932 162q0 12 2 24.5t4 22.5q20 123 141 227q78 66 156 68q102 6 102 -107q0 -39 -12 -78q-35 -115 -110.5 -188.5t-159.5 -89.5q-47 -10 -85 21.5t-38 99.5z" />
<glyph unicode="&#x26;" horiz-adv-x="1323" d="M-152 610q-4 -12 4.5 -26.5t20.5 -24.5t25.5 -15t21.5 5q12 14 23.5 27.5t27.5 19.5q8 4 35 5t68 3q-66 -106 -84.5 -212.5t7.5 -193.5t92.5 -143.5t170.5 -62.5h35q18 0 37 2q8 -57 23.5 -107.5t39 -87.5t55 -57.5t72.5 -15.5q70 6 127.5 61t100.5 123q12 16 23 33.5 t20 36.5q16 31 30.5 60.5t26.5 53.5q35 68 71.5 142.5t70.5 143.5t61.5 129t46.5 101l76 4q43 0 76.5 -1t58.5 -3q92 -12 92 -88q0 -100 -111 -213q-16 -20 -16 -30q0 -2 4 -3q8 0 27 19q98 92 118 141q10 20 11 49q0 41 -22.5 78t-53.5 62q12 2 8 4t-14.5 5t-22.5 6t-16 7 q-43 8 -78 9t-90 -3q-109 2 -236 2h-258t-255 -1t-224 -1q74 106 170 165t192.5 83.5t182.5 24.5t135 -8q20 -2 35.5 6t22 19t1 22.5t-25.5 17.5q-43 10 -87 34.5t-80 63.5t-57.5 92.5t-17.5 120.5q4 74 40 122t85 75t100.5 31t87.5 -11q43 -14 69 -49t30 -78 q4 -27 17 -27.5t23.5 13.5t15.5 39t-7 49q-16 41 -56 76t-98 37q-53 2 -114.5 -15.5t-115.5 -52.5t-96 -85t-59 -113q-12 -53 -4 -96.5t25.5 -76t39 -56t34.5 -38.5q8 -6 0.5 -21.5t-25.5 -21.5q-72 -16 -146.5 -49t-145.5 -78t-132 -99t-107 -116q-70 -2 -116 -2h-66 q-41 -2 -54 -7t-22 -34zM76 396q8 87 51 173q4 10 9 19.5t9 19.5q70 2 157 3t175 1h176h156h117h61q23 0 26 -9t-7 -34q-12 -29 -30 -60.5t-36 -61t-34.5 -53t-26.5 -34.5q-35 -37 -86.5 -87t-118 -96t-147.5 -80t-173 -36q-4 78 4.5 163t26.5 157l-16 8q-29 -59 -42.5 -147 t-4.5 -181q-10 2 -23 2q-10 0 -20 3q-72 8 -121 55t-69.5 117.5t-12.5 157.5zM358 -2q74 12 136.5 31.5t128 59.5t138.5 106.5t169 173.5l-162 -351q-25 -47 -53.5 -94t-61 -84t-66.5 -61.5t-69 -26.5t-62.5 16.5t-47 52.5t-31.5 79t-19 98zM369 389l16 -6q4 27 0 30 t-16 -24z" />
<glyph unicode="'" horiz-adv-x="364" d="M420 840q0 -6 10 -11q10 -3 16 7q131 184 209 282q6 8 7 15q0 39 -48 38q-20 0 -28 -16l-164 -305q-2 -2 -2 -10z" />
<glyph unicode="(" horiz-adv-x="837" d="M252 53q0 -123 35 -250q6 -27 28 -26q23 0 44.5 19.5t25.5 45.5q2 18 -15.5 29.5t-17.5 15.5q-12 49 -19 100.5t-7 104.5q0 356 237 686q246 338 596 412q31 6 31 20q0 10 -21 11h-10q-4 0 -8 -2q-381 -92 -639 -433q-260 -340 -260 -733z" />
<glyph unicode=")" horiz-adv-x="837" d="M-162 -195q0 -10 21 -10q10 0 16 2q377 92 639 430q258 340 258 734q0 133 -33 251q-6 27 -30 27q-23 0 -43.5 -19.5t-26.5 -45.5q-2 -18 16.5 -29.5t18.5 -16.5q25 -98 24 -206q0 -180 -57 -350.5t-178 -333.5q-248 -338 -596 -412q-29 -6 -29 -21z" />
<glyph unicode="*" horiz-adv-x="743" d="M37.5 740q7.5 -23 36.5 -19q12 2 10 9t2 9q49 37 113.5 68t124.5 65q-14 -47 -33 -100t-31 -97t-13 -69.5t21 -19.5q8 4 15.5 9t1.5 5q-12 0 -5 32t23 76t36.5 92t37.5 83q55 -45 95 -76t85 -66q10 -6 18.5 3.5t-14.5 29.5q-31 31 -68.5 62.5t-84.5 72.5q61 27 144 65 t153 75q10 6 7 17t-20 1q-70 -25 -143.5 -57.5t-138.5 -55.5q31 66 57 120.5t55 113.5q4 10 -6 23.5t-47 -9.5q-20 -10 -20 -26t-7 -31q-16 -43 -38.5 -91t-45.5 -102q-39 31 -73.5 64t-73.5 49q-18 8 -31.5 4t-21.5 -13t-8 -24q0 -12 10 -20q6 -10 12 -5t8 5q43 -20 77 -45 t73 -47q-35 -18 -75 -36t-78 -34t-68.5 -32.5t-49.5 -31.5q-29 -23 -21.5 -46z" />
<glyph unicode="+" horiz-adv-x="856" d="M27 602q-2 -4 4 -14q6 -6 16 -15.5t21.5 -19.5t21.5 -18.5t16 -8.5q47 -6 123 -10t168 -4q-47 -86 -89 -172t-64 -156q-2 -8 -4 -18t1 -17.5t11 -10.5t24 1q18 4 49 22.5t40 31.5q8 10 5 13t-10 -7q-12 -4 -22 -10.5t-21 -10.5q-14 -6 -20 -3t-7 12.5t2 20.5t7 19 q23 63 57.5 136t75.5 149q102 2 201.5 8.5t173.5 22.5q14 2 26.5 15t-8.5 38q-10 16 -36.5 34.5t-38.5 20.5q-10 0 -12.5 -4t7.5 -8q20 -8 35 -27q10 -10 11 -18q0 -6 -7.5 -11t-16.5 -8.5t-17 -3.5q-61 -16 -138 -21t-161 -5q53 92 111.5 179t107.5 153q10 14 30.5 30.5 t36.5 22.5q4 2 1 7t-13 3q-8 -2 -22.5 -8t-30 -13.5t-27.5 -15.5t-14 -12q-39 -51 -98.5 -143.5t-118.5 -202.5q-86 2 -166 8t-144 16q-16 6 -37.5 14.5t-35.5 20.5q-2 2 -4 -2z" />
<glyph unicode="," horiz-adv-x="364" d="M18 -223q0 -16 15 -17q8 1 12 7q190 160 227 270q2 4 2 16q0 33 -12 70t-29 41q-14 4 -55 -27t-33 -45q14 -29 21.5 -49t5.5 -37q-16 -125 -145 -215q-8 -8 -9 -14z" />
<glyph unicode="-" horiz-adv-x="468" d="M41 358q0 -18 35 -18h301q53 0 53 35q0 20 -35 20h-289q-66 0 -65 -37z" />
<glyph unicode="." horiz-adv-x="364" d="M133 63q8 -47 14.5 -56t18.5 -9q27 0 57.5 13.5t30.5 25.5q0 109 -16 125q-8 4 -13 4q-10 0 -24.5 -4t-28.5 -10.5t-25.5 -13.5t-13.5 -13q-6 -8 0 -62z" />
<glyph unicode="/" horiz-adv-x="837" d="M-113 -154q0 -37 4 -49q13 0 23 43q18 74 156.5 233.5t394.5 405.5q231 223 429 395.5t363 294.5q25 18 25 33q0 16 -18 17q-18 0 -41 -17q-160 -117 -357.5 -293t-439.5 -411q-524 -514 -539 -652z" />
<glyph unicode="0" horiz-adv-x="1107" d="M45 238q0 -129 72.5 -197t189.5 -68q27 0 54.5 4.5t56.5 10.5q113 31 212 91t189 159q168 178 232 385q14 53 22 100t8 88q0 137 -73.5 204.5t-194.5 57.5q-100 -10 -188 -59q-27 -10 -58.5 -24.5t-61.5 -31t-53.5 -31t-31.5 -22.5q-266 -229 -352 -524 q-12 -39 -17.5 -75t-5.5 -68zM156 274q0 27 3 53.5t7 55.5q10 55 35.5 116.5t64.5 127.5q82 145 199 243q176 150 338 150q217 2 217 -238q0 -84 -27 -166q-66 -215 -231 -393q-195 -209 -395 -209q-90 0 -146 62q-33 37 -49 85t-16 113z" />
<glyph unicode="1" horiz-adv-x="780" d="M-94 2q0 -23 37 -18q100 12 393 12h65q147 0 207 2t60 25q0 18 -41 14q-61 -6 -244 22q-80 10 -80 52q0 8 4 18t8 23q35 70 104.5 173t174.5 240q102 135 172 216t106 110q4 23 7.5 40t11.5 21q35 23 59.5 37.5t42.5 26.5q14 8 15 28q0 25 -25 25q-10 0 -22 -6 q-92 -53 -243 -119.5t-366 -146.5q-31 -8 -37 -23q-4 -12 17 -12q8 0 30 6q82 27 164 53.5t166 59.5q12 4 21 4q14 0 14 -15q0 -14 -8 -24q-174 -250 -300 -443.5t-204 -334.5q-98 -4 -164.5 -10.5t-107.5 -10.5q-37 -4 -37 -45z" />
<glyph unicode="2" horiz-adv-x="1017" d="M2 4q0 -27 37 -22q309 25 575 24q115 0 195 -6q47 -4 47 23q0 29 -49 28q-512 0 -512 41q0 14 27 23q119 43 235.5 106.5t233.5 155.5q291 221 290 416q0 98 -59 170q-35 41 -87 66.5t-122 29.5q-186 16 -371 -86q-43 -20 -43 -64q0 -10 11 -4q150 84 286 84 q23 0 44.5 -2t41.5 -6q94 -20 154 -102q51 -74 39 -140q-31 -188 -258 -366q-154 -119 -336 -205q-143 -63 -305 -98q-74 -12 -74 -66z" />
<glyph unicode="3" horiz-adv-x="972" d="M-119 -98q0 -74 203 -68q178 2 401 96q135 57 224.5 127t130.5 158q31 55 30 115q0 47 -18 90t-51 74.5t-76 52t-94 24.5q-18 2 -19 15q0 12 17 18q283 104 381 256q27 39 26 90q0 125 -162 125q-188 0 -323 -80q-33 -18 -33 -51q0 -16 14 -8q147 70 293 70q90 0 90 -88 q0 -47 -28 -93q-25 -43 -72 -81.5t-115 -79.5q-145 -84 -264 -84q-18 0 -33.5 -13.5t-15.5 -25.5q0 -8 14 -9q184 10 279 -63q78 -59 78 -162q0 -23 -5 -44t-14 -44q-70 -160 -309 -268q-197 -90 -348 -90q-117 0 -119 63q-4 45 -33 45q-20 0 -34.5 -22.5t-14.5 -44.5z" />
<glyph unicode="4" horiz-adv-x="1136" d="M37 231q0 -33 16 -32q8 0 31 28q23 31 45 35q41 6 112.5 9t180.5 1q170 0 231 -6q-94 -147 -142 -256.5t-54 -187.5q-4 -31 16 -31q12 0 16 25q10 90 115 254q10 18 46 67t91 129q20 -2 64.5 -3t114.5 -1q18 0 40.5 17.5t22.5 27.5q0 6 -10 4q-27 -6 -201 4q23 37 83 119 t159 211q100 127 177 224.5t136 164.5q2 2 2 6q0 10 -22 11q-84 0 -121 -47q-154 -207 -279 -377t-223 -305q-2 0 -32.5 2t-90.5 6q-121 6 -207 6q-113 0 -180 -12q51 66 334 288q147 119 259 200t185 126q16 8 17 23q0 25 -25 24q-8 0 -12 -2q-78 -47 -181.5 -126 t-238.5 -189q-135 -111 -229.5 -197t-149.5 -149q-12 -8 -21.5 -13.5t-19.5 -9.5q-37 -18 -43 -29q-12 -16 -12 -39z" />
<glyph unicode="5" horiz-adv-x="983" d="M14 47q0 -43 103 -74q98 -31 209 -30q319 0 505 215q59 70 60 151q0 82 -62 137q-35 33 -88 63t-125 60q-16 8 -69 28.5t-148 55.5q-31 8 -8 47q72 121 219 258q141 4 289 7.5t301 3.5q47 0 47 28q0 12 -20 13h-244q-104 0 -176 2q-14 4 -24.5 11l-16.5 11 q-39 16 -62.5 22.5t-33.5 6.5q-31 0 -45 -21q-57 -68 -125 -154.5t-146 -197.5q-47 -66 -47 -90q0 -20 23 -29q315 -80 428 -190q45 -45 45 -111q0 -121 -103 -186q-121 -74 -311 -74q-201 0 -276 86q-6 10 -25 10q-27 0 -50.5 -18t-23.5 -41z" />
<glyph unicode="6" horiz-adv-x="972" d="M141 193q0 -92 41 -148.5t125 -85.5q23 -6 48.5 -11t52.5 -5q129 0 268 84q59 37 104 79t78 89q82 113 82 233q0 147 -137 190q-20 10 -68 11q-168 0 -366 -80q72 109 148.5 201t166.5 172q223 201 430 237q39 8 39 19q0 10 -23 10h-12q-6 0 -12 -2q-348 -61 -698 -443 q-266 -287 -267 -550zM229 176q0 195 123 342q61 29 130 42t145 13q84 1 131 -22q78 -37 78 -172q0 -37 -8.5 -75t-26.5 -75q-53 -109 -170 -180q-121 -72 -225 -72q-74 0 -119 39q-57 49 -58 160z" />
<glyph unicode="7" horiz-adv-x="1034" d="M41 -184q-6 -47 27 -47q16 0 30.5 13.5t10.5 29.5q-12 55 88 198.5t325 366.5l608 594q23 23 23 55q0 57 -43 49q-23 -10 -38 -18t-23 -15q-31 -6 -41 -4q-182 -4 -326.5 -7t-251.5 -5q-33 -6 -84 -31q-61 -29 -61 -53q0 -16 16 -16q14 0 25 10q39 14 65.5 23.5 t44.5 11.5q45 6 221 4q199 -2 267 -12q39 -6 39 -25q0 -10 -9 -16q-889 -942 -913 -1106z" />
<glyph unicode="8" horiz-adv-x="1196" d="M74 145q0 -63 23.5 -111t64.5 -82t96 -51.5t119 -17.5q199 0 405 142q211 150 203 297q-4 47 -24.5 107t-55.5 134q-31 68 -104 197q539 313 538 375q0 8 -6 8q-10 0 -41 -25q-35 -33 -94 -76t-145 -96t-154 -90t-117 -59q-37 80 -37 147q0 106 95 178q29 23 70.5 32 t76.5 9q61 0 105 -30q12 -8 25 -17.5t26 -17.5q4 -2 9 -4t11 -2q18 0 15 41q4 29 -48 49q-45 25 -90 20q-49 -2 -98 -11t-102 -32q-113 -41 -166 -106q-35 -39 -35 -103q0 -82 59 -194q-123 -74 -207.5 -128.5t-136.5 -88.5q-104 -74 -167.5 -143.5t-90.5 -131.5 q-23 -61 -22 -119zM143 133q0 64 29 117q113 227 543 463q45 -72 72.5 -117t37.5 -64q33 -63 47.5 -117.5t14.5 -103.5q0 -201 -217 -323q-184 -100 -310 -80q-217 37 -217 225z" />
<glyph unicode="9" horiz-adv-x="1153" d="M23 -6q0 -10 22 -10q14 0 23 2q182 33 359 144.5t357 303.5q285 315 285 563q0 184 -168 240q-53 16 -104 16q-127 0 -273 -88q-59 -39 -106 -81t-80 -89q-88 -121 -88 -250q0 -141 135 -184q18 -4 42 -8t52 -4q193 0 346 76q-133 -227 -333 -394q-217 -178 -429 -215 q-41 -10 -40 -22zM356 784q0 41 10.5 85t32.5 92q25 55 69 101t103 85q119 72 224 72q76 0 123 -41q57 -53 57 -162q0 -201 -133 -363q-119 -59 -271 -59q-92 0 -143 31q-72 43 -72 159z" />
<glyph unicode=":" horiz-adv-x="471" d="M133 63q8 -47 14.5 -56t18.5 -9q27 0 57.5 13.5t30.5 25.5q0 109 -16 125q-8 4 -13 4q-10 0 -24.5 -4t-28.5 -10.5t-25.5 -13.5t-13.5 -13q-6 -8 0 -62zM351 482.5q1 -15.5 5 -40.5q8 -47 14.5 -57t18.5 -10q27 0 57.5 14.5t30.5 24.5q0 109 -18 127q-4 4 -10 4 q-20 0 -53.5 -15.5t-39.5 -27.5q-6 -4 -5 -19.5z" />
<glyph unicode=";" horiz-adv-x="464" d="M18 -223q0 -16 15 -17q8 1 12 7q190 160 227 270q2 4 2 16q0 33 -12 70t-29 41q-14 4 -55 -27t-33 -45q14 -29 21.5 -49t5.5 -37q-16 -125 -145 -215q-8 -8 -9 -14zM351 482.5q1 -15.5 5 -40.5q8 -47 14.5 -57t18.5 -10q27 0 57.5 14.5t30.5 24.5q0 109 -18 127 q-4 4 -10 4q-20 0 -53.5 -15.5t-39.5 -27.5q-6 -4 -5 -19.5z" />
<glyph unicode="&#x3c;" horiz-adv-x="1271" d="M41 627q-37 -63 12 -88q29 2 34 3t17 -1q29 -6 41 -21q94 -51 208 -119.5t222.5 -138t202.5 -129t150 -92.5q16 -8 42.5 -10t59.5 -6q41 -4 62.5 2t33.5 18q4 10 -1 16.5t-13 16.5q-4 -2 -10 1t-21 -1q-41 10 -75.5 15t-53.5 16q-33 12 -90 44.5t-123.5 75.5t-139.5 92.5 t-137.5 95.5t-114.5 83t-73 55q-18 14 -22 28.5t-2 24.5q0 2 36 18.5t95 44t134 62.5t154 71t153.5 70.5t134 62.5t96.5 44t39 16l155 86q-39 -12 -109.5 -36.5t-161.5 -57.5t-194.5 -70.5t-207 -75.5t-198.5 -74t-168 -65.5t-119 -50t-48 -26.5z" />
<glyph unicode="=" horiz-adv-x="944" d="M41 377q0 -17 37 -17h162h196q100 0 189.5 1t136.5 1q61 0 61 29q0 16 -43 17h-663q-76 0 -76 -31zM119 584q0 -17 39 -17h161h197q100 0 188.5 1t135.5 1q61 0 61 31q0 14 -43 14h-661q-78 0 -78 -30z" />
<glyph unicode="&#x3e;" horiz-adv-x="1300" d="M27 16q51 16 158.5 54.5t240.5 85.5t274.5 99t259 97t194.5 78t81 43q37 63 -14 88q-27 -2 -32 -3t-18 1q-16 4 -24 7t-19 14q-94 51 -206.5 119.5t-222 138t-203 129t-150.5 92.5q-16 6 -41.5 9t-58.5 7q-41 4 -63.5 -3t-32.5 -17q-4 -10 1 -17.5t11 -17.5q4 2 11 0 t22 0q41 -8 74.5 -13.5t52.5 -15.5q33 -12 90 -45t123.5 -76t139.5 -93t137.5 -95t113.5 -82t73 -55q20 -16 24.5 -29.5t2.5 -23.5q-2 -2 -63.5 -31t-154.5 -72t-201.5 -93t-202 -93t-157 -72t-65.5 -29z" />
<glyph unicode="?" horiz-adv-x="878" d="M254 45q8 -45 16.5 -54t24.5 -9q23 0 51.5 12t34.5 22q2 6 3 22.5t-3 45.5q-6 51 -15.5 58.5t-19.5 7.5q-12 0 -49 -17q-33 -16 -41 -28.5t-2 -59.5zM313 362q0 -14 8.5 -34.5t30.5 -48.5q43 -49 66 -50q14 1 14 15q0 4 -5 15t-11 26.5t-9.5 32t1.5 30.5q10 29 34 35 q43 14 115 40t176 71q207 84 285 135q203 113 203 325q0 39 -5.5 78t-19.5 80q-16 57 -48 106.5t-73 92.5q-106 102 -237 102q-18 0 -37 -2t-39 -8q-100 -23 -176 -123q-4 -10 -8.5 -17.5t-4.5 -15.5t9 -8q10 0 26 23q51 74 158 73q51 0 104.5 -18.5t98.5 -51t79.5 -80.5 t53.5 -106q12 -37 17 -70.5t5 -64.5q0 -217 -309 -379q-84 -43 -203.5 -90t-285.5 -94q-12 -4 -13 -19z" />
<glyph unicode="@" horiz-adv-x="1863" d="M49 219q0 -209 73 -388t201 -310t304 -205t383 -74q188 0 358 62.5t307 179.5q-49 -33 -118.5 -64.5t-153.5 -57.5t-182.5 -42t-204.5 -16q-154 0 -287 43t-242 121q-166 123 -256 321q-41 92 -59 191q-10 45 -16 91t-6 91v63q0 27 2 50.5t5 47t7 54.5q10 70 30.5 137.5 t47.5 132.5q23 53 50 101.5t60 93.5q20 31 44 57.5t46 54.5q74 82 168 146q215 143 488 143q158 0 290 -50t228 -140t150.5 -215t54.5 -277q0 -154 -52.5 -304.5t-144.5 -264.5q-37 -41 -94 -89t-117.5 -91t-118 -77t-96.5 -46q-72 -25 -143 -25q-160 0 -160 137v21 q0 8 2 18q18 119 66.5 251t134.5 276q53 92 111.5 181t117.5 181q2 6 -3 16.5t-15 10.5q-4 0 -11 -6q-25 -20 -55 -27q-4 -2 -39 2q-49 18 -98 18q-41 0 -84 -16q-78 -33 -171 -96.5t-198 -167.5q-227 -227 -227 -375q0 -70 51 -70q27 1 47 15q66 41 143.5 96t166.5 133 q180 154 276 266q2 6 8 7q14 0 2 -23q-35 -53 -68.5 -116.5t-68.5 -139.5q-57 -123 -87 -226.5t-34 -189.5q-4 -104 68 -159q66 -53 166 -54q31 0 60.5 5.5t57.5 15.5q55 23 133 66.5t169 107.5q41 29 71.5 57.5t63.5 57.5q109 117 168 277.5t59 328.5t-57.5 306t-161 237.5 t-248.5 153.5t-321 54q-217 0 -406.5 -83t-331 -228t-222.5 -341t-81 -423zM549 160q0 29 10 47q57 135 193 287q84 92 150.5 142t139.5 50q43 0 69 -18.5t26 -40.5q0 -10 -7 -17q-143 -174 -271 -294.5t-243 -194.5q-16 -10 -30 -10q-37 0 -37 49zM1675 -516q83 55 103 98 q-43 -49 -103 -98z" />
<glyph unicode="A" horiz-adv-x="2289" d="M78 246q0 -129 70 -203q69 -72 193 -72h7q260 4 656 279q141 100 258.5 199.5t216.5 203.5q137 -33 260 -59.5t233 -48.5q-10 -90 -15 -166t-5 -139q0 -170 33 -238q2 -8 16 -8q37 0 41 31q0 2 -6 6t-14.5 8t-15.5 8t-7 6q-14 43 -14 115q0 70 12 160t35 207 q94 -17 150 -25q24 -3 42 -4q24 0 37 6q61 21 61 46q0 4 -2 9q-27 66 -102 133q-6 4 -11 8.5t-12 4.5q-12 0 -8 -13q1 -14 17 -24q67 -58 67 -108q0 -33 -61 -33h-4q-66 0 -170 30q25 135 114 439q27 82 66 201.5t92 281.5q4 14 -39 43t-78 29q-16 0 -26 -11 q-59 -92 -149.5 -206.5t-207.5 -256.5q-213 -256 -331 -380q-483 104 -795 104q-70 0 -126 -5t-103 -18q-227 -57 -322 -297q-29 -66 -41 -127t-12 -116zM127 270q0 104 39 207q43 111 111.5 175t164.5 87q45 10 102.5 15.5t129.5 5.5q362 0 760 -98q-219 -221 -447 -388 q-367 -258 -631 -264h-10q-52 0 -92 18q-43 20 -74 60q-53 68 -53 182zM1518 692q160 166 315.5 350.5t310.5 391.5q10 10 16.5 15t16.5 5q18 0 18 -33q0 -6 -4 -26q-186 -569 -211 -817q-115 23 -230 51t-232 63z" />
<glyph unicode="B" horiz-adv-x="1503" d="M50 1181q12 -38 44.5 -70t73.5 -59.5t76 -47.5q37 -25 39 -8.5t-29 32.5q-18 10 -48 31.5t-54 51.5q-26 31 -38 63q-5 14 -5 27q0 18 10 36q27 53 79 89t115.5 56.5t132 29.5t128.5 12q36 2 68 2q21 0 39 -1q46 -2 64 -2q125 -2 252 -12t249 -35.5t234.5 -70.5 t209.5 -117q62 -46 80 -98q10 -30 11 -59q1 -21 -5 -41q-12 -48 -45 -91t-72 -74q-41 -33 -101.5 -63.5t-131 -58t-145.5 -50t-141.5 -40t-120.5 -30t-83 -16.5q16 25 45 70t64.5 101.5t72.5 118t69 118.5t54.5 106t26.5 78q6 31 -16.5 34t-49 -6t-45 -23.5t-6.5 -16.5 q14 -2 18.5 -13.5t3 -24.5t-6.5 -28.5t-9 -23.5q-20 -45 -51 -104.5t-70 -125t-83 -134t-89 -132.5q-27 -8 -62.5 -11t-53.5 -5q-6 0 -11.5 -7.5t-4.5 -16.5t9.5 -18t24.5 -16q14 -6 24.5 -8t24.5 -6q-35 -51 -80 -124t-90 -146.5t-81 -141t-48 -108.5q-15 -47 -6 -47h1 q11 2 32 43q25 57 75 140t102 162t96 139.5t56 76.5q33 -4 88.5 -15.5t112.5 -27.5t109.5 -35.5t79.5 -40.5q41 -32 53 -68q7 -21 7 -41q0 -16 -4 -31q-9 -36 -36 -65.5t-63 -46.5q-85 -40 -191 -58q-83 -15 -166 -14q-22 0 -45 1q-12 0 -24.5 -5.5t-14.5 -12.5t9 -14t44 -9 q25 -1 50 -1q99 -1 181 19q102 24 171 72q35 25 73 56q36 30 58 66q19 32 20 69q0 5 -1 10q-3 42 -50 90q-16 16 -51 38.5t-83 45t-106.5 41t-121.5 26.5q-25 4 -25 16t27 17q68 12 159 32.5t188 51.5t193.5 73t176.5 95q66 43 105.5 98t47.5 113q2 13 2 26q-1 46 -23 90 q-28 58 -98 107q-109 76 -223.5 119t-237 66.5t-252.5 30.5t-270 9q-8 0 -55 -2t-113.5 -8t-144.5 -19.5t-150.5 -36t-131 -54t-83.5 -78.5q-17 -29 -17 -55q0 -13 4 -26z" />
<glyph unicode="C" horiz-adv-x="1923" d="M76 410q0 -188 196 -306q176 -108 426 -112h31q139 0 285 32q162 36 334 107q322 135 507 326q14 14 15 22q0 10 -8 10q-10 0 -23 -14q-96 -88 -219 -160.5t-277 -136.5q-166 -66 -326.5 -101.5t-316.5 -39.5h-28q-250 0 -393 102q-129 94 -129 246q0 51 14 100 q94 309 522 633q406 301 752 367q29 4 54.5 6t47.5 2q166 0 203 -82q-88 -94 -176 -237q-117 -184 -117 -300q0 -8 33 -14q29 -2 35 0q117 66 200 168q74 82 100.5 152.5t26.5 150.5q0 82 -28 117q27 33 26 39q0 12 -10 14q-12 4 -14 -6l-27 -27q-68 61 -223 62 q-55 0 -111 -6q-219 -27 -545 -203q-344 -186 -573 -420q-264 -268 -264 -491zM1503 915q27 106 99 244q37 72 75.5 125t77.5 94q20 -35 21 -92q0 -33 -7.5 -63.5t-19.5 -63.5q-70 -162 -223 -262q-5 -3 -9.5 -3t-9.5 3t-5 12q1 2 1 6z" />
<glyph unicode="D" horiz-adv-x="1769" d="M49 1104q-6 -33 -6 -66q0 -96 50 -192q67 -129 206 -264q41 -37 52 -26t-25 52q-39 43 -87.5 103.5t-84.5 130.5q-36 71 -52 150q-5 28 -6 55q0 52 19 104q37 106 122 177t198.5 113t244.5 57q109 12 216 12h43q128 -3 241.5 -20t191.5 -44q248 -82 390 -232 q142 -149 176 -324q11 -55 11 -111q1 -121 -49 -245q-72 -180 -253 -325q-70 -55 -157 -99t-179 -76q-91 -32 -185 -48q-78 -13 -147 -12h-26q-79 3 -139 27t-87 73q-16 28 -17 66v5q0 35 13 62q20 51 67.5 135t109 184.5t131 208t137 206.5t126 181t97.5 131 q10 14 2.5 21.5t-23.5 7.5q-14 0 -32.5 -7t-28.5 -20q-35 -39 -82 -103.5t-100.5 -144t-111 -173t-112.5 -188.5t-106.5 -190.5t-91.5 -179.5q-4 -8 -3 -8q4 0 -4 0q-62 -4 -62 -54q0 -23 13 -54l5 -17.5t-3 -13.5q-16 -47 -34.5 -99.5t-26.5 -92.5q-8 -42 6 -42h1 q15 1 21 35q10 43 21.5 74t24.5 64q10 18 15 17t13 -17q35 -82 106.5 -116t162.5 -34q92 0 195.5 26.5t199.5 65.5t179 84t134 82q139 102 226 224t120 250q20 79 20 158q1 49 -7 98q-20 128 -97.5 242t-209.5 208t-322 155q-80 25 -205 39q-95 11 -201 12q-33 0 -67 -2 q-142 -4 -288 -28.5t-269 -78.5t-210 -140t-110 -209z" />
<glyph unicode="E" horiz-adv-x="1648" d="M61 692q0 -55 12.5 -112.5t31 -111.5t43 -102.5t53.5 -86.5q16 -23 29.5 -16t-1.5 32q-59 91 -91 191q-26 82 -26 168q0 19 1 38q10 145 90 254t188 182q88 53 190.5 91t207 62t206 35t187.5 11q-115 -139 -221.5 -285.5t-204.5 -293.5q-16 -4 -38 -7.5t-44.5 -6.5 t-41 -7t-26.5 -12q-10 -10 -10 -23q0 -10 5 -21.5t13.5 -20.5t14.5 -13q10 -16 28.5 -18.5t34.5 -2.5q-25 -37 -51.5 -96t-49 -124.5t-35.5 -133.5q-10 -52 -10 -98q0 -14 1 -27q6 -74 45 -122t88 -75.5t97 -39t75 -11.5q74 0 161 16.5t176 47.5t176 76t161 104 q14 8 11 22.5t-26 2.5q-78 -45 -168 -81t-178 -61.5t-169 -42t-142 -20.5q-17 -2 -35 -2q-26 0 -52 4q-44 6 -80 26.5t-58.5 57.5t-22.5 92q2 74 20.5 145.5t45 138t57.5 125t57 105.5q39 10 99.5 19.5t133.5 16.5t150.5 13t153.5 10.5t143.5 7.5t116.5 3q31 0 30 18.5 t-30 22.5q-80 6 -174 8q-63 1 -126 1h-65q-96 -1 -192 -5t-178 -10q94 147 212 300.5t243 276.5q70 0 154.5 -4t167.5 -10t155.5 -15.5t117.5 -17.5q22 -8 46 -5q20 3 21 23q0 3 -1 7q0 41 -45 55q-100 16 -226 30.5t-278 16.5q-27 0 -39 14.5t-18 30.5t-12 26q-4 5 -9 5 q-4 0 -10 -4q-18 -14 -34.5 -29.5t-37.5 -38.5q-133 -8 -252.5 -19.5t-230 -35t-214 -64.5t-202.5 -104q-152 -102 -226 -219q-69 -108 -69 -253v-24z" />
<glyph unicode="F" horiz-adv-x="1781" d="M26 1069q-1 -21 -1 -41q0 -110 30 -218q35 -128 112 -238.5t193 -184.5q54 -33 132 -33h10q84 2 163.5 36t140 95.5t73.5 145.5q0 10 -14.5 8t-16.5 -8q-25 -82 -83 -137.5t-131 -81.5q-59 -21 -122 -20q-15 0 -30 1q-79 6 -146 47q-88 57 -148 152q-60 96 -90 208 q-30 108 -30 221q0 4 1 7q1 117 34.5 216t104.5 168t179 87q90 13 176 13q62 0 122 -6q144 -16 282.5 -53.5t269.5 -86.5t256 -90q125 -40 245 -64q75 -15 148 -15q43 0 86 5q74 8 112 48t42 90q1 7 0 14q0 43 -22 86q-26 49 -76 78q-16 10 -28 7.5t11 -22.5 q23 -18 40 -36.5t30 -47.5q20 -42 20 -74q0 -33 -21 -54q-42 -42 -151 -42q-106 0 -270 41t-367 121q-102 39 -218 77t-235.5 62.5t-235.5 29.5q-20 1 -40 0q-93 0 -177 -18q-101 -24 -180 -83.5t-124 -163.5q-50 -115 -56 -246zM987 37q3 -35 20 -35q5 0 9 2q24 10 37 53 q2 14 -1 19.5t-7.5 8.5t-8.5 7t-4 17q-1 14 -1 29q1 42 9 94q12 68 31 141t44.5 146t49.5 136q6 23 16.5 32t32.5 9q39 2 104.5 3t134.5 2t128 5.5t86 12.5q31 4 31 13q0 7 -29 7q-27 0 -78 -1t-112 -1t-124 2t-112 11q-23 4 -26 8t6 24q29 70 69.5 137.5t79.5 124t72 96.5 t45 56q12 14 13 29.5t-5 26.5q-7 10 -17 14q-3 1 -6 1q-8 0 -16 -7q-29 -25 -78 -68t-102 -68q-8 -2 -12 -8t-4 -12q0 -4 6 -5t20 5q29 12 47.5 14t-2.5 -26q-47 -78 -89 -154t-75 -141q-12 -29 -23 -35t-34 -12q-47 -10 -69.5 -22.5t-26.5 -35.5q-2 -8 1 -9t10 2t17.5 6 t22.5 3q18 0 34.5 -8t8.5 -31q-27 -72 -51.5 -162t-42.5 -179q-17 -90 -26 -164q-5 -45 -5 -76q0 -21 2 -37z" />
<glyph unicode="G" horiz-adv-x="1755" d="M66 387q0 -154 114 -233q53 -37 123 -56q58 -17 127 -17q14 0 29 1q129 2 290.5 48t360.5 140q164 78 306.5 164t271.5 178q23 16 24 17q2 0 2 -4q0 -8 -10 -31q-66 -139 -117 -246.5t-86 -189.5q-211 -39 -346 -69t-197 -46q-337 -96 -458 -229q-78 -88 -78 -193 q0 -109 80 -176q83 -70 225 -70h16q139 4 347 144q186 121 464 620q92 27 105 33q18 23 34.5 42t26.5 36q-23 76 -57 110q90 178 140 277.5t65 124.5q16 6 28.5 9t16.5 7q55 57 92 203q6 18 2 47q-4 27 -16 27q-4 0 -11 -6q-33 -29 -56 -49.5t-40 -34.5q-49 -63 -131 -256 q-8 -10 -10 -13q-72 -70 -208 -154.5t-335 -183.5q-238 -119 -424 -175q-180 -54 -315 -54h-10q-174 2 -259.5 62.5t-85.5 177.5q0 72 31 168q117 350 647 651q518 295 998 295h45q23 0 45 -2q158 -16 248 -109q23 -25 43 -54.5t37 -68.5q6 -14 14 -16q10 -2 10 8t-6 21 q-37 121 -127 202q-96 88 -225 95q-45 3 -90 3q-459 0 -971 -286q-582 -326 -713 -729q-14 -41 -20 -82t-6 -78zM442 -395q0 96 84 174q117 102 371 194q86 31 186.5 57.5t216.5 55.5l183 41q-231 -440 -408 -580q-154 -123 -336 -129h-10q-138 0 -217 52q-70 55 -70 135z M1573 174q25 53 45.5 92t32.5 68q23 -23 23 -56q0 -6 -1 -12q-2 -39 -26 -57q-23 -12 -40.5 -21.5t-33.5 -13.5z" />
<glyph unicode="H" horiz-adv-x="2236" d="M31 -156q-1 -10 -1 -20q0 -34 16 -66q20 -41 66 -66.5t118 -27.5h9q70 0 164 29q150 49 293.5 141t276.5 212t255 260t230 288q55 8 134 13t160 8t154.5 5.5t118.5 2.5q-27 -55 -53 -130t-46 -152t-28 -149q-4 -32 -3 -61q0 -37 6 -68q2 -12 12 -28.5t22.5 -28.5 t26.5 -18t27 -2q20 14 28 24q8 14 4 22.5t-18 0.5q-16 -10 -38.5 -1t-22.5 38v14q0 66 16 140q18 82 45 158.5t55.5 140t46.5 100.5q29 0 50.5 2t39.5 0q14 -4 23.5 2t12.5 13t-1 15.5t-18 12.5q-16 4 -39 2t-45 -2q47 100 114.5 214.5t146.5 231.5t165 228.5t170 205.5 q1 3 1 7q0 11 -4 23q-5 18 -15.5 30t-22.5 17q-4 2 -8 2q-8 0 -15 -7q-20 -23 -50 -51.5t-62.5 -61t-64.5 -66.5t-56 -63q-8 -8 -3 -15t15 -5q16 6 22.5 -1t-3.5 -20q-41 -53 -96.5 -135t-114 -174t-112.5 -186t-91 -174q-49 -2 -123 -2t-151.5 1t-148.5 2h-44q-42 0 -72 -1 q25 37 51.5 86t49 104t41 111.5t24.5 103.5q6 45 6 87q-1 63 -15 116q-24 88 -87.5 143.5t-163.5 72.5q-40 7 -84 7q-68 0 -149 -16q-102 -23 -221 -77t-237 -134t-223.5 -180.5t-179.5 -212.5q-10 -12 -9 -32t7.5 -36t17.5 -25.5t23 -1.5q27 16 53.5 43t43.5 50q8 12 12 22 t4 37q156 180 344 310t385 179q86 21 155 21q26 0 50 -3q86 -11 137 -57q50 -46 66 -124q7 -34 7 -74q0 -51 -11 -111q-10 -41 -32 -97t-49.5 -113.5t-58 -111t-59.5 -87.5q-39 -3 -77 -3h-19h-12q-40 0 -70 -6q-20 -2 -24.5 -16t1.5 -30.5t20.5 -30t32.5 -13.5 q23 0 50.5 5.5t44.5 7.5q-82 -121 -194 -250t-237.5 -246t-261 -209t-262.5 -137q-70 -23 -128 -33q-31 -5 -57 -5q-23 0 -43 4q-41 9 -61 41q-15 24 -15 66q0 13 1 27q4 39 18.5 78t34 75t41 65.5t39.5 52.5q16 16 6 23t-26 -9q-25 -23 -52.5 -54.5t-53 -68.5t-44 -78 t-24.5 -80z" />
<glyph unicode="I" horiz-adv-x="1140" d="M82 164q8 -35 22.5 -74t36.5 -59q35 -27 85 -37q33 -7 70 -7q18 0 36 2q56 5 118 25.5t117 57.5q143 92 280.5 254.5t263.5 359.5t236.5 411.5t202.5 415.5q2 4 2 8q0 5 -3 11q-5 10 -14 17t-21 9h-4q-10 0 -17 -8q-12 -14 -45 -24q-139 -31 -275.5 -74t-257 -95 t-223 -110.5t-172.5 -118.5q-82 -70 -127 -135q-41 -60 -41 -125v-12q2 -39 14.5 -82t30.5 -65q8 -10 13.5 -4t1.5 16q-10 23 -20 59q-6 21 -6 43q0 17 3 35q16 80 66.5 134.5t101.5 94.5q76 57 174 113.5t210 105t234.5 87.5t245.5 61q-45 -109 -104.5 -234.5t-128 -258 t-146 -261.5t-159.5 -243.5t-168 -207.5t-172 -153q-49 -33 -101 -51q-53 -19 -101 -23q-17 -2 -32 -1q-30 -1 -56 5q-40 8 -67 31q-25 20 -46 50t-31 65q-5 18 -19 14q-10 -3 -10 -13q0 -4 2 -9z" />
<glyph unicode="J" horiz-adv-x="1359" d="M-312 -662q-2 -20 -2 -37q0 -51 22 -87q30 -50 96 -68q29 -8 64 -8q42 0 93 12q129 31 239.5 83t208 119.5t182.5 147.5t159 166q145 172 266 355.5t233 375.5q16 6 35 13.5t27 9.5q16 4 17 14t-15 10q-14 0 -17.5 13.5t4.5 29.5q51 98 119 224.5t138.5 264.5 t140.5 278.5t129 269.5q2 3 2 6.5t-2 7.5q-4 8 -13.5 14.5t-19.5 8.5h-4q-7 0 -14 -7q-12 -14 -32 -27.5t-48 -17.5q-35 -12 -105.5 -25.5t-163 -37t-197 -60t-206.5 -95t-195.5 -141.5t-160.5 -200q-39 -68 -58.5 -142.5t-20.5 -147.5v-10q0 -68 14 -130q15 -67 44 -119 q10 -18 18.5 -13t-1.5 22q-31 61 -33 128v16q0 60 13 118q15 67 44 127.5t60 109.5q74 123 178 220.5t228 167t261 105.5t273 36q-43 -100 -102.5 -225.5t-126 -258.5t-137.5 -270t-136 -262q-111 -35 -240 -87t-264 -121t-271.5 -150.5t-257 -173t-223 -189.5t-170.5 -199 q-61 -90 -72 -164zM-262 -676q14 64 76 150q109 150 269.5 289t344.5 257.5t376.5 211t364.5 149.5q-41 -66 -99 -159t-122.5 -190.5t-128 -186.5t-114.5 -146q-68 -78 -147 -156t-171 -146.5t-198.5 -122.5t-229.5 -87q-52 -13 -94 -13q-21 0 -39 3q-55 10 -78 47 q-15 23 -15 57q0 20 5 43z" />
<glyph unicode="K" horiz-adv-x="1486" d="M74 827q-2 -10 -2 -19q0 -14 4 -25q6 -19 18 -35.5t26.5 -28.5t24.5 -21q10 -6 34 -3t59 10q23 0 22 14q0 8 -27 14q-53 0 -79 15q-41 14 -41 49q0 16 8 41q68 195 416 419q174 117 308 169q114 45 201 45q15 0 29 -1q117 -6 117 -118q0 -37 -12 -68q-68 -199 -338 -680 q-121 -215 -208 -357.5t-142 -219.5q-4 -4 -5 -13q0 -18 35 -18q23 0 29 12q41 68 199 246q82 94 134 144.5t77 60.5q330 -864 641 -1006q84 -41 174 -41q174 0 346 160q16 18 16 29q0 10 -6 10q-8 0 -31 -19q-138 -151 -317 -151h-2q-84 0 -158 45q-106 63 -204.5 195.5 t-194.5 334.5q-37 82 -85 205t-108 297q319 274 469 375q213 147 381 213q150 58 264 58q14 0 27 -1q35 -6 35 11q0 14 -35 18q-14 1 -29 1q-223 0 -598 -226q-135 -86 -269 -183.5t-269 -212.5q-16 25 -35 17q-20 -12 -33 -84q-98 -86 -152 -139q-25 -20 -32 -21 q-10 0 -11 12q0 6 3.5 15.5t11.5 17.5q459 709 477 891q1 9 1 18q0 22 -6 46q-9 34 -34 75q-49 102 -135 109h-14q-93 0 -219 -48q-136 -52 -310 -169q-367 -236 -442 -459q-2 -4 -2 -12t-2 -13z" />
<glyph unicode="L" horiz-adv-x="1619" d="M47 319q8 -113 168 -258q157 -153 310 -153h10q78 4 149 69q76 63 107 158q507 -266 879 -397q355 -125 586 -125h21q51 2 103.5 8t105.5 23q47 12 78 25.5t49 23.5q57 43 105 151q45 113 45 203q0 37 -13 37q-8 0 -14 -35q-4 -49 -17.5 -97t-34 -90t-46 -77t-51.5 -55 q-123 -95 -303 -95h-11q-238 6 -581 140q-123 49 -259.5 112.5t-287.5 143.5q-82 45 -163 90t-163 88q74 186 124 307t79 182q199 434 356 611q134 152 256 152q10 0 19 -1q100 -8 200 -106q51 -49 90 -105.5t64 -122.5q8 -23 21 -22q12 0 12 18q0 4 -2 9.5t-4 11.5 q-54 172 -154 264q-95 88 -213 88h-10q-41 0 -88 -16.5t-103 -44.5q-45 -27 -75.5 -49.5t-53.5 -45.5q-78 -82 -166 -231.5t-184 -370.5q-82 -178 -205 -508q-125 59 -192.5 90t-79.5 37q-195 80 -299 80q-10 0 -22.5 -1t-22.5 -3q-16 -4 -32.5 -14t-39.5 -27 q-51 -41 -47 -72zM111 315q0 47 55 47q10 0 22 -2q188 -29 564 -208q-62 -218 -210 -218h-5q-104 2 -228 99q-131 102 -188 237q-10 27 -10 45z" />
<glyph unicode="M" horiz-adv-x="2412" d="M43 836q0 -41 24.5 -76t47.5 -43q18 -6 35.5 -6t33.5 6q33 10 33 18t-29 4q-3 -1 -7 -1q-19 0 -62 14q-51 18 -51 51q0 180 368 469q354 279 576 303q19 2 35 2q49 -1 73 -19q32 -24 31 -94q0 -74 -55 -245q-31 -92 -68 -181.5t-82 -175.5q-104 -100 -199.5 -205.5 t-183.5 -222.5q-221 -289 -221 -409q0 -45 16 -45q18 0 64 26q23 10 38 21.5t21 19.5q227 246 508 801q70 86 197 182q150 117 229 117q48 0 48 -52q0 -8 -1 -16q-27 -141 -126 -378.5t-277 -575.5l-3 -9t-1 -7q0 -20 32 -21q43 0 64 27q270 356 625 704q403 397 585 445 q31 8 58 8q61 0 61 -45q0 -14 -6 -33.5t-23 -42.5q-102 -160 -188 -315.5t-160 -307.5q-180 -381 -180 -561q0 -55 33 -104q26 -41 54 -41q6 0 11 2q41 12 87 38.5t100 74.5q90 76 133 139q16 23 16 35q0 6 -6 6q-10 0 -29 -25q-47 -59 -143 -133q-51 -39 -91 -60.5 t-69 -29.5q-9 -2 -18 -2q-45 0 -45 67v15q0 6 2 14q37 244 244 621q41 74 117.5 201.5t191.5 310.5q10 10 10 45q0 57 -29 114q-32 60 -81 60h-5q-176 -10 -604 -422q-344 -338 -540 -598q-12 -20 -29 -21q-31 0 -14 35q254 524 284 766v9q-1 34 -27 64q-30 34 -71 34 q-102 0 -363 -228q72 168 111 296q43 141 43 217q0 53 -63 104q-63 47 -122 47h-5q-133 -10 -369 -152q-231 -137 -406 -311q-188 -193 -188 -319zM422 104q55 156 223 377q141 190 260 293q-45 -113 -200 -354q-76 -121 -138.5 -208t-109.5 -140q-16 -23 -31 -23t-15 16 q0 14 11 39z" />
<glyph unicode="N" horiz-adv-x="1859" d="M49 674v-15q0 -121 92 -139q16 -3 34 -3q40 0 89 15q25 6 25 17q0 12 -25 8q-29 -6 -60.5 -5t-62.5 7q-53 10 -53 66q0 154 205 364q94 98 202.5 180t237.5 158q242 135 382 135h15q150 -12 150 -182q0 -29 -5 -59.5t-15 -63.5q-88 -279 -586 -1098q-4 -10 -7 -17t-3 -13 q0 -23 26 -23q29 0 51 33q31 51 87.5 127t140.5 182q100 127 200.5 237.5t204.5 211.5q258 240 441 317q43 18 73 19q47 0 47 -43q0 -35 -22 -78l-297 -602q-33 -68 -80 -182.5t-99.5 -251t-103.5 -281t-92 -270t-66.5 -219t-27.5 -126.5q0 -23 6 -47t18.5 -44.5t29 -35 t38.5 -14.5q55 0 164 86q100 82 135 139q18 27 18 35q0 4 -4 8q-6 0 -30 -24q-213 -211 -299 -211q-33 0 -33 61q0 10 4 21.5t0 21.5q-7 14 -7 39q1 34 13 87q22 93 65.5 220t104 273.5t121.5 286t117.5 256t93.5 184.5q72 137 145.5 269t147.5 270q4 8 5 20t1 25 q0 29 -4 56.5t-33 59.5q-23 27 -43 42.5t-49 9.5q-180 -29 -512 -355q-123 -119 -224.5 -229.5t-185.5 -216.5q-18 -33 -32 -33q-8 0 -9 8q0 14 15 37q164 274 257 463.5t122 300.5q10 47 10 94q0 109 -47 174q-52 80 -142 84h-18q-80 -1 -180 -33q-110 -36 -246 -112 q-121 -72 -228.5 -157t-203.5 -189q-193 -205 -199 -336z" />
<glyph unicode="O" horiz-adv-x="1607" d="M84 475q0 -219 166 -354q145 -117 356 -127q21 -1 43 -1q208 0 436 105q276 127 461 336q106 125 171 260t87 287q2 10 3 23.5t1 27.5q0 184 -118 352q-139 207 -381 244q-74 12 -154 12q-201 0 -387 -73q-195 -82 -317 -224q-106 -129 -107 -243q0 -33 8 -60 q-192 -188 -243 -387q-25 -92 -25 -178zM119 481q0 41 6 83t16 87q25 82 90 197q35 55 67 94t60 66q23 -66 95 -123q39 -29 79.5 -44.5t85.5 -17.5q33 -6 33 15q0 14 -22 14q-84 0 -160 57q-35 29 -57.5 60.5t-26.5 66.5q80 115 338 248q297 158 543 158q61 0 114 -12 q23 -6 23 14q-1 12 -21 14q-29 4 -57.5 7t-58.5 3q-231 0 -502 -131q-238 -113 -383 -258q-4 20 -4 41q0 102 98 207q111 117 295 191q191 79 388 79h5q29 0 59.5 -2t59.5 -6q123 -20 218 -68t161 -132q115 -150 115 -345q0 -246 -197 -487q-90 -113 -203.5 -204 t-253.5 -165q-253 -132 -478 -132q-19 0 -38 1q-229 10 -358 122t-129 302z" />
<glyph unicode="P" horiz-adv-x="1572" d="M76 1454q0 -106 30 -207q37 -119 97 -172q10 -16 20 -16l4 4q0 8 -10 24q-92 137 -92 355q0 39 6 80q41 233 363 233q147 0 295.5 -34.5t306.5 -106.5q143 -66 272 -155t246 -197q215 -207 215 -437q0 -186 -162 -268q-70 -37 -159 -57.5t-197 -20.5q-117 0 -183 33 q-35 10 -43 35q-43 -23 -43 -39q0 -12 20.5 -22.5t53.5 -17.5t76 -11t90 -4q229 0 393 67q240 94 240 320q0 250 -262 477q-98 90 -207 162.5t-232 134.5q-162 78 -322.5 122t-326.5 52q-23 1 -46 1q-166 0 -294 -77q-127 -78 -143 -190q-6 -31 -6 -68zM227 33q0 -12 13 -31 q35 -53 96 -84q27 -10 61 -10q39 0 75 8t67 27q225 121 479 618q154 299 268 625q4 8 4 26q0 12 -2 27q-4 37 -10 37q2 0 -6 -8q-109 -326 -363 -766q-279 -483 -422 -537q-41 -10 -72.5 -13t-56.5 7q-59 25 -94 68q-18 18 -26 18q-10 0 -11 -12z" />
<glyph unicode="Q" horiz-adv-x="2183" d="M63 102q-1 -6 -1 -13q0 -17 8 -36q10 -26 39 -61q51 -72 86 -72q33 0 -2 35q-29 25 -43.5 48.5t-18.5 39.5q-10 16 -10 39q0 55 72 55q10 0 25 -2t32 -6q102 -27 242.5 -82t326.5 -145q266 -133 418 -208t199 -95q340 -145 567 -146q31 0 58.5 2t56.5 8q35 4 82 33 t106 78q129 104 141 178q1 11 1 23q0 42 -15 100q-10 39 -18.5 63.5t-18.5 36.5q-10 18 -22 25q-6 2 -7 -6q-2 -6 -1 -12.5t4 -16.5q20 -70 20 -139q0 -84 -30.5 -144.5t-90.5 -105.5q-96 -68 -239 -72h-16q-86 0 -214 37q-139 41 -332 125q-76 35 -204.5 97.5t-313.5 156.5 q68 -12 142 -12q180 0 360 60.5t365 183.5q186 123 298.5 255t159.5 277q45 141 45 281q0 276 -172 454q-178 190 -495 199q-22 1 -44 1q-248 0 -476 -124q-117 -59 -195 -134t-119 -161q-12 -33 -8 -59q4 -20 8 -21q7 1 17 21q4 14 7 26.5t7 22.5q61 147 283 260 q227 117 494 117h26q150 -6 267.5 -51.5t205.5 -135.5q168 -164 168 -407q0 -137 -64 -277q-160 -352 -555 -551q-160 -78 -316.5 -119.5t-316.5 -45.5h-30q-457 0 -457 366q0 70 12 141q25 113 97.5 244t199.5 281q221 266 414 368q29 16 29 31q0 8 -15 8q-14 0 -32 -12 q-129 -70 -242 -163t-221 -214q-229 -268 -279 -518q-4 -31 -7 -62.5t-3 -64.5q0 -207 92 -283q-39 20 -92 41t-119 41q-125 43 -165 43h-3q-25 -2 -90 -49q-66 -55 -68 -76z" />
<glyph unicode="R" horiz-adv-x="1679" d="M59 1317q0 -100 62 -168q16 -16 22 -16t7 2l-8 16q-7 16 -23 49q-29 63 -29 123q0 160 201 221q106 31 223 47.5t246 16.5q281 0 532 -74q258 -74 398 -199q178 -154 178 -358q0 -215 -215 -346q-123 -76 -305 -129q-92 -25 -167 -37q-56 -9 -106 -9q-17 0 -33 1 q-39 12 -48 21t-21 9q-41 0 -41 -43q0 -74 117 -303t176 -276q88 -68 153 -68q45 0 84 23q14 6 17 14q2 2 -6 6q-4 0 -9.5 -1t-13.5 -3q-27 -10 -53 -10q-61 0 -131 70q-66 66 -142 241q-70 164 -86 260q-4 27 11 27q82 4 168 20.5t180 44.5q168 51 274 113q274 154 275 397 q0 215 -220 385q-150 117 -413 189q-250 69 -531 69h-8q-276 0 -493 -69q-221 -72 -222 -256zM569 72q6 -25 43 -25q39 0 37 21v9q1 55 61 179q66 135 212 356q90 139 183 276.5t185 276.5q2 2 3 6q0 12 -23 37q-10 10 -21 11q-16 0 -16 -19q0 -2 4 -10q12 -27 -10 -49 q-659 -930 -659 -1059q0 -6 1 -10z" />
<glyph unicode="S" horiz-adv-x="1288" d="M84 215q0 -131 168 -188q113 -41 270 -41q106 0 205.5 20.5t194.5 59.5q219 92 219 296q0 100 -58 197q23 4 125 6q74 2 74 13q0 8 -22 8q-63 -2 -115 -2h-84q-123 164 -216 281.5t-153 191.5q-100 150 -100 248q0 123 123 208q244 182 622 183q70 0 131.5 -6.5 t114.5 -22.5q88 -25 141 -90q57 -74 58 -176q0 -35 -5 -64.5t-3 -38.5q2 -10 8 0q8 8 16 29q12 31 17.5 60.5t5.5 58.5q0 88 -52 166q-55 66 -129 92q-98 31 -247 31q-408 0 -711 -195q-143 -92 -143 -229q0 -125 118 -281q100 -135 182.5 -246.5t151.5 -203.5 q-221 -18 -402.5 -60.5t-324.5 -105.5q-180 -76 -180 -199zM119 188q0 92 174 181q156 82 399 131q57 12 136.5 25.5t179.5 25.5q70 -84 69 -186q0 -156 -182 -248q-92 -45 -190.5 -68.5t-206.5 -23.5q-63 0 -123 6t-119 22q-47 12 -84 45q-53 47 -53 90z" />
<glyph unicode="T" horiz-adv-x="1462" d="M70 1396q-6 -20 -6 -40q0 -42 26 -88q41 -76 90 -139.5t121 -135.5q12 -12 23.5 -19t15.5 -6t-2 12t-25 36q-47 57 -101 141t-87 166q-16 38 -16 69q-1 24 9 44q22 45 66.5 72.5t100 41t96.5 17.5q73 8 160 8q43 0 90 -2q141 -6 295.5 -21.5t313.5 -38t304 -45.5 q-53 -94 -127 -229t-151.5 -288.5t-153.5 -315.5t-135 -307.5t-95 -263.5q-34 -111 -34 -178v-7q0 -29 13 -38q9 -6 19 -6q4 0 8 1q14 4 25 17.5t5 29.5q-10 23 -18 55q-3 14 -3 30q0 20 6 42q20 78 64.5 186.5t102.5 234.5t128 262t142.5 271.5t144 261.5t135.5 230 q156 -27 278.5 -45t188.5 -22q23 -4 39 7t37 27q16 14 25.5 32t17.5 28q7 18 7 39v6q-1 24 -9.5 45.5t-17.5 40t-15 28.5q-23 37 -34 31t5 -47q10 -23 13.5 -37t7.5 -35q4 -18 -7.5 -36.5t-46.5 -18.5q-70 0 -184.5 10.5t-255.5 26.5q47 66 84 125q16 25 3 47q-11 18 -32 19 q-5 0 -10 -1q-31 -6 -74 -33.5t-67 -47.5q-18 -10 -19 -21q0 -10 23 -2q12 6 26.5 9t24.5 5q8 2 11 -7t-5 -17q-10 -10 -21 -27.5t-28 -40.5q-166 18 -347 36.5t-348 31.5q-166 12 -306 14h-31q-118 0 -191 -14q-49 -10 -111.5 -39t-111.5 -73t-69 -104z" />
<glyph unicode="U" horiz-adv-x="1968" d="M59 854q0 -53 15 -98q12 -39 47 -78t90 -82q14 -8 22 -8q12 0 13 8q0 12 -17 20q-127 84 -127 215q0 41 8.5 78t26.5 72q63 113 161.5 211t236.5 182q254 156 478 156q23 0 46 -2q88 -6 137 -68q45 -57 45 -117q0 -63 -32.5 -156t-102.5 -212q-66 -111 -130.5 -217.5 t-129.5 -214.5q-152 -254 -174 -402q-4 -29 4 -55.5t25.5 -47t41 -31.5t48.5 -11q12 0 24 4q80 25 233.5 129t385.5 289q350 283 544 465q14 16 27 16q20 0 2 -53q-2 -4 -41 -90t-117 -260q-145 -317 -176 -437q-14 -57 -14 -133q4 -35 22 -35q20 0 25 29q0 64 -8 82 q20 76 74.5 202t146.5 308q86 166 149.5 277.5t108.5 171.5q8 23 13 43t10 36q1 5 1 9q1 14 -9 27q-12 16 -31 16q-18 0 -27 -13q-41 -43 -69.5 -77.5t-57.5 -57.5q-133 -117 -267 -230.5t-270 -224.5q-213 -178 -363.5 -283.5t-238.5 -144.5q-31 -16 -61 -16q-57 0 -57 57 q0 16 6 35q14 68 57 162t113 215q115 199 172 301.5t61 110.5q123 236 129 391q2 78 -74 164q-80 90 -155 92q-17 1 -35 1q-274 0 -551 -177q-272 -172 -379 -393q-35 -72 -35 -150z" />
<glyph unicode="V" horiz-adv-x="1384" d="M74 834v-10q0 -36 24 -81q16 -27 29.5 -40t26.5 -17q18 -16 39 -16q31 6 30 24q0 12 -20 15q-16 4 -28.5 5t-18.5 5q-40 24 -39 90v18q18 195 245 435q246 258 502 294q10 2 21 3h18q90 0 90 -91v-28q-2 -10 -2 -15v-8q-6 -139 -221 -633q-111 -254 -168 -420.5 t-63 -252.5q0 -18 6 -39t17 -38.5t27.5 -28.5t37.5 -11q36 0 69 39q109 129 214.5 257t213.5 255q154 180 289 316t252 231q313 260 526 260q18 0 37 -2t39 -7q25 -6 25 5q0 4 -25 18q-49 14 -104 14q-293 0 -760 -467q-141 -143 -323.5 -357t-405.5 -503q-25 -33 -43 -33 t-25 37q-4 29 0 58q25 150 240 665q98 242 150.5 398.5t54.5 228.5v5q0 83 -64 140q-56 52 -132 52h-13q-240 -31 -488 -277q-252 -250 -280 -493z" />
<glyph unicode="W" horiz-adv-x="2240" d="M33 864q0 -43 18.5 -87t42.5 -56q26 -14 56.5 -13.5t66.5 13.5q25 4 25 12q0 4 -23 5q-88 0 -121 26q-25 23 -25 63q0 29 13 68q76 217 463 461q190 117 340.5 177t267.5 60q160 0 176 -163q1 -11 1 -23q0 -279 -625 -1362q-4 -12 -4 -20q0 -37 53 -37q20 0 30 14 q37 47 67 90t54 72q229 270 403.5 471t295.5 340q14 14 26 14t13 -18q0 -18 -9 -33q-198 -377 -198 -697v-44q0 -16 2 -35q6 -82 61.5 -133.5t132.5 -51.5q10 0 21.5 1.5t23.5 3.5q139 31 371 245q117 111 214 227.5t177 247.5q184 295 185 498q0 156 -64 227q-18 23 -31 23 q-6 0 -6 -8q0 -12 15 -27q41 -67 41 -202v-13q-4 -106 -51.5 -231t-141.5 -273q-158 -250 -381 -456q-223 -209 -336 -224q-8 -2 -16 -2h-17q-68 0 -110 42q-41 40 -41 102v6q2 203 67 403q29 88 77 195.5t114 232.5q4 8 4 21q0 29 -18.5 61.5t-40.5 40.5q-16 4 -33 -31 q-31 -47 -31 -51q-213 -244 -386 -440.5t-306 -349.5q-18 -18 -31 -21q-12 -4 -12 13q0 6 10 30q90 147 167 295t142 301q160 370 160 553v13q-4 94 -90 155q-76 57 -162 57q-16 0 -33 -2q-287 -41 -645 -292q-360 -256 -405 -453q-4 -10 -4 -31z" />
<glyph unicode="X" horiz-adv-x="1576" d="M-27 -244q-1 -14 -1 -23q0 -18 5 -18q13 0 23 43q23 78 59.5 154t94.5 154q106 147 356 346q113 92 231.5 173t247.5 156q0 -2 -1 -24.5t-1 -63.5v-110q0 -369 98 -461q25 -25 55.5 -45.5t62.5 -35.5t60.5 -23.5t47.5 -4.5q127 18 338 164q23 10 10 23q-8 12 -29 0 q-92 -61 -173 -93t-152 -38h-15q-110 0 -170 84q-63 90 -63 372q0 119 12 297q100 57 212 124t235 149q336 215 426 321q8 8 8 27q0 78 -31 78q-4 0 -8 -4q-35 -35 -63.5 -58.5t-47.5 -34.5q2 -10 2 -18q0 -31 -22 -51q-141 -115 -316.5 -230.5t-386.5 -236.5q15 176 21 307 q3 76 4 138q0 45 -2 83q0 23 -43 60q-41 37 -72 37h-14q-51 0 -107 -26q-64 -30 -143 -87q-72 -57 -127 -117.5t-86 -124.5q-2 -2 -6 -16q-4 -12 0 -21q4 -4 10 0q4 2 7 7.5t7 11.5q186 262 394 311q16 3 29 3q57 0 65 -64q2 -18 3 -38t1 -46q0 4 -7 -112t-22 -353 q-121 -72 -240.5 -152t-244.5 -178q-141 -111 -240.5 -205t-152.5 -172q-119 -164 -138 -338z" />
<glyph unicode="Y" horiz-adv-x="1898" d="M59 842q0 -72 23 -119q37 -88 174 -113q39 -6 39 6t-29 15q-18 2 -39.5 11t-44.5 26q-53 35 -69.5 71.5t-16.5 83.5q0 57 33 135q94 205 391 390q145 88 267 130q97 33 180 33q22 0 43 -2q225 -16 225 -198q0 -150 -137 -385q-27 -43 -94.5 -147.5t-178.5 -268.5 q-168 -248 -202 -360q-8 -18 -9 -41q0 -27 9.5 -50.5t25 -40t32.5 -24.5t36 -2q127 35 288.5 119t360.5 219q305 209 565 438q10 10 13 2q2 -2 -5 -22q-39 -84 -78.5 -167t-80.5 -167q-125 -261 -164 -312q-672 -104 -938 -309q-100 -80 -100 -180q0 -82 69 -137 q74 -61 199 -64h10q147 0 336 109q125 70 250 225q43 53 97 130t120 185q35 10 60.5 18.5t41.5 10.5q12 2 26.5 14.5t33.5 34.5q39 51 39 70q0 6 -6.5 21.5t-15.5 32t-21.5 33.5t-22.5 28q72 160 135.5 297t118.5 260l39 39t33 26q11 11 11 28q0 15 -9 36q-4 4 -8 4 q-39 0 -60 -31q-23 -35 -42 -63.5t-36 -51.5l-4 -10q-100 -104 -242.5 -219t-328.5 -244q-403 -279 -649 -346q-49 -12 -68 -12q-29 0 -29 29q0 12 5.5 31.5t17.5 43.5q37 90 207 336q104 147 171.5 250.5t102.5 163.5q72 117 105.5 210t33.5 163q0 104 -102 202 q-99 95 -219 95h-2q-248 -6 -539 -201q-276 -184 -354 -389q-23 -53 -23 -129zM608 -408q0 92 94 166q147 117 474 203q111 31 213 52.5t200 35.5q-66 -102 -109.5 -167.5t-66.5 -98.5q-115 -147 -239 -232q-162 -106 -332 -108h-12q-221 0 -222 149zM1688 117 q31 59 54.5 104t39.5 80q37 -50 37 -92q0 -44 -45 -70q-29 -8 -49.5 -14t-36.5 -8z" />
<glyph unicode="Z" horiz-adv-x="1953" d="M63 221q8 -113 80 -168t203 -55q49 0 80 6q55 12 108.5 29.5t106.5 42.5q57 31 172 104q252 -147 421 -243.5t261 -145.5q504 -268 784 -330q69 -16 131 -18h11q55 0 98 20q10 6 28.5 12.5t43 22t54.5 45t60 82.5q29 49 34 122q2 28 2 59q0 49 -5 106q-2 27 -14 27 q-14 0 -15 -31q-2 -422 -319 -422q-47 0 -102 12q-141 27 -346 119t-478 248q-166 92 -311 183t-279 179q92 78 220.5 218.5t287.5 351.5q61 8 95 11t38 3q47 0 48 18q0 8 -27 9h-21q-12 0 -30 2h-72q98 147 203.5 270t218.5 221q45 -8 66 -8q10 0 14 2q16 12 16 43 q0 76 -37 76q-10 0 -24.5 -6t-28.5 -13.5t-24.5 -13.5t-12.5 -6q-500 100 -733 100q-168 0 -264 -39q-39 -12 -68 -59q-16 -20 -25.5 -30.5t-13.5 -14.5q-33 -12 -41 -40t-8 -65q0 -76 31 -180q33 -96 63 -139q23 -29 29 -29t6 9q0 4 -4 12t-8 18q-66 109 -66 275 q0 18 1 34.5t4 32.5q18 115 131 146q39 8 88 13t110 5q190 0 461 -49q199 -31 279 -55q-27 -16 -82.5 -78t-143.5 -168q-74 -88 -124 -150.5t-76 -103.5q-31 -6 -52.5 -9t-38.5 -5q-12 -6 -12 -25q0 -39 31 -66q-94 -133 -213 -274q-72 -86 -126 -139t-89 -76 q-139 84 -281 172q-236 139 -299 139q-59 0 -77.5 -18.5t-18.5 -59.5q-41 -18 -76 -102q-20 -43 -28 -86q-6 -29 -6 -56q0 -12 1 -24zM106 219q2 199 125 256q6 2 11.5 3t11.5 1q41 0 109.5 -28.5t168.5 -88.5q150 -86 248 -159q-88 -70 -178 -111t-182 -59q-16 -2 -31.5 -3 t-34.5 -1q-49 0 -91 11t-75 30q-84 51 -82 149z" />
<glyph unicode="[" horiz-adv-x="1202" d="M-2 6q2 -35 8 -73.5t19.5 -72.5t35 -57.5t54.5 -23.5q70 -4 158.5 2t172.5 17.5t153 27.5t97 35q25 16 34 30.5t7 22.5t-14 9t-31 -9q-31 -16 -105.5 -28.5t-163.5 -17.5t-175 -1t-142 22q-25 8 -37 13.5t-17 15.5t-4 28.5t5 51.5q35 158 101.5 346t152.5 379.5 t184.5 373t198.5 324.5q45 18 107.5 33.5t128 23t126 4.5t101.5 -18q2 8 10 19.5t14.5 23t5.5 20.5t-16 13q-23 12 -70.5 16.5t-105 3.5t-116 -6.5t-97.5 -13.5q-8 35 -39.5 39t-52.5 -2q-20 -10 -50 -57t-63 -101l-391 -784q-27 -68 -60.5 -155t-62 -176t-47 -168 t-14.5 -130z" />
<glyph unicode="\" horiz-adv-x="931" d="M-115 1202q0 -18 25 -33q166 -123 363.5 -295t428.5 -395q510 -489 551 -639q8 -43 23 -43q4 12 4 49q-18 137 -539 652q-242 236 -440.5 411.5t-357.5 292.5q-18 16 -39 17q-18 0 -19 -17z" />
<glyph unicode="]" horiz-adv-x="970" d="M-236 -166q0 -8 17 -14q20 -12 69.5 -16.5t106.5 -3.5t115.5 6.5t99.5 13.5q2 -16 13.5 -25.5t25.5 -12.5t27 -3q14 0 24 4q20 10 50 57t63 101l391 784q27 68 60.5 155t62.5 176t47 168t14 130q-2 33 -8 72.5t-19.5 73.5t-35 57.5t-53.5 23.5q-70 4 -159 -1t-173 -16.5 t-152.5 -27.5t-97.5 -35q-25 -16 -34 -30.5t-7 -23.5t14.5 -10t30.5 9q31 16 105.5 29.5t163.5 18.5t175 0t142 -24q25 -8 37 -13t17 -15t3 -28.5t-4 -51.5q-35 -158 -101.5 -346.5t-151.5 -380t-184.5 -372.5t-197.5 -324q-47 -18 -109.5 -34t-128 -22t-126 -4t-101.5 17 q-2 -10 -10 -20.5t-14.5 -22t-6.5 -19.5z" />
<glyph unicode="^" horiz-adv-x="770" d="M727 1114q0 -18 25 -4q84 35 152.5 60.5t125.5 39.5q16 2 88 -39q25 -16 51.5 -32.5t51.5 -32.5q8 -10 18 -6t10 10q0 8 -8 16q-193 160 -205 164q-4 2 -121 -63q-72 -39 -115.5 -61.5t-60.5 -32.5q-4 -4 -8 -8.5t-4 -10.5z" />
<glyph unicode="_" horiz-adv-x="1054" d="M51 -72q0 -12 41 -12h875q51 0 51 16q0 10 -37 11h-870q-59 0 -60 -15z" />
<glyph unicode="`" horiz-adv-x="544" d="M750 1288q0 -12 12 -20q92 -61 164.5 -111.5t128.5 -87.5q8 -6 18 0q4 10 -6 18q-80 78 -142.5 136.5t-109.5 101.5q-8 8 -20 8q-45 0 -45 -45z" />
<glyph unicode="a" horiz-adv-x="862" d="M14 82q0 -72 52 -72q20 1 47 17q129 76 309 227q90 78 158.5 143.5t117.5 124.5q4 4 7 4q16 0 2 -22q-35 -53 -69 -116.5t-69 -137.5q-29 -61 -57.5 -141t-53 -161t-40 -152.5t-17.5 -114.5v-12q-1 -45 13 -83q16 -42 55 -65q33 -23 74 -38t90 -15q33 0 61.5 5t57.5 15 q57 20 125.5 65.5t154.5 114.5q92 78 158.5 156t114.5 147q8 14 8 23q0 4 -2 6q-6 0 -25 -20q-49 -63 -115.5 -135t-150.5 -140q-174 -139 -283 -176q-72 -25 -145 -25q-74 0 -117 34t-43 104v20q0 8 2 19q8 59 33 145t58.5 181t74.5 188.5t84 164.5q55 92 113.5 181.5 t117.5 181.5q2 4 -4 14.5t-14 10.5t-12 -5q-16 -20 -54 -26q-4 -2 -38 2q-25 8 -49.5 13t-49.5 5q-23 0 -44 -5t-40 -11q-80 -33 -172 -97.5t-196 -168.5q-227 -227 -228 -373zM137 154q0 24 8 47q29 66 77 137.5t118 148.5q147 162 244 187q25 6 47 6q41 0 67.5 -19.5 t26.5 -42.5q0 -8 -6 -14q-145 -174 -272.5 -296t-241.5 -193q-16 -10 -31 -11q-37 0 -37 50z" />
<glyph unicode="b" horiz-adv-x="937" d="M14 47q0 -16 11.5 -30.5t27.5 -18.5q8 -4 13 -4h11q207 0 451 147q250 150 369 348q8 16 14.5 32t10.5 30q2 76 -68 76q-25 0 -41 -9q-59 -25 -150.5 -77t-213.5 -133q-100 -66 -168 -112t-103 -79q8 25 17.5 54.5t25.5 64.5q41 117 76 198.5t63 135.5q311 59 612.5 143 t596.5 197q850 322 1044 692q39 78 45 151q2 24 3 47q0 216 -210 392q-209 179 -477 180q-23 0 -47 -2q-866 -55 -1628 -1774v-14q8 16 5 12t-7 -16q-2 -2 -6 -10l1 1q1 1 1 3q-2 -6 -6 -15v5l-2 -3q0 -2 -2 -3t-2 -3v-6q-2 -10 -7 -10q-76 -176 -133 -311.5t-98 -229.5 q-20 -29 -29 -49zM141 84q2 2 2 4t2 4q0 2 -2 2v2q17 72 66 113q47 35 112.5 84t155.5 108q221 147 266 148q45 0 45 -55v-9l-8 -32q-53 -127 -221 -250q-80 -57 -156.5 -95t-154.5 -55q-52 -10 -77 -10q-11 0 -17 2q-16 2 -11 31zM373 700q229 551 547 992 q510 719 1007 741q16 1 32 1q271 0 466 -163q184 -150 184 -346q0 -19 -2 -37q-6 -35 -14.5 -66.5t-22.5 -64.5q-170 -344 -864 -649q-582 -254 -1333 -408z" />
<glyph unicode="c" horiz-adv-x="741" d="M25 184v-7q0 -37 18 -71q20 -36 52 -62t68 -39q25 -9 46 -9q10 0 20 2q39 6 78 21.5t76 34t67.5 38t53.5 35.5q16 10 9 17.5t-24 -3.5q-57 -33 -133.5 -61.5t-144.5 -36.5q-27 -2 -52.5 3t-45 20.5t-30.5 43.5q-9 24 -9 61v13q8 98 57 184.5t96 149.5l25 33 q70 78 146.5 148.5t152.5 113.5q31 16 54.5 17t35.5 -12t10 -37.5t-22 -57.5q-25 -35 -78 -80t-100 -80q82 18 137 58.5t90 83.5q33 39 33 75q0 37 -21.5 61.5t-57.5 34.5q-16 5 -33 5q-21 0 -42 -7q-49 -16 -106.5 -52t-114.5 -88t-111.5 -116.5t-97.5 -136t-70.5 -147.5 t-31.5 -150zM449 563q2 2 2 4q0 -2 -2 -2v-2z" />
<glyph unicode="d" horiz-adv-x="886" d="M18 68q0 -70 76 -70q8 0 21 4q131 53 336 240q90 78 159.5 152.5t122.5 140.5q6 8 12 8q23 0 11 -35q-119 -313 -119 -432q0 -29 7 -53.5t18 -40.5q16 -17 31 -17q7 0 14 4q8 2 16 15q6 12 -4 16q-10 2 -18.5 3t-16.5 3q-12 14 -12 27q0 214 190 585q45 88 90 169t90 159 q35 -2 70 -2h74q788 0 1612 385q221 102 337 254q104 135 105 287q0 199 -168 342q-178 147 -438 147q-158 0 -318 -57q-479 -166 -948 -766q-47 -59 -98 -132t-111 -161h-4q-203 -43 -301 -151q-14 -14 -14 -35q0 -33 22.5 -62.5t50.5 -33.5q14 -4 29.5 -6.5t32.5 -4.5 q-35 -59 -72 -122.5t-76 -131.5q-35 10 -62.5 15.5t-49.5 5.5q-23 0 -44.5 -5t-39.5 -12q-154 -61 -371 -266q-242 -229 -242 -366zM139 133q1 25 11 45q53 131 210 289q80 78 144.5 125t118.5 59q27 6 53 6q74 0 74 -47q0 -23 -25 -53q-125 -145 -254 -258t-264 -201 q-16 -10 -33 -10q-35 0 -35 45zM872 1032q0 23 15 37q43 51 106.5 90t153.5 64q-35 -55 -73 -115.5t-79 -126.5q-23 2 -42 4t-35 6q-45 6 -46 41zM1061 975q602 1019 1268 1302q141 59 292 60q229 0 402 -123q172 -117 172 -295q0 -274 -426 -520q-733 -426 -1587 -426h-64 t-57 2z" />
<glyph unicode="e" horiz-adv-x="692" d="M18 188v-7q0 -37 18 -69q20 -36 52 -62q31 -26 68 -40q26 -9 48 -10q10 0 19 2q37 6 77 21.5t77 34t67.5 38t53.5 35.5q16 10 8 17.5t-25 -3.5q-55 -31 -132 -59.5t-144 -38.5q-27 -2 -52.5 3t-45 20.5t-30.5 43.5q-9 24 -9 61v13q2 49 18 95.5t38.5 89.5t48.5 81t48 68 h144q82 0 163.5 2t150.5 4t103 9q57 8 103.5 39.5t66.5 54.5q6 8 6 13q0 3 -3 5q-7 4 -17 -10q-25 -23 -69 -45.5t-87 -26.5q-33 -4 -79 -6t-99 -3t-112 -1h-113q102 16 182 55t111 97q15 27 15 57v10q-3 36 -21 66t-48 46q-17 9 -37 9q-15 0 -32 -6q-72 -29 -161 -99.5 t-170 -168t-137 -210t-63 -225.5zM244 557q70 76 147.5 146.5t153.5 113.5q31 15 55 17q2 0 4 1q20 -1 31 -13q10 -12 10 -31v-7q-2 -24 -22 -57q-25 -37 -67 -67.5t-93 -54t-108.5 -36t-110.5 -12.5z" />
<glyph unicode="f" horiz-adv-x="522" d="M-1493 -770q-10 -43 -10 -86q0 -53 16 -106q29 -93 103.5 -153.5t191.5 -73.5q21 -2 42 -2q102 0 228 50q129 51 263.5 175t263.5 287t248.5 349.5t223 361.5t185.5 323.5t133 236.5q4 6 10.5 10t22.5 6q88 4 169 9.5t161 7.5q23 0 23.5 10t-15.5 10h-336q35 57 91.5 138 t126 159t148 137.5t162.5 71.5q12 1 23 1q35 0 69 -14q46 -18 80 -53q6 -4 13.5 1.5t13.5 14.5t10 18t4 14q0 12 -17 31.5t-42 23.5t-51 4q-29 0 -59 -5q-58 -9 -114.5 -30.5t-108.5 -51.5t-95 -63q-45 -35 -90 -82t-88 -100t-83 -108.5t-75 -106.5q-25 -4 -47 -2t-45 2 q-12 0 -32.5 1t-24.5 -15q-8 -18 11 -27.5t36 -19.5q14 -10 26.5 -25.5t-4.5 -44.5q-55 -102 -133 -248.5t-173 -310.5t-203.5 -333t-224.5 -316.5t-234.5 -259t-235.5 -162.5q-108 -46 -203 -46h-19q-102 5 -172.5 54t-99.5 135q-16 44 -16 95q0 49 14 104 q35 135 119 232.5t189 144.5q29 12 28 19t-30 -3q-57 -20 -115.5 -58t-110 -89.5t-89.5 -112.5t-52 -129z" />
<glyph unicode="g" horiz-adv-x="1492" d="M-1616 -1274q0 -242 248 -436q226 -179 494 -179q23 0 47 1q860 55 1464 1777q119 27 269.5 38.5t336.5 11.5q47 0 85 -1t67 -4q100 -8 100 -81q0 -90 -121 -203q-20 -14 -20 -27q0 -2 4 -2q12 0 31 17q106 84 133 135q10 20 10 45q0 27 -12.5 51.5t-32 46t-43 35.5 t-45.5 18q-29 4 -67 7.5t-89 3.5q-279 0 -592 -56q63 184 109.5 323.5t79.5 237.5q18 25 22 50q0 16 -13 30.5t-30 18.5q-4 4 -12 4h-6q-206 0 -443 -148q-240 -152 -335 -348q-18 -35 -19 -63q0 -74 74 -74q23 0 39 6q59 27 145 79t203 134q92 66 154.5 112t97.5 79 q-8 -25 -15.5 -54.5t-17.5 -64.5q-63 -227 -111 -334q-614 -117 -1175 -340q-825 -326 -981 -692q-33 -78 -33 -154zM-1559 -1307q0 65 25 131q135 338 805 650q555 252 1294 407q-90 -276 -203.5 -522t-250.5 -469q-446 -723 -942 -741q-18 -1 -37 -1q-263 0 -475 162 q-215 166 -216 383zM131 96q0 10 1 16.5t3 16.5q43 127 199 250q147 113 297 147q52 13 78 13q10 0 16 -2q14 -2 14 -39q-2 -2 -2 -9v-2q2 0 2 -2q-6 -73 -57 -112q-41 -37 -103.5 -85t-146.5 -108q-208 -149 -251 -149h-1q-49 0 -49 65z" />
<glyph unicode="h" horiz-adv-x="1067" d="M20 20q0 -32 16 -32h1q6 0 10 10q18 25 23 16q92 111 264 277q205 197 319 258q23 14 41 14q31 0 31 -28q0 -16 -8 -27q-180 -238 -219 -399q-2 -8 -2 -16q0 -37 39 -68q39 -37 75 -37q119 0 385 217l15 14l-2 2q0 2 -2 4q-2 -2 -7.5 -4t-11.5 -6q-227 -172 -328 -172 q-55 0 -55 53q0 74 101 256q43 76 81.5 136.5t73.5 103.5q2 2 2 10q0 16 -18.5 31.5t-30.5 13.5q-72 -18 -80 -29q-68 -6 -256 -155q-78 -66 -151.5 -131.5t-139.5 -130.5q-29 -29 -45 -47.5t-26 -26.5q115 209 221.5 395.5t208.5 358.5q33 -2 67.5 -3t69.5 -1 q799 0 1622 387q225 104 338 254q104 135 104 286q0 199 -168 342q-176 147 -438 148q-158 0 -317 -58q-299 -104 -587 -365t-574 -693q-201 -43 -302 -150q-6 -8 -10 -16t-4 -21q0 -29 22.5 -59.5t51.5 -36.5q18 -4 33.5 -6t25.5 -4q-147 -254 -261 -464t-195 -384 q-2 -6 -3 -17zM385 969q0 23 16 39q41 47 101.5 84.5t146.5 62.5q-37 -57 -74.5 -116.5t-74.5 -118.5q-6 0 -23.5 2t-46.5 6q-45 6 -45 41zM563 915q299 508 614.5 830.5t659.5 466.5q141 59 291 59q229 0 401 -123q172 -117 172 -295q0 -272 -426 -520 q-201 -117 -415.5 -200.5t-446.5 -139.5q-182 -41 -355 -62.5t-343 -21.5q-41 0 -79 2t-73 4z" />
<glyph unicode="i" horiz-adv-x="471" d="M51 109q0 -37 19.5 -63t45 -41t51.5 -19q13 -2 22.5 -2t15.5 2q45 20 106.5 57t122 79t110 80.5t74.5 63.5q12 10 18 22q6 11 6 17q0 8 -9 6q-8 -2 -27 -20q-29 -27 -82 -66t-114.5 -77.5t-120 -69.5t-96.5 -39q-20 -4 -42 -5t-36.5 11t-13.5 40t26 79t32 67.5t9 22.5 t5 13t19.5 40t54.5 103.5t107 201.5q18 37 10 59.5t-26.5 29t-38.5 -3t-25 -33.5q-2 -8 -18 -44t-41 -86.5t-53.5 -111t-53 -118.5t-41 -110.5t-16.5 -84.5zM311 817q0 -27 45 -35q4 -1 8 -1q29 0 68 38q51 45 57 80q1 4 1 9q0 14 -14 26q-15 14 -34 14h-8q-29 -6 -76 -55 q-47 -47 -47 -76z" />
<glyph unicode="j" horiz-adv-x="471" d="M-2156 -1302q10 -95 56 -183t124 -163.5t174 -131t208 -84.5q87 -22 175 -22q24 0 49 2q195 12 364.5 105t315 239.5t265.5 330t218 377t174 382t129 344.5q84 18 192.5 29t217 17.5t201.5 6.5q94 0 147 -6q53 -4 82 -34q18 -19 18 -48q0 -17 -6 -37q-12 -39 -43 -84 t-71 -82q-23 -23 -19 -30t33 16q41 35 73.5 61.5t59.5 73.5q11 22 11 44q0 10 -2 21q-7 33 -27.5 60.5t-49 47t-55.5 25.5q-51 10 -139 11q-86 0 -189.5 -6.5t-214 -19.5t-204.5 -30q25 66 51 149t53 163t48.5 146.5t35.5 103.5q20 27 23 49q2 18 -12.5 27.5t-37.5 0.5 q-18 -4 -44.5 -27.5t-30.5 -45.5q4 -4 -2.5 -40t-19.5 -88.5t-31.5 -117t-38 -127t-39 -117.5t-33.5 -88q-94 -18 -227.5 -49t-289 -75t-325.5 -98t-337 -121t-323.5 -142.5t-287.5 -162.5t-227.5 -183.5t-141.5 -202.5q-31 -74 -31 -150q0 -18 1 -36zM-2100 -1333 q-3 18 -3 37q0 63 26 125q49 123 164 237.5t276.5 217t361.5 193.5t417 166.5t443.5 136t439.5 105.5q-31 -92 -92.5 -252.5t-152.5 -351t-210 -387.5t-264.5 -359.5t-316.5 -268t-363 -113.5q-15 -1 -31 -1q-96 0 -187 22q-106 26 -194 75t-156.5 115.5t-108.5 143.5 t-49 159zM260 793q0 -27 43 -35q4 -1 9 -1q26 0 69 38q49 44 55 79q2 5 2 10q0 13 -14 26q-17 15 -34 15q-3 0 -7 -1q-29 -6 -76 -56q-47 -47 -47 -75z" />
<glyph unicode="k" horiz-adv-x="1126" d="M31 43q10 -33 20 -33q8 0 12 10q51 123 94.5 218.5t84.5 160.5q489 -606 860 -706q14 -4 38.5 -11.5t67.5 -13.5q67 -7 90 -7q9 0 11 1q43 29 68.5 65.5t41.5 71.5q-2 4 -2 11q0 4 -2 6q-8 4 -14 -11q-49 -110 -187 -110h-2q-29 0 -63 10q-201 59 -457 297 q-121 111 -208 218.5t-146 211.5q147 0 307 72q168 76 223 180q27 61 27 100q-6 47 -66 47q-141 0 -528 -280q66 111 112 189.5t72 131.5q8 4 17.5 6.5t17.5 6.5q29 -2 60 -2h59q799 0 1622 387q227 106 338 256q104 135 104 284q0 197 -166 344q-180 145 -440 146 q-156 0 -317 -55q-299 -104 -587 -366.5t-575 -692.5q-98 -23 -173.5 -61t-127.5 -91q-14 -14 -14 -37q0 -29 22.5 -59.5t51.5 -36.5q18 -4 33.5 -5t25.5 -3h8q-43 -70 -92 -154t-106 -182q-28 5 -46 -23q-9 -14 -9 -35q0 -20 8 -46q-31 -59 -71 -156.5t-95 -237.5 q-2 -6 -2 -16zM303 514q47 49 176 137q158 102 219 111q10 1 19 1q51 0 51 -50v-10q0 -81 -96 -154q-27 -20 -66 -36.5t-88 -33.5q-47 -16 -87 -22t-73 -6q-20 0 -26 2q-12 20 -18.5 35.5t-10.5 25.5zM342 975q0 25 16 39q82 98 248 149q-37 -59 -73.5 -117.5t-75.5 -119.5 q-6 0 -23.5 2t-46.5 8q-45 6 -45 39zM520 922q299 508 614.5 830.5t659.5 465.5q141 59 293 59q225 0 399 -120q172 -121 172 -295q0 -274 -426 -523q-397 -225 -862 -340q-354 -81 -690 -81h-8q-41 0 -79 1t-73 3z" />
<glyph unicode="l" horiz-adv-x="702" d="M53 233q2 -96 41 -144q38 -48 98 -56q12 -2 26 -2q50 1 108 25q74 30 145 94q23 20 48.5 46.5t41.5 47.5q16 23 9 25.5t-23 -13.5q-23 -25 -44.5 -46.5t-47.5 -41.5q-49 -36 -105 -60q-45 -19 -85 -20q-10 0 -20 2q-48 6 -80 49q-28 38 -28 119v21q2 84 25.5 189 t58.5 202q311 59 611.5 143t592.5 197q852 322 1047 692q35 72 45 151q2 20 1 39q0 222 -210 400q-207 179 -477 180q-24 0 -47 -2q-868 -55 -1626 -1774v-6q-51 -119 -80 -235q-25 -102 -25 -196v-26zM231 700q6 10 10.5 20.5t8.5 20.5h-2q113 262 244 499t286 452 q510 719 1006 741q16 1 32 1q272 0 465 -163q185 -150 185 -341q0 -21 -2 -42q-4 -35 -12.5 -66.5t-22.5 -64.5q-170 -344 -866 -649q-293 -129 -625 -229.5t-707 -178.5z" />
<glyph unicode="m" horiz-adv-x="1269" d="M16 10q3 -10 9 -8q4 4 16 10t35 15q43 16 49 26q35 51 63.5 89t51.5 63q86 98 204 196q53 47 90 73t58 36q18 6 26 6q31 0 31 -37q0 -20 -8 -39q-25 -78 -69 -160.5t-105 -173.5q-8 -10 5 -24t26 -8q10 6 26.5 13t42.5 19q23 8 34 16.5t15 12.5q86 123 394 369 q25 18 41 18q29 0 28 -35q0 -27 -14 -55q-72 -188 -240 -395q-8 -29 -2 -49l-49 -49q-6 -6 -6 -15q0 -22 23 -22h2q8 0 18 6q209 160 522 270q297 106 598 137q18 2 37 3t35 1q137 0 215 -53q74 -49 74 -121q0 -23 -15 -57q-18 -43 -33.5 -53t-15.5 -19q0 -6 8 -6 q10 0 27 10q37 14 51 56q8 25 8 53q0 96 -112 162q-55 33 -127 44q-53 8 -114 8q-22 0 -46 -1q-109 -6 -241 -34.5t-291 -78.5q-227 -72 -379 -141q-12 -4 -20.5 -8t-16.5 -4q-14 0 -14 16q0 20 20 49q72 117 126 218.5t95 191.5q12 14 21.5 25.5t17.5 19.5q8 43 -27 43 q-10 0 -22 -6q-104 -49 -228 -138t-268 -219q-8 -8 -20 -8q-18 0 -19 23q0 16 13 35q45 88 68.5 141t23.5 74q0 25 -21 30q-11 3 -24 3q-57 0 -162 -64q-176 -109 -299 -236q-12 -12 -23 -12q-23 0 5 47q61 111 141 203q70 84 84 92q16 12 8 19q-10 6 -32.5 -3.5 t-35.5 -19.5q-33 -33 -80 -92t-106 -146q-59 -86 -104 -154.5t-74 -123.5q-20 -33 -23 -47q-1 -5 -1 -12t1 -15z" />
<glyph unicode="n" horiz-adv-x="854" d="M14 57q2 -12 25 -8q84 18 104 45q121 141 237 252t232 193q16 10 33 10q37 0 37 -33q0 -12 -6 -20q-59 -82 -111.5 -169t-99.5 -182q-117 -223 -129 -370q-1 -20 -1 -38q0 -103 48 -155q46 -46 114 -46q10 0 21 1q229 25 426 219q72 72 119 137.5t65 124.5q12 37 13 60 q0 47 -35 47q-14 0 -31.5 -8t-17.5 -21q0 -6 8 -6q10 0 22.5 -3t21.5 -12t9 -30q0 -100 -194 -266q-176 -150 -293 -182q-27 -8 -60 -9q-70 0 -112 45q-40 44 -40 119q0 13 1 27q8 143 121 385q117 244 262 430q31 37 2 47q-10 4 -23 4q-21 0 -49 -12q-23 -8 -51 -33 q-53 -20 -207 -143q-66 -53 -128 -107.5t-120 -109.5q-12 -14 -24 -15q-16 0 -17 23q0 16 9 26q41 92 97 181.5t134 179.5q6 6 6 14q-1 1 -4.5 1t-9.5 -1q-23 -4 -34 -10t-17 -16q-41 -49 -88.5 -114t-100.5 -147q-113 -172 -160 -272q-7 -15 -7 -24q0 -6 3 -9z" />
<glyph unicode="o" horiz-adv-x="759" d="M39 39q0 -16 9 -30.5t22.5 -25t29.5 -15.5q12 -4 23 -4q4 0 8 1q180 27 420 234q123 104 183.5 193t66.5 167q0 4 -2 10t-4 13q-4 6 0 12q17 24 77 24h5q30 0 30 12q0 5 -30 9q-86 2 -153 4t-114 4q-4 2 -7 4t-7 4q-56 37 -89 37h-3q-45 -2 -90 -45q-14 -8 -23 -8 q-2 0 -78 -2q-47 -2 -53 -12.5t-6 -16.5q0 -12 18.5 -25.5t36.5 -23.5q12 -4 4 -18q-270 -332 -274 -502zM90 29q0 22 12 45q119 283 338 485q31 20 35 19q37 14 80 19q20 2 40 2q25 0 52 -3q80 -9 80 -57q0 -7 -2 -15q-31 -150 -236 -331q-195 -178 -333 -201 q-13 -2 -23 -3q-43 1 -43 40z" />
<glyph unicode="p" horiz-adv-x="854" d="M-1946 -1331q0 -127 38 -232.5t114 -197.5q154 -178 371 -178q135 0 280 75q264 145 523.5 524t506.5 996q16 41 33 82t33 80q76 0 131 -6q31 -6 31 14q0 12 -31 16q-55 6 -121 6q63 158 120.5 261.5t108 177t94.5 131t83 123.5q78 41 138 61.5t107 20.5q123 0 123 -111 q0 -129 -104 -248q-197 -66 -307.5 -105.5t-137.5 -56.5q-8 -8 -8 -20q0 -39 36 -39h7q264 31 436 190q104 35 192.5 63t160.5 48q8 2 14 8q1 1 1 2.5t-1 3.5q-6 2 -14 0q-37 -2 -287 -67q94 131 94 237q0 135 -147 136q-53 0 -119 -14.5t-150 -47.5q78 135 149 243.5 t132 198.5q12 18 18.5 20.5t6.5 10.5q0 9 -11 9q-6 0 -16 -3q-63 -25 -74 -41q-106 -160 -184 -278.5t-129 -196.5q-96 -39 -109 -73q-1 -3 -1 -7q0 -23 36 -55q-45 -80 -87 -161t-87 -158q-25 -41 -41 -74t-30.5 -62.5t-30 -59.5t-33.5 -67q-174 -2 -346 -29.5t-352 -74.5 q-252 -68 -460 -175.5t-374 -252.5q-326 -281 -326 -647zM-1921 -1376q0 344 373 661q166 145 368.5 252t444.5 178q168 49 324.5 75t312.5 28q-20 -47 -37 -85t-29 -69q-47 -100 -91 -201.5t-89 -199.5q-84 -186 -172 -340t-176 -281q-238 -348 -469 -473 q-115 -63 -248 -63q-102 0 -191.5 35.5t-162.5 111.5q-158 154 -158 371z" />
<glyph unicode="q" horiz-adv-x="950" d="M-276 -1530q12 -125 91 -194.5t238 -71.5q21 -1 44 -1q125 0 281 38q183 45 408 143q72 35 136.5 76t117.5 80q-61 -35 -127.5 -70t-140.5 -67q-199 -86 -369 -126q-155 -36 -282 -36h-25q-295 11 -295 295q0 173 109 446q63 172 160.5 350.5t207 355.5t222 348 t207.5 331q96 135 171.5 233t131.5 162q12 14 12 24q0 15 -29 15q-16 0 -39 -4q-31 16 -69 16q-49 0 -137 -27q-82 -23 -174.5 -76t-198.5 -130q-272 -205 -350 -430q-6 -23 -7 -41q0 -94 91 -95q57 0 120 43q90 55 184.5 134t194.5 178q14 18 37 18q16 0 17 -14 q0 -12 -9 -21q-2 -4 -25.5 -37.5t-54 -76.5t-59.5 -85t-39 -59q-174 -256 -317.5 -494.5t-242.5 -448.5t-151 -383q-42 -141 -42 -251q0 -24 2 -47zM117 135q0 160 256 381q229 203 405 234q7 1 13 1q21 0 35 -15q20 -19 20 -54t-29 -68q-53 -61 -129 -138t-180 -169 q-129 -115 -215 -169t-131 -54t-45 51z" />
<glyph unicode="r" horiz-adv-x="555" d="M-51 -27q1 -6 4 -6t8 6q27 16 47.5 25.5t36.5 15.5q16 8 16 15q238 389 541 557q46 24 80 24q17 0 31 -6q6 -4 16 1t19.5 14.5t16.5 20.5t7 17q0 2 -2 5q-27 12 -79 12h-15q-74 -31 -205 -137q-127 -102 -207 -199q-6 -8 -24 -16q-23 -8 -23 2q0 8 6 20q23 45 69 111.5 t111 156.5q10 10 3 23q-4 10 -17 10q-6 0 -8 -4q-129 -78 -154 -86q-2 -6 0 -14q6 -18 6 -23q0 -20 -12 -51q-72 -166 -270 -473q-4 -6 -4 -12q0 -5 2 -9z" />
<glyph unicode="s" horiz-adv-x="1011" d="M4 -49q-5 -9 -5 -15q0 -11 17 -12q5 -2 12 -2q8 0 16 2q18 4 46 8q18 -6 43 -6q72 0 186 51q135 57 136 115q0 14 -11.5 38t-37.5 58q164 94 314 154.5t294 89.5l-2 2q-154 -27 -309.5 -76t-321.5 -141q-27 14 -70 76q-39 63 -45 104q-1 7 -1 14q0 95 181 220 q154 109 271 137q10 2 21.5 3t23.5 1q23 0 55.5 -6t79.5 -23q14 -4 46 16.5t46 41.5q8 8 0 26q-10 12 -22 13h-10q-110 0 -235 -40q-130 -42 -278 -130q-279 -163 -279 -295q0 -8 1 -15q4 -29 15.5 -55t33.5 -55l66 -88q-242 -168 -277 -211zM109 -29q10 16 34.5 37t65.5 49 q68 49 100 70q47 -43 47 -76q0 -12 -8 -22q-10 -16 -37.5 -28.5t-68.5 -29.5q-68 -24 -106 -24q-11 0 -19 2q-14 2 -14 10q0 5 6 12z" />
<glyph unicode="t" horiz-adv-x="1550" d="M12.5 -881.5q14.5 -74.5 69.5 -134.5q106 -123 270 -123q137 0 292 82t333 242q350 317 391 588v6q0 47 -57 133q-59 88 -125 88q-16 0 -25 -2q-53 -23 -72.5 -35t-29.5 -29q-4 -18 16 -18q10 0 32.5 14.5t53.5 18.5q15 2 28 2q109 0 109 -172q-16 -111 -88.5 -234 t-208.5 -264q-131 -141 -258 -229t-256 -129q-88 -27 -159 -27q-252 0 -252 356v50q0 23 2 49q16 190 98 428.5t223 531.5q92 184 188.5 342t205.5 318q16 27 51 33q193 10 343 19t267 13q18 2 29.5 19.5t11.5 21.5q-6 6 -25 6q-16 0 -82.5 1t-187.5 1h-297q-28 0 -28 17 q0 12 14 31q444 610 637 649q20 6 20 14q0 18 -22 19q-25 0 -46.5 -9.5t-70.5 -25.5q-102 -39 -115 -54q-141 -164 -270 -316.5t-227 -305.5q-4 -6 2 -12.5t-2 -6.5q-98 0 -152.5 -6t-60.5 -18q-3 -6 -3 -12q0 -28 60 -52q37 -20 37 -57q0 -35 -25 -61 q-104 -152 -208.5 -342.5t-209.5 -427.5q-235 -537 -235 -826q0 -90 14.5 -164.5z" />
<glyph unicode="u" horiz-adv-x="962" d="M23 104v-10q1 -44 31 -76q23 -24 54 -24q16 0 35 6q33 10 101.5 66.5t148.5 129t159 147.5t128 124q37 37 49 17.5t0 -50.5q-14 -35 -31.5 -75t-32 -80.5t-23.5 -83.5t-9 -82q0 -20 11 -40t26.5 -35t34 -23.5t30.5 -4.5q27 10 56.5 29.5t50.5 42.5q25 23 21.5 40 t-36.5 -5q-12 -8 -32.5 -17.5t-34.5 -13.5t-29.5 -8t-26 -1t-15.5 19.5t1 53.5q6 41 30.5 102t56.5 125.5t66.5 126t63.5 104.5q5 9 5 24v6q-1 20 -9 37t-22.5 23.5t-32.5 -12.5q-61 -55 -141 -139t-167 -172t-176.5 -169t-168.5 -130q-28 -16 -49 -16q-17 0 -28 10 q-13 12 -13 40q0 27 12 68q14 55 52 129t85 152t99.5 153.5t99.5 132.5q18 25 16 39q-3 13 -15 17q-6 2 -12 2q-8 0 -17 -3q-17 -5 -28 -18q-27 -31 -62.5 -79t-76.5 -107t-81 -126t-73.5 -131.5t-55 -125.5t-25.5 -109z" />
<glyph unicode="v" horiz-adv-x="657" d="M37 74q-1 -4 -1 -7q0 -11 15 -25q20 -16 45 -19q8 -1 15 -1q14 0 24 3q12 4 19 8l6 4q41 0 88 45q104 88 254 266q66 78 115 142.5t83 115.5q18 23 25 17q10 -10 26.5 -17.5t39.5 -13.5q29 -6 28 14q0 6 -6 10q-25 18 -27 43v5q0 39 56 118q1 1 1 2q0 2 -4 8 q-5 8 -14.5 15.5t-18.5 12.5q-6 4 -10 4q-2 0 -3 -1q-14 -8 -35 -22.5t-49 -36.5q-14 -39 -19.5 -65.5t-11.5 -36.5q-51 -72 -101.5 -141.5t-103.5 -141.5q-78 -104 -137.5 -176t-102.5 -107q-31 -25 -51 -24q-31 0 -30 45q0 18 6 43q45 164 231 458q2 4 4 7.5t2 7.5 q0 27 -33 26q-14 0 -20 -8q-254 -350 -305 -577z" />
<glyph unicode="w" horiz-adv-x="1079" d="M16 68q0 -13 20 -33q22 -21 34 -21q4 -1 8 -1q41 0 102 53q68 55 151 151t183 234q10 14 21 8q10 -4 4 -17q-51 -152 -52 -321q0 -23 5 -35q16 -42 44 -66q26 -22 47 -22h3q172 16 321 166q156 156 189 338q18 0 34.5 4t32.5 8q10 4 11 10q-1 8 -11 8q-57 0 -80 9 q-33 75 -66 75h-1q-18 0 -36.5 -14t-21.5 -29q-4 -10 13.5 -31.5t44.5 -27.5q-8 -156 -117 -297q-109 -139 -221 -168q-11 -2 -21 -2q-60 0 -67 86q-2 12 -2 25v28q0 63 13 134t36 155q23 72 42 124t42 87q2 10 -14 12q-16 0 -37 -3t-29 -11q-20 -33 -34.5 -57.5 t-24.5 -46.5q-51 -80 -183 -240q-78 -92 -138 -154.5t-105 -95.5q-8 -8 -23 -8q-23 0 -22 29q0 8 4 20q14 41 44.5 100.5t80.5 135.5q66 104 101.5 160.5t39.5 66.5q6 12 6 22q0 25 -31 25q-25 0 -26 -14q-4 -18 -42 -81t-110 -169q-72 -109 -112 -185q-50 -92 -50 -124z " />
<glyph unicode="x" horiz-adv-x="561" d="M-402 -506q4 -57 40 -110q25 -35 62.5 -59.5t68.5 -31.5q7 -2 11 -2q7 1 10 5q5 8 -11 14q-35 8 -69 28.5t-56 61.5q-27 42 -27 90q0 10 1 20q7 60 36 117.5t68 108.5t67 84q57 66 119 126t120 113.5t111.5 96.5t96.5 73q12 -39 32.5 -91t44 -104t48 -97.5t43.5 -67.5 q23 -23 34 -18.5t-14 34.5q-23 27 -45 77t-41.5 105.5t-36 108.5t-22.5 86q43 33 112.5 84t143 103.5t143.5 97.5t115 63q16 8 20 22q2 6 2 11q0 7 -3 13q-5 10 -15 16q-4 3 -9 3q-7 0 -16 -5q-41 -20 -109.5 -65.5t-144 -98.5t-145.5 -105.5t-109 -83.5q-10 29 -17 71 t-14 86t-13 88t-13 77q-2 18 -10 21.5t-16.5 -2t-14.5 -16.5t-4 -24q2 -31 8 -75.5t14.5 -92t17.5 -93.5t17 -76q-49 -41 -108.5 -91.5t-120.5 -107.5t-121.5 -117.5t-111.5 -120.5q-47 -59 -88 -117.5t-63 -116.5q-19 -50 -19 -100q1 -8 1 -16z" />
<glyph unicode="y" horiz-adv-x="813" d="M-1645 -1188q0 -242 248 -436q224 -180 489 -180q26 0 52 2q860 55 1464 1777q236 49 606 50q47 0 85 -1t67 -4q100 -8 100 -81q0 -88 -120 -203q-20 -14 -21 -27q0 -2 4 -2q12 0 29 17q106 84 133 135q12 18 12 45t-12 51.5t-31.5 44.5t-43 34.5t-46.5 18.5 q-55 12 -156 13q-285 0 -596 -58q88 264 130 412q10 18 17 29.5t15 21.5q4 20 -13 38.5t-52 16.5q-14 -2 -27.5 -15t-23.5 -32q-29 -27 -77 -63.5t-116 -83.5q-86 -59 -152.5 -97t-113.5 -57q-16 -6 -37 0q-16 6 -16 27q0 10 6 26q39 78 123 201q100 141 143 160 q-4 33 -30 33h-3q-16 -2 -90 -35q-70 -31 -78 -45q-6 -12 -3 -39t-1 -35q-174 -315 -186 -356q-4 -14 8 -28.5t31 -14.5q6 0 18 4q117 45 313 178q150 100 250 188q-4 -29 -13 -76t-26 -116q-36 -160 -69 -250q-307 -59 -599 -145t-577 -197q-825 -326 -983 -692 q-31 -74 -31 -154zM-1589 -1221q0 35 7 66.5t19 64.5q135 340 803 648q559 256 1297 407q-90 -274 -204 -521t-251 -470q-451 -721 -942 -739q-18 -1 -37 -1q-263 0 -475 162q-217 168 -217 383z" />
<glyph unicode="z" horiz-adv-x="512" d="M-1913 -1061q0 -244 248 -438q223 -179 493 -179q24 0 48 1q860 55 1464 1777q119 27 269.5 38.5t336.5 11.5q47 0 85 -1.5t67 -3.5q100 -8 100 -79q0 -92 -121 -203q-20 -18 -20 -29q0 -2 4 -2q12 0 29 16q106 84 133 136q4 10 8 21t4 24q0 27 -12.5 51t-32 45.5t-43 36 t-45.5 18.5q-29 4 -67 7t-89 3q-135 0 -289.5 -9t-308.5 -38q0 4 -1 5.5t-1 3.5q-12 16 -12 36q-2 0 -2 -2t-4 -2q-10 23 -21.5 31.5t-40.5 26.5q-12 -2 -12 12t6 18q16 25 49 70t66 97.5t59.5 105.5t30.5 98q2 20 -4 44t-17.5 43.5t-27.5 29.5q-13 8 -24 8h-5 q-29 -6 -64.5 -37t-69.5 -68.5t-61.5 -74.5t-41.5 -58q-10 -16 -8.5 -32.5t18.5 6.5q18 25 42.5 55.5t50.5 59t51.5 51t45.5 28.5q20 4 34 -18q8 -13 7 -34q0 -16 -4 -36q-10 -41 -37.5 -100t-61.5 -117.5t-68 -107.5t-54 -70q-16 -16 -9 -30.5t17 -10.5q29 6 62.5 -4 t44.5 -43l-23 -6q-606 -117 -1157 -338q-823 -324 -983 -692q-31 -74 -31 -152zM-1858 -1096q0 35 7.5 66.5t17.5 64.5q135 342 805 650q557 254 1296 407q-92 -274 -204.5 -521t-251.5 -470q-446 -723 -940 -741q-16 -1 -32 0q-270 0 -480 161q-217 168 -218 383z" />
<glyph unicode="{" horiz-adv-x="862" d="M20 659q88 -35 135.5 -83t39.5 -150l-117 -561q-8 -98 13.5 -153.5t53.5 -90.5q20 -25 46 -39t50.5 -22.5t45 -11.5t32.5 -5q-25 27 -56.5 48.5t-59 52t-44 77t-9.5 121.5q0 29 10 85.5t23.5 123t27.5 135t27.5 121.5t20.5 82t7 17q4 70 -10 114.5t-38.5 72.5t-52.5 42 t-50 22q76 14 126 44t84.5 80t59.5 122t49 172q31 123 59.5 227.5t71.5 180.5t106.5 117.5t162.5 39.5l12 58q-55 4 -124 -8.5t-144 -83.5q-41 -39 -70 -83t-50.5 -96.5t-38 -113t-32.5 -131.5q-29 -121 -54.5 -209t-63.5 -148.5t-95 -97.5t-149 -55z" />
<glyph unicode="|" horiz-adv-x="237" d="M49 63q-2 -33 14.5 -47t36.5 -14q23 0 42.5 12.5t19.5 36.5q4 104 0 285q2 4 1 11t-1 15q-2 86 -5 178.5t-7 188.5q2 115 7 233.5t12 224t13.5 193t10.5 138.5q2 33 -15.5 47t-40.5 14q-20 0 -38.5 -12.5t-20.5 -36.5q-2 -51 -2 -125t1 -163t5 -189.5t10 -202.5 q-2 -115 -7 -232.5t-12 -224t-13.5 -192.5t-10.5 -138z" />
<glyph unicode="}" horiz-adv-x="862" d="M20 -455q27 0 58 1t64.5 9.5t70.5 28t76 54.5q41 39 69.5 84t49 96t37 111.5t32.5 131.5q29 121 54.5 209t63.5 148.5t95.5 97.5t149.5 55l6 13q-90 35 -137 83t-37 150l114 561q8 98 -12 153.5t-55 90.5q-20 25 -45 39t-49.5 22.5t-46 12.5t-33.5 6q25 -27 56.5 -49.5 t59 -53t45 -76.5t11.5 -122q-2 -29 -10.5 -81t-20.5 -114.5t-26.5 -128t-26.5 -120t-21.5 -89t-11.5 -34.5q-6 -68 9.5 -112t39 -71.5t51 -42t50.5 -22.5q-76 -14 -126.5 -44t-85 -80t-59 -122t-49.5 -172q-31 -123 -59.5 -227.5t-71.5 -180t-106.5 -117.5t-161.5 -40z" />
<glyph unicode="~" horiz-adv-x="702" d="M33 555q0 -8 4 -8l59 45q31 25 61.5 36t59.5 11q35 0 139 -61q109 -57 138 -58q29 0 67.5 34t87.5 99q6 12 10.5 21.5t4.5 19.5q0 6 -9 6q-12 0 -30 -20q-23 -27 -53.5 -41t-77.5 -14q-20 0 -55.5 12t-90.5 43q-98 63 -131 63q-29 0 -71 -36.5t-95 -110.5 q-8 -14 -13 -25.5t-5 -15.5z" />
<glyph unicode="&#xa1;" horiz-adv-x="503" d="M-233 -350q4 -51 16 -56q23 -6 58.5 3.5t43.5 27.5q113 311 379 842q2 4 2 12q0 23 -18 23q-13 -1 -21 -15q-31 -57 -85 -159.5t-132 -253.5q-53 -106 -98 -188.5t-82 -141.5q-2 -4 -11 -6t-18.5 -3t-18.5 -3t-11 -8q-12 -23 -4 -74zM307 739q0 -106 17 -127q4 -4 12 -4 q20 0 53 15.5t39 27.5q8 8 0 62q-6 49 -16 59q-2 8 -17 8q-27 0 -57.5 -14.5t-30.5 -26.5z" />
<glyph unicode="&#xa2;" horiz-adv-x="808" d="M117 248q-2 -10 4 -25.5t17.5 -30t24.5 -25.5t25 -17q8 -4 5 -13q-23 -33 -39.5 -59.5t-28.5 -48.5q-12 -12 14 -19q27 -6 37 10q16 29 31.5 53.5t30.5 47.5q2 4 14 4q174 0 410 192q14 8 14 23q0 8 -8 8t-17 -6q-190 -147 -344 -174q-96 -16 -96 74q0 10 2 22t6 27 q41 156 170 311q66 78 134.5 134.5t140.5 86.5q16 4 38 4q31 0 60 -5t53 -13q16 -2 35 20q4 10 8 18.5t6 16.5q4 8 -13 18.5t-28 10.5q-43 6 -100 -21q-10 -6 0 9q102 141 104 137q-4 8 -12 8q-6 -4 -11 -6t-9 -6q-35 -49 -64 -86t-51 -66l-6 -6q-190 -76 -359 -250 q-178 -190 -198 -358z" />
<glyph unicode="&#xa3;" horiz-adv-x="1429" d="M34 168q-7 -35 5 -70q20 -57 68.5 -103t113 -65.5t139 -1t150.5 89.5q6 4 14 6.5t21 -8.5q43 -37 97 -76.5t111.5 -74.5t113 -65.5t100.5 -49.5q45 -18 103 -25.5t116.5 1t111 33t86.5 69.5q12 18 4 26.5t-20 -8.5q-61 -68 -132 -86t-143.5 -4.5t-146.5 51t-140.5 82.5 t-123.5 89.5t-98 70.5q-14 10 -13.5 19.5t17.5 27.5q53 53 114.5 179t120.5 311q0 8 17 8q27 -2 69.5 -6t91 -9.5t94.5 -10.5t79 -9q16 -2 20 9.5t-12 15.5q-29 8 -75 18t-94 18.5t-89 14.5t-60 10q-14 0 -6 17q63 154 133 269.5t136.5 188t126 99t104.5 0.5q2 0 5 -8.5 t6 -15.5t6 -11t5 2q8 25 0 39t-23.5 21t-33.5 10.5t-33 5.5q-143 4 -259 -155t-220 -439q-4 -15 -20 -15q-55 4 -110.5 9.5t-84.5 -3.5q-25 -6 -31 -18t3.5 -23.5t31 -18.5t51.5 -3q10 4 12.5 8t16.5 4q23 2 48.5 0t41.5 -4q10 -2 11 -6t1 -10q-29 -84 -61.5 -159 t-65 -135.5t-62.5 -103.5t-52 -63q-12 -12 -21.5 -16.5t-30.5 8.5q-88 61 -162.5 108t-146.5 58q-33 2 -64.5 -13.5t-53 -42t-28.5 -61.5zM59.5 182q8.5 35 49.5 41q29 4 54 2t61 -17t90.5 -47t140.5 -87q16 -8 17 -13.5t-15 -21.5q-68 -63 -130.5 -76.5t-114.5 5t-90 58.5 t-54.5 80.5t-8 75.5z" />
<glyph unicode="&#xa4;" horiz-adv-x="1280" d="M-106 696q0 -4 2 -4l47 27q51 27 96 26q25 0 80 -24q-80 -166 -80 -315q0 -94 29.5 -171t95.5 -137q125 -102 299 -106q104 -4 212.5 31.5t225.5 105.5q170 102 246 151.5t69.5 50.5t-87 -40t-224.5 -117q-117 -61 -226.5 -97t-215.5 -40q-84 -2 -152.5 20.5t-118 66.5 t-77 108.5t-27.5 148.5q0 25 3 49.5t7 48.5q10 53 28.5 109.5t47.5 109.5q31 -12 51.5 -17t30.5 -5q43 0 123 80q4 6 10 16t-6 10q-10 0 -23 -12q-33 -33 -104 -33q-10 0 -24.5 2t-32.5 9q16 31 33.5 61.5t37.5 60.5q74 -29 97 -28q23 0 52.5 20.5t69.5 59.5q4 6 10.5 16 t-5.5 10q-8 0 -23 -10q-35 -35 -104 -35q-10 0 -25.5 2t-38.5 13q33 45 71 90t79 92q72 78 144.5 146.5t145 118.5t145.5 79t144 29q59 0 95 -25t61 -96q18 -106 -8.5 -204.5t-61.5 -195.5q39 39 66.5 98.5t40 123t10.5 127t-22.5 111.5t-60.5 76t-99 19q-57 -4 -108.5 -16 t-104 -36.5t-109.5 -62.5t-125 -92q-104 -82 -191 -173t-161 -189q-82 35 -104 35l-23 -9q-23 -8 -50.5 -22t-50 -34.5t-22.5 -45.5q0 -4 2 -4l47 27q53 29 97 28q10 0 27.5 -5t45.5 -15q-20 -33 -40.5 -63.5t-39.5 -61.5v2q-41 16 -67.5 26.5t-36.5 10.5l-23 -8 q-22 -8 -49.5 -22.5t-50 -35t-22.5 -45.5z" />
<glyph unicode="&#xa5;" horiz-adv-x="874" d="M-174 51q0 -26 27 -26h243q-84 -102 -150.5 -200.5t-95.5 -160.5q-23 -49 -6 -57t50 47q51 86 121.5 179t152.5 192h272q33 0 33 36q0 23 -24 23h-230q41 49 86 99t92 102q25 27 51.5 54.5t51.5 55.5h4h102q49 0 90 2q25 0 25 31q0 16 -19 16h-153q111 113 222.5 220.5 t212.5 203t189.5 173t153.5 130.5q20 18 18 34t-17 22t-37.5 3t-41.5 -20q-127 -111 -254 -232.5t-246.5 -243.5t-228 -236.5t-196.5 -210.5q-4 57 -3 134t6 162t12 173t16.5 166.5t17.5 143t14 101.5q8 43 -8.5 58.5t-39 11.5t-44 -25.5t-23.5 -52.5t-7 -103.5t-11 -171 t-10 -213t-2 -227.5h-174q-31 0 -31 -34q0 -14 16 -15h101q49 0 90 2q2 -49 4 -95t6 -87q-27 -33 -54.5 -64.5t-56.5 -66.5h-276q-41 0 -41 -33z" />
<glyph unicode="&#xa6;" horiz-adv-x="309" d="M49 1287q2 -140 9.5 -303t18.5 -333t27 -311q4 -53 19.5 -49t11.5 57q-10 80 -12 183.5t0 215t7 225t12.5 214t12.5 183.5t9 132q2 31 -14.5 45.5t-38.5 14.5q-20 0 -40 -12.5t-20 -37.5q-4 -84 -2 -224zM150 66q-4 -33 13 -47.5t38 -14.5q23 0 42 13.5t19 35.5 q2 84 1 224.5t-8 304t-18.5 332.5t-27.5 311q-4 55 -19.5 50t-11.5 -58q10 -80 12.5 -183.5t0 -214t-7.5 -224.5t-12 -214t-13 -183t-8 -132z" />
<glyph unicode="&#xa7;" d="M27 -242q16 -80 123 -112q35 -10 76.5 -17.5t88.5 -7.5q66 0 122.5 12.5t109.5 34.5q121 57 100 180q-6 29 -19.5 59t-35.5 58h31h63q37 0 71 1t50 3q45 0 45 6q0 4 -14 5h-60h-80h-75h-45q-92 98 -161 168.5t-114 115.5q-70 78 -82 137q31 -35 90 -49q76 -27 166 -26 q66 0 122 13t110 36q121 55 100 180q-4 20 -12.5 43t-26.5 49q-2 8 -5 12.5t-7 8.5q-2 2 -2 4q27 -2 44 1t18 6t-16.5 5t-62.5 0q-94 98 -161.5 169t-112.5 116q-35 47 -57.5 84t-26.5 65q-12 76 49 125q129 111 356 111q84 0 152 -19q51 -12 92 -53q20 -23 34.5 -48.5 t18.5 -57.5q4 -20 3 -38t1 -24t9 0q2 4 2 6q0 4 4 10q6 37 0 72q-8 53 -49 101q-41 41 -86 55q-61 18 -154 18q-248 0 -403 -116q-76 -53 -64 -138q16 -78 103 -170q74 -78 135 -145.5t112 -124.5q-35 -4 -68.5 -7t-64.5 -7q-82 -8 -149.5 -31t-137.5 -53q-92 -41 -90 -109 q-6 -29 0 -57q12 -76 101 -170q74 -80 135 -147.5t113 -123.5q-260 -20 -420 -98q-100 -47 -88 -121zM51 -256q-10 57 86 106q43 27 99.5 45.5t125.5 34.5q35 6 80.5 14.5t102.5 16.5q55 -51 63 -113q8 -45 -12.5 -82.5t-71.5 -64.5q-98 -55 -227 -55q-37 0 -73 3t-72 13 q-16 4 -29.5 10t-28.5 17q-33 25 -43 55zM211 464q-6 28 33 58.5t131 62t256 60.5q14 2 34.5 4t41.5 -2q33 -10 54 -32.5t23 -57.5q10 -51 -16.5 -84t-75.5 -65q-41 -27 -101.5 -38.5t-122.5 -8t-119.5 17.5t-94.5 35.5t-43 49.5z" />
<glyph unicode="&#xa8;" horiz-adv-x="524" d="M66 1174q4 -41 11 -50.5t15 -9.5q20 0 48 13.5t28 25.5q0 90 -12 107q-4 4 -15 4q-47 0 -75 -39q-6 -8 0 -51zM373 1174q6 -41 12 -54q6 -6 16 -6q23 0 50.5 13.5t27.5 25.5q0 47 -4 71.5t-12 35.5q-8 4 -12 4q-18 0 -43 -17q-27 -12 -34 -21t-1 -52z" />
<glyph unicode="&#xa9;" horiz-adv-x="1400" d="M25 842q12 -139 75.5 -256t162.5 -201t226 -127t267 -31q137 12 255.5 76t202.5 162t127 224t31 265t-75.5 257t-163 203t-226.5 128t-266 31t-257 -75.5t-202 -163t-127 -226.5t-30 -266zM72 850q-10 129 29.5 246.5t117.5 210t188.5 152t239.5 69.5t247 -30t210 -117.5 t150.5 -188.5t70.5 -240q10 -129 -29 -246.5t-116.5 -210t-188 -151.5t-239.5 -70q-129 -10 -247 30t-210 118t-151.5 188.5t-71.5 239.5zM223 657q-6 -45 14.5 -85t54.5 -68.5t75 -43t79 -7.5q84 14 186.5 56t198 94t171 104.5t106.5 85.5q35 35 25.5 45t-33.5 -15 q-45 -45 -122 -95t-167 -95t-187.5 -77t-181.5 -40q-98 -10 -128.5 43t-2.5 154q18 66 73.5 154.5t132.5 174.5t165 158t172 103q39 18 55.5 6.5t20.5 -35t1 -53t-5 -50.5q-4 -45 11 -51t40 39q14 27 28.5 58.5t24.5 74.5q2 20 -6 41t-25.5 34t-42 18.5t-53.5 -3.5 q-51 -14 -118.5 -53t-141.5 -96t-144.5 -127t-130 -145.5t-98.5 -153.5t-47 -150z" />
<glyph unicode="&#xaa;" horiz-adv-x="882" d="M41 1292q0 -37 31 -37q14 1 30 9q80 41 187 120q53 41 96 76t72 68l2 2q10 0 4 -12q-43 -51 -84 -138q-70 -131 -72 -221q-6 -51 39 -84q41 -27 100 -26q35 0 72 10q35 10 77 34.5t95 59.5q106 80 164 154q6 8 6 14q0 2 -2 2q-6 0 -16 -10q-29 -35 -70 -70t-90 -69 q-53 -37 -95 -60.5t-77 -34.5q-23 -4 -44.5 -8t-43.5 -4q-98 0 -98 74q0 12 2 18q12 63 40.5 134t82.5 149q33 47 68.5 95t70.5 97q0 4 -3 8.5t-7 4.5t-5.5 -1t-3.5 -1q-6 -4 -14 -7.5t-18 -7.5h-23q-27 10 -61 10q-25 0 -50 -6q-49 -16 -104 -53t-121 -90 q-137 -121 -137 -199zM115 1331q0 13 6 25q16 35 46 72.5t73 78.5q86 88 147 99q8 4 14.5 5t12.5 1q29 0 44 -10.5t15 -22.5q0 -4 -4 -8q-178 -188 -311 -260q-10 -6 -21 -6q-23 0 -22 26z" />
<glyph unicode="&#xab;" horiz-adv-x="684" d="M39 338q-12 -16 59 -285q6 -16 15 -16q14 0 12 22q-24 211 -8 250q33 61 250 236q14 14 8 20q-8 8 -27 -2q-287 -178 -309 -225zM322 338q-8 -18 61 -285q4 -16 14 -16q12 0 11 22q-25 213 -7 250q16 29 78 88.5t172 147.5q10 10 4 20q-6 6 -24 -4q-283 -176 -309 -223z " />
<glyph unicode="&#xac;" horiz-adv-x="2160" d="M46 649.5q7 -8.5 26.5 -20t34 -26.5t-12.5 -40l8 -2q33 2 93.5 10.5t134 20.5t154.5 26.5t153 26.5q143 23 303 44.5t314.5 36.5t296 21.5t249.5 -6.5q39 -4 94.5 -17t100.5 -41t66.5 -73t-5.5 -112q-8 -43 -39.5 -88t-60.5 -80t-42 -55.5t15 -12.5q37 37 58.5 55.5 t38 34t31 35t34.5 57.5q37 70 17.5 128.5t-68.5 103.5t-111.5 72.5t-109.5 37.5q-82 16 -221.5 14.5t-307.5 -14t-349 -31t-349 -34.5q-68 -6 -143.5 -16.5t-147.5 -19.5t-131 -15t-92 -6q-39 -6 -32 -14.5z" />
<glyph unicode="&#xad;" horiz-adv-x="468" d="M41 358q0 -18 35 -18h301q53 0 53 35q0 20 -35 20h-289q-66 0 -65 -37z" />
<glyph unicode="&#xae;" horiz-adv-x="993" d="M53 1307q6 -94 48 -174t107.5 -136.5t149.5 -85t177 -20.5q53 4 103 21.5t95 45.5q25 -16 45.5 -26t36.5 -12q33 -6 54.5 -3t36 10t22.5 17t14 19q-23 -29 -58.5 -32t-64.5 5q-10 4 -26.5 12t-36.5 25q92 68 143 175t41 232q-8 94 -50 174t-107.5 137.5t-148.5 86 t-175 20.5q-90 -8 -168 -50t-133.5 -109.5t-84 -152.5t-20.5 -179zM84 1309q-8 88 18.5 167.5t77.5 142t124 102.5t159 48q84 6 160.5 -20.5t137 -79.5t99.5 -127t47 -162q10 -121 -39 -222t-141 -165q-41 31 -90 71t-93 79t-81 71.5t-53 51.5q-14 16 4 14q33 -2 82 3 t100 15.5t98 27.5t78 42q35 27 40.5 62.5t-19.5 64.5q-18 20 -50 44t-74 44.5t-92.5 34.5t-105.5 20q-119 8 -189.5 -25.5t-86.5 -101.5q-10 -33 -1 -68.5t27 -62.5q2 -2 6 -1t0 5q-12 23 -18 57t6 68q23 70 91.5 90.5t158.5 12.5q115 -8 203 -51t114 -91q18 -27 10 -49 t-36 -43q-35 -25 -85 -40t-100.5 -23t-94.5 -10t-68 0q37 47 79.5 92t102.5 98q8 8 4 22.5t-21 10.5q-23 -16 -49 -43t-54 -56.5t-53.5 -60.5t-43.5 -57q-18 2 -25 -2q-12 -14 0 -31q-35 -47 -61.5 -97.5t-22.5 -107.5q0 -33 15 -45q6 -6 10 -3t0 9q-4 4 -8.5 14.5t0.5 20.5 q8 51 27.5 93t58.5 93q20 -18 58 -52t85 -73.5t97 -80.5t95 -72q-78 -49 -170 -55q-86 -8 -163.5 19.5t-139 79.5t-100.5 127t-45 161z" />
<glyph unicode="&#xaf;" horiz-adv-x="677" d="M78 1343q0 -16 39 -16h243q113 0 207 2q61 0 62 29q0 16 -43 16h-430q-78 0 -78 -31z" />
<glyph unicode="&#xb0;" horiz-adv-x="411" d="M92 1010q0 -53 39 -91t92 -38q55 0 94 38t39 91t-38.5 90t-94.5 37q-53 0 -92 -37t-39 -90zM119 1010q0 41 30.5 71.5t73.5 30.5q41 0 74 -30.5t33 -71.5q0 -43 -33 -74t-74 -31q-43 0 -73.5 31t-30.5 74z" />
<glyph unicode="&#xb1;" horiz-adv-x="856" d="M27 164q0 -14 39 -14h161h197q100 0 188 1t136 1q61 0 61 28q0 16 -43 17h-662q-78 0 -77 -33zM36 756q-3 -4 5 -15q4 -6 14.5 -15t22.5 -19.5t22.5 -18.5t14.5 -8q47 -6 123.5 -11t167.5 -5q-47 -86 -88.5 -171t-65.5 -155q-2 -8 -3 -18.5t2 -18.5t11 -11t25 3 q18 4 48 22.5t40 28.5q6 10 4 14t-10 -6q-27 -14 -43 -20q-14 -6 -20.5 -3t-6.5 11q0 10 3 21.5t7 19.5q45 131 133 283q102 4 201.5 10t171.5 22q14 2 26.5 15.5t-7.5 38.5q-10 16 -37 34.5t-37 20.5q-12 0 -13.5 -4t9.5 -8q20 -10 32 -27q10 -10 11 -18q0 -6 -6.5 -11.5 t-15.5 -8.5t-17 -3q-63 -16 -140 -21.5t-161 -5.5q55 92 112.5 179.5t106.5 152.5q12 14 31.5 30.5t35.5 22.5q4 2 2 7.5t-12 1.5q-8 -2 -22.5 -7.5t-29.5 -13.5t-27.5 -15t-16.5 -14q-39 -51 -97.5 -143t-117.5 -201q-86 2 -166 8.5t-145 16.5q-16 4 -37 13t-35 22 q-2 2 -5 -2z" />
<glyph unicode="&#xb2;" horiz-adv-x="489" d="M27 770q0 -10 16 -8q63 4 119.5 6t109.5 2h43q21 0 37 -2q16 0 17 10q0 10 -21 10q-205 0 -205 17q0 4 13 8q47 16 93 44t93 63q117 84 117 165q0 35 -23 68q-29 37 -84 39q-80 6 -149 -35q-16 -10 -17 -24q0 -6 7 -3q59 35 114 35q16 0 33 -6q37 -6 61 -39 q20 -29 17 -57q-12 -76 -105 -145q-61 -49 -133 -82q-31 -14 -61.5 -23.5t-59.5 -17.5q-33 -4 -32 -25z" />
<glyph unicode="&#xb3;" horiz-adv-x="509" d="M18 723q0 -27 80 -27q70 2 162 41q106 43 141 113q10 18 11 45q0 39 -27 66.5t-68 31.5q-6 0 -6 4t6 9q55 23 94.5 47t57.5 55q10 20 10 37q0 49 -65 49q-37 0 -69 -8t-58 -23q-14 -12 -15 -20q0 -10 4 -6q63 29 119 28q35 0 35 -35q0 -20 -8 -38q-10 -16 -29.5 -30.5 t-48.5 -31.5q-57 -35 -102 -35q-20 0 -21 -14q0 -6 4 -6q72 8 113 -25q29 -20 29 -65q0 -18 -7 -33q-27 -63 -122 -109q-39 -16 -74 -26t-68 -10q-45 0 -45 26q-2 16 -12 17q-20 0 -21 -27z" />
<glyph unicode="&#xb4;" horiz-adv-x="544" d="M721 1106q6 -10 20 -6q57 23 143.5 51.5t202.5 65.5q20 6 21 28q0 45 -33 45q-12 0 -162 -76q-90 -45 -135 -66.5t-49 -23.5q-12 -6 -8 -18z" />
<glyph unicode="&#xb5;" horiz-adv-x="917" d="M-188 -428l1 -20q1 -21 5 -44.5t9 -42t15 -14.5q12 -4 27.5 -1t31 10.5t27 16.5t11.5 19q27 115 64.5 255t86.5 315q16 -35 50 -46.5t81 11.5q18 10 52 44t75 82t87 105t90 114.5t83 110t68 91.5q14 20 26.5 24t18.5 -1t7 -18.5t-3 -27.5q-8 -39 -30.5 -97.5t-44 -121 t-35 -120.5t-7.5 -97q2 -20 15.5 -39t32 -31t38 -17t31.5 1q25 12 50.5 37.5t43.5 48.5q20 29 13 45t-35 -10q-14 -16 -38 -34t-47.5 -24t-39 6.5t-15.5 59.5q0 41 27 120.5t62.5 168t72.5 170.5t60 129q4 12 -1.5 32.5t-15.5 34.5t-25.5 17.5t-31.5 -19.5 q-53 -63 -118.5 -157.5t-138.5 -196t-147.5 -194.5t-146.5 -152q-27 -23 -52.5 -28t-43 9.5t-22.5 45t9 77.5q6 55 34 131t66 158t81 163t80 146q16 27 12 39t-18.5 13t-32 -7t-25.5 -24q-23 -37 -56.5 -101.5t-68.5 -141.5t-66.5 -161t-52.5 -160q-12 -39 -29.5 -94 t-38 -118.5t-43 -130t-44 -129t-41 -115t-33.5 -86.5q-2 -4 -11.5 -6.5t-18.5 -5.5t-17 -7t-10 -10z" />
<glyph unicode="&#xb6;" horiz-adv-x="1325" d="M74 838.5q-4 -105.5 16.5 -187.5t65.5 -131t110 -51q45 -14 92.5 -6t92.5 28.5t86 49t75 55.5q-18 -35 -43.5 -94.5t-53.5 -128t-55.5 -140t-50 -134t-38 -107.5t-19.5 -62q-6 -33 0 -59.5t8 -54.5q23 -23 25 -26t1 -2t4 -3t34 -31q-16 35 -19.5 46.5t-3.5 13.5 q-8 23 15.5 105.5t69.5 207.5t108.5 281.5t134.5 323.5t144.5 335t139 316.5t120 268.5t84.5 189q12 20 37.5 66.5t50 97.5t41 97t10.5 69l-5 10t-20 8q-12 -2 -30.5 -15t-31 -24.5t-14.5 -13.5q18 -10 19 -43q0 -31 -10.5 -74t-31 -90t-40.5 -86l-68 -135q-29 4 -77 9 t-80.5 7t-36.5 2q-178 18 -313.5 -40t-260.5 -187q-94 -98 -154.5 -213t-92 -228.5t-35.5 -219zM320.5 1236q3.5 52 21.5 116.5t49 128.5l39 53q57 57 128 92t146.5 51.5t149.5 17.5t135 -9q6 0 22.5 -1.5t35 -3.5t36 -5t27.5 -5q-63 -139 -106 -229t-71 -147.5t-44.5 -90.5 t-27.5 -58.5t-22.5 -51t-29.5 -66.5q-12 -20 -18.5 -3t-6.5 58t5.5 99.5t14.5 118t21.5 112.5t28.5 86q4 8 -15.5 -18.5t-56.5 -71.5t-85 -99.5t-102 -100.5t-108.5 -75.5t-103.5 -25.5q-37 6 -51.5 41t-11 87z" />
<glyph unicode="&#xb7;" horiz-adv-x="231" d="M62.5 137.5q0.5 -14.5 3 -32t5.5 -33t7 -21.5q6 -6 20.5 -4t29.5 8t27.5 15.5t12.5 15.5v23q0 16 -2 32.5t-4 31.5t-6 20q-6 6 -19.5 3t-28 -9.5t-26.5 -14.5t-16 -14t-3.5 -20.5z" />
<glyph unicode="&#xb8;" horiz-adv-x="270" d="M8.5 -257q1.5 -9 18.5 -9q27 2 56.5 12t56 24.5t47 30t28.5 29.5q12 25 9 43t-14 31.5t-25.5 21.5t-24.5 13q-10 4 -9 10t5 10q10 12 21 24.5t24 20.5q10 8 2.5 12t-17.5 -2q-53 -37 -88 -71q-12 -12 11 -19q41 -12 59 -34.5t0 -51.5q-6 -12 -22.5 -27.5t-37 -27.5 t-43 -20.5t-42.5 -10.5q-16 0 -14.5 -9z" />
<glyph unicode="&#xb9;" horiz-adv-x="405" d="M43 805q4 -8 18 -8q39 6 158 6h25q59 0 81.5 1t18.5 9q0 6 -14 4q-12 0 -38 2t-63 8q-33 6 -34 23q0 8 2 14q12 55 75 166q59 111 84 129q0 10 -1 16.5t1 10.5q12 8 20.5 14t14.5 10t6 13q-6 10 -14 10q-4 0 -8 -2q-59 -43 -221 -107q-4 -4 -7.5 -5t-5.5 -5q0 -6 11 -6 q2 0 3 1t5 1q33 10 63.5 22.5t61.5 22.5q2 2 6 2t8 -6q0 -4 -2 -8q-49 -100 -82 -178t-53 -134q-39 -2 -65.5 -3t-39.5 -5q-18 0 -14 -18z" />
<glyph unicode="&#xba;" horiz-adv-x="411" d="M92 1010q0 -53 39 -91t92 -38q55 0 94 38t39 91t-38.5 90t-94.5 37q-53 0 -92 -37t-39 -90zM119 1010q0 41 30.5 71.5t73.5 30.5q41 0 74 -30.5t33 -71.5q0 -43 -33 -74t-74 -31q-43 0 -73.5 31t-30.5 74z" />
<glyph unicode="&#xbb;" horiz-adv-x="757" d="M45 59q4 -14 23 2q47 31 93 61t93 62q57 41 89 64.5t38 36.5q6 12 -33 157q-37 145 -45 146q-10 0 -8 -23q24 -215 6 -250q-31 -61 -250 -237q-12 -12 -6 -19zM330 59q2 -12 22 4q45 31 92.5 61t94.5 60q117 82 125 103q12 14 -60 282q-4 18 -14 19q-12 0 -10 -23 q22 -213 6 -250q-29 -57 -250 -237q-16 -12 -6 -19z" />
<glyph unicode="&#xbc;" horiz-adv-x="1036" d="M39 43q0 -31 4 -39q4 0 14 35q25 115 387 512q162 178 301.5 316.5t258.5 236.5q14 18 14 26q0 14 -12 15q-12 0 -29 -15q-223 -186 -559 -565q-367 -414 -379 -522zM43 594q0 -10 14 -10q43 6 166 6h27q61 0 85.5 2t24.5 14q0 10 -16 6q-33 -4 -102 15q-35 4 -35 26 q0 12 8 23q12 39 42 97t73 134q41 74 70.5 119t43.5 61q4 12 5 23q0 10 2 12q14 10 26 19.5t19 15.5q4 4 4 17q0 14 -8 14q-2 0 -11 -6q-76 -57 -254 -148q-6 -2 -8 -5t-4 -7q-4 -4 -2 -6t6 -2t12 4q35 14 70 29.5t72 35.5l2 1t4 1q6 0 6 -8q0 -10 -6 -16 q-70 -137 -121 -244.5t-84 -185.5q-43 -4 -70.5 -6t-46.5 -7q-14 -2 -14 -24zM381 227q0 -27 8 -26q2 0 5 4t12 18q10 16 20 21q18 4 51 5t86 -1h68q29 0 43 -2q-88 -186 -92 -287q-4 -20 6 -20q6 0 6 16q2 55 57 164q12 23 64 127q8 -2 28 -2h58q8 0 18 11t10 17t-4 2 q-6 -2 -30.5 -1t-67.5 6q12 23 42 76t77 134q47 86 83 145.5t64 106.5v2q0 6 -10 7q-43 0 -55 -29q-74 -133 -133.5 -242.5t-104.5 -191.5h-16t-45 2q-27 0 -51.5 1t-49.5 1q-27 0 -46 -1t-36 -3q12 16 51.5 62t106.5 118q72 78 124 130t89 81q6 6 6 14q0 16 -12 17 q-4 0 -6 -2q-37 -35 -85 -82t-114 -123q-127 -141 -178 -215q-4 -10 -9 -13.5t-9 -5.5q-23 -18 -23 -20q-6 -10 -6 -21z" />
<glyph unicode="&#xbd;" horiz-adv-x="1036" d="M39 43q0 -31 4 -39q4 0 14 35q25 115 387 512q162 178 301.5 316.5t258.5 236.5q14 18 14 26q0 14 -12 15q-12 0 -29 -15q-223 -186 -559 -565q-367 -414 -379 -522zM43 594q0 -10 14 -10q43 6 166 6h27q61 0 85.5 2t24.5 14q0 10 -16 6q-33 -4 -102 15q-35 4 -35 26 q0 12 8 23q12 39 42 97t73 134q41 74 70.5 119t43.5 61q4 12 5 23q0 10 2 12q14 10 26 19.5t19 15.5q4 4 4 17q0 14 -8 14q-2 0 -11 -6q-76 -57 -254 -148q-6 -2 -8 -5t-4 -7q-4 -4 -2 -6t6 -2t12 4q35 14 70 29.5t72 35.5l2 1t4 1q6 0 6 -8q0 -10 -6 -16 q-70 -137 -121 -244.5t-84 -185.5q-43 -4 -70.5 -6t-46.5 -7q-14 -2 -14 -24zM424 51q0 -12 18 -10q125 12 240 12q29 0 49.5 -1t38.5 -3q16 0 16 12q0 14 -18 15q-221 0 -221 26q0 4 5 6.5t9 6.5q49 23 99.5 59.5t101.5 87.5q63 59 91 117.5t28 109.5q0 57 -23 97 q-25 43 -88 55q-72 8 -162 -51q-16 -8 -16 -35q0 -4 4 -4q35 27 64.5 36t60.5 9h37q18 -6 34.5 -19.5t30.5 -37.5q10 -18 15.5 -38t1.5 -42q-12 -98 -111 -203q-35 -35 -68.5 -61.5t-74.5 -51.5q-31 -18 -66 -30.5t-65 -20.5q-31 -10 -31 -41z" />
<glyph unicode="&#xbe;" horiz-adv-x="1036" d="M39 43q0 -31 4 -39q4 0 14 35q25 115 387 512q162 178 301.5 316.5t258.5 236.5q14 18 14 26q0 14 -12 15q-12 0 -29 -15q-223 -186 -559 -565q-367 -414 -379 -522zM57 614q0 -45 88 -43q84 4 179 60q61 37 100.5 82t62.5 100q8 33 9 70q0 63 -30 106t-75 49q-6 2 -6 6 q0 10 4 13q125 68 170 164q14 29 14 57q0 78 -75 78q-41 0 -75 -13.5t-67 -37.5q-16 -8 -16 -33q0 -10 6 -6q35 25 67.5 35t61.5 10q41 0 41 -56q0 -16 -2 -29.5t-10 -27.5q-10 -27 -31.5 -51.5t-50.5 -46.5q-66 -57 -119 -58q-6 0 -15 -7t-9 -17q0 -6 10 -6q84 6 123 -39 q35 -35 34 -103q0 -27 -6 -57q-41 -102 -141 -168q-41 -29 -79 -43t-75 -14q-53 0 -53 41q0 27 -14 26q-10 0 -15.5 -14t-5.5 -27zM381 227q0 -27 8 -26q2 0 5 4t12 18q10 16 20 21q18 4 51 5t86 -1h68q29 0 43 -2q-88 -186 -92 -287q-4 -20 6 -20q6 0 6 16q2 55 57 164 q12 23 64 127q8 -2 28 -2h58q8 0 18 11t10 17t-4 2q-6 -2 -30.5 -1t-67.5 6q12 23 42 76t77 134q47 86 83 145.5t64 106.5v2q0 6 -10 7q-43 0 -55 -29q-74 -133 -133.5 -242.5t-104.5 -191.5h-16t-45 2q-27 0 -51.5 1t-49.5 1q-27 0 -46 -1t-36 -3q12 16 51.5 62t106.5 118 q72 78 124 130t89 81q6 6 6 14q0 16 -12 17q-4 0 -6 -2q-37 -35 -85 -82t-114 -123q-127 -141 -178 -215q-4 -10 -9 -13.5t-9 -5.5q-23 -18 -23 -20q-6 -10 -6 -21z" />
<glyph unicode="&#xbf;" horiz-adv-x="819" d="M-147 -25q0 -61 22 -139q16 -51 44 -95t67 -83q90 -90 213 -90q37 0 69 8q41 10 82 37t76 74q10 14 10 26q0 10 -6 11q-4 0 -24 -21q-43 -66 -142 -65q-98 0 -180 61q-92 61 -123 166q-10 33 -15 62.5t-5 58.5q0 190 278 333q143 78 440 162q14 6 15 19q0 23 -37 69 q-35 49 -57 49q-15 0 -15 -12q0 -4 5 -15t10.5 -24.5t8.5 -28t-1 -26.5q-8 -23 -31 -33q-37 -10 -102.5 -34.5t-161.5 -63.5t-159.5 -67.5t-100.5 -49.5q-180 -106 -180 -289zM609 787.5q-1 -15.5 3 -39.5q2 -23 5.5 -35.5t7.5 -17.5t8 -5h8q16 0 45 12q29 14 38 25.5 t1 54.5q-4 41 -12 49.5t-23 8.5q-23 0 -48.5 -11.5t-29.5 -19.5q-2 -6 -3 -21.5z" />
<glyph unicode="&#xc0;" horiz-adv-x="2279" d="M102 209q0 -63 28 -122.5t77 -104.5t118.5 -71t151.5 -22q104 4 207.5 43t199 96.5t178.5 123t147.5 125t105.5 103.5t53 54q27 -4 80 -14t111.5 -20.5t109.5 -19.5t74 -13q-6 -29 -20.5 -91.5t-25.5 -140.5t-11 -164t24 -159q8 -16 16.5 -13.5t2.5 27.5 q-16 63 -10.5 149t21 166t34 142.5t26.5 78.5q14 -2 39 0.5t50.5 6.5t46 13t26.5 24q8 20 3 54t-16.5 69.5t-24.5 67.5t-17 48q12 29 40.5 98.5t67.5 157.5t82 184.5t86 178.5q6 12 1 21t-14 17.5t-19.5 14.5t-10.5 12q-2 29 -13 48.5t-26.5 27.5t-32 5t-26.5 -19 q-43 -61 -98.5 -141.5t-118 -167.5t-128 -175t-127 -168t-115.5 -144.5t-95 -105.5q-135 29 -295 49.5t-315.5 22.5t-293 -23.5t-225.5 -88.5q-68 -51 -98.5 -114t-30.5 -126zM150 240q0 55 24.5 104t73.5 82q111 68 256 89.5t294.5 15t288 -32t236.5 -49.5 q-57 -70 -148.5 -161t-203 -172t-238.5 -136.5t-258 -53.5q-78 0 -138.5 28t-102 73t-63 101t-21.5 112zM1407 479q20 20 63 72.5t99.5 124.5t120 155.5t125 165.5t116 157t90.5 128q12 16 24.5 18.5t21 -6t10.5 -26t-6 -37.5q-39 -92 -83 -193.5t-86 -207t-80 -212 t-67 -204.5q-23 2 -72 10t-104 19.5t-103.5 21.5t-68.5 14zM1817 406q4 14 14 42.5t22.5 60.5t23.5 62.5t17 46.5q10 -23 20.5 -50t16.5 -53t6 -48q0 -23 -8 -35q-16 -20 -53 -23t-59 -3zM1941.5 1736.5q-2.5 -14.5 12.5 -24.5q27 -20 64.5 -47t78.5 -55.5t81 -56t71 -50.5 q8 -8 16 0.5t-4 18.5q-29 27 -62.5 60.5l-68.5 68.5l-66.5 66.5l-56.5 56.5q-12 10 -26.5 6t-25.5 -16.5t-13.5 -27z" />
<glyph unicode="&#xc1;" horiz-adv-x="2250" d="M107.5 282.5q-21.5 -100.5 16.5 -189.5t126 -147.5t209 -54.5q100 4 201.5 44t194.5 98.5t174 126t143.5 128t103.5 105.5t51 58q27 -6 79 -16.5t108.5 -21t106.5 -20.5t73 -12q-6 -29 -21.5 -92.5t-25 -145.5t-9.5 -168q0 -88 25 -161q8 -18 15.5 -15.5t0.5 27.5 q-16 66 -11 154t20.5 170.5t34 146t26.5 80.5q14 0 37.5 1t48.5 6t44 13.5t26 22.5q10 20 5 55t-16.5 72t-24 69t-18.5 48q12 31 40 102.5t65 162.5t80 189.5t86 179.5q6 12 0 22.5t-15.5 18t-18.5 14.5t-9 13q-2 27 -14.5 46.5t-28 28.5t-31.5 6t-25 -20q-41 -63 -94 -145 t-113.5 -171t-124 -179t-123 -171t-112.5 -148.5t-92 -108.5q-131 31 -286.5 53.5t-307.5 24.5t-284 -25t-216 -94q-98 -80 -119.5 -180.5zM146 250q1 57 25 107t73 83q104 70 244.5 92.5t286 14.5t279.5 -34t230 -50q-55 -72 -143 -164t-197.5 -175t-233.5 -139.5 t-253 -56.5q-74 0 -132.5 29t-98.5 75t-60.5 103.5t-19.5 114.5zM1368 494q18 20 60 74.5t96.5 128t116 159.5t122 170t112.5 160t87 129q10 18 22.5 20t20.5 -6t9 -25.5t-7 -39.5q-37 -94 -79 -198.5t-82 -212.5t-76.5 -215.5t-63.5 -207.5q-20 0 -68.5 8t-102.5 18.5 t-101.5 21t-65.5 16.5zM1763 420q4 14 14.5 44t22.5 63.5t23.5 64.5t17.5 49q10 -25 19.5 -54.5t14.5 -56t5 -49.5t-8 -35q-14 -23 -50 -25.5t-59 -0.5zM1841.5 1586.5q6.5 -13.5 20.5 -9.5q37 16 84 33.5t93 35t88 33t73 27.5q16 6 19 20.5t-2 30t-16.5 24.5t-23.5 3 q-29 -14 -70 -37t-87 -48.5t-91 -50t-80 -42.5q-14 -6 -7.5 -19.5z" />
<glyph unicode="&#xc2;" horiz-adv-x="2205" d="M100 238q0 -66 27 -129.5t76 -111.5t116.5 -75.5t149.5 -23.5q102 4 203.5 45t196 101t176 132t145 136.5t104.5 111.5t54 61q27 -6 79 -17t109 -23.5t108.5 -22.5t73.5 -12q-6 -31 -20.5 -98.5t-25.5 -151.5t-11 -176t25 -170q8 -18 16 -15.5t2 27.5q-16 70 -10 162 t21.5 179t33.5 153.5t27 85.5q12 0 36.5 1t49 6t45 14t26.5 24q8 23 3 59.5t-16 75.5t-23.5 72t-18.5 49q12 31 40 106.5t65.5 170.5t80.5 198.5t86 189.5q6 12 1 22.5t-14 18.5t-18.5 15.5t-9.5 15.5q-2 29 -14 49t-28.5 29.5t-33 7.5t-24.5 -21q-41 -68 -95 -153.5 t-114.5 -179t-125 -187.5t-126 -179t-115 -155.5t-94.5 -113.5q-88 20 -188 37.5t-204.5 28.5t-209.5 11q-102 0 -196.5 -11t-174 -38.5t-137.5 -74.5q-68 -55 -98.5 -122t-30.5 -134zM148.5 271.5q1.5 60.5 25 113.5t72.5 86q109 74 251 97.5t289.5 15t283.5 -36t233 -53.5 q-57 -74 -146.5 -171.5t-200 -183.5t-235.5 -146.5t-254 -60.5q-76 0 -135.5 31t-100.5 79t-62.5 108.5t-20 121zM1389 532q18 20 60 77t97.5 132.5t119 165.5t123.5 178.5t113.5 168t88.5 137.5q12 18 24.5 20t19.5 -7t9 -26.5t-8 -42.5q-37 -98 -79 -206.5t-83 -222 t-79 -227.5t-64 -220q-23 2 -72 11t-102.5 20.5t-101.5 23.5t-66 18zM1792 451q4 14 13.5 44.5t21.5 66.5t23.5 68t17.5 50q10 -25 20 -54.5t15.5 -58t5.5 -53.5q0 -23 -8 -35q-14 -23 -51.5 -26.5t-57.5 -1.5zM1864 1642q0 -14 14 0q57 33 104 56t82 33q12 2 60 -35 q16 -16 34.5 -29.5t34.5 -30.5q8 -8 13 -6q4 4 6 5t2 7l-1 4q-1 3 -5 7q-66 76 -100.5 112.5t-39.5 38.5q-2 2 -79 -55q-47 -39 -77 -59.5t-42 -26.5q-4 -8 -5 -11t-1 -10z" />
<glyph unicode="&#xc3;" horiz-adv-x="2148" d="M98 229q0 -66 26 -127t73 -108t113.5 -75t144.5 -23q100 4 200.5 44t191.5 100t172 130t142.5 132.5t101.5 109.5t50 59q25 -6 77 -16.5t108 -22.5t107.5 -22.5t73.5 -12.5q-6 -29 -21.5 -94t-25.5 -148t-10 -173t23 -168q10 -18 17 -15.5t1 25.5q-16 70 -11 161 t20.5 176t33.5 150.5t29 83.5q14 -2 37.5 0t47 7.5t43 14.5t25.5 23q8 20 3 56t-15 74t-22.5 71t-16.5 49q10 29 37 102.5t63.5 167t78.5 195.5t83 188q6 12 2 21.5t-13 18t-18.5 15.5t-11.5 15q-2 27 -13 47.5t-26.5 29.5t-32 6t-26.5 -19q-39 -66 -92 -151t-112.5 -176 t-123 -184.5t-123 -176t-111.5 -151.5t-91 -112q-129 31 -283 53.5t-303.5 23.5t-281.5 -26.5t-214 -97.5q-66 -53 -96.5 -117.5t-30.5 -132.5zM144 261q1 58 25 110.5t73 85.5q104 74 242.5 96t281.5 15t277.5 -34.5t226.5 -54.5q-53 -72 -140.5 -167t-195 -180 t-231 -143.5t-250.5 -56.5q-74 0 -131.5 30t-97.5 77t-60.5 105.5t-19.5 116.5zM1354 518q18 20 59 75.5t95.5 130.5t116 163t120.5 174t110.5 164t86.5 133q12 18 24 21t20.5 -5t9.5 -25.5t-7 -41.5q-37 -96 -78 -203t-81 -218.5t-77 -222t-63 -214.5q-20 2 -68.5 10 t-103 19t-100.5 22.5t-64 17.5zM1751 440q4 14 13.5 44t20.5 64t22.5 65.5t17.5 50.5q10 -27 19 -55.5t15.5 -56.5t6.5 -50q0 -23 -6 -35q-16 -25 -52 -28t-57 1zM1774.5 1676q0.5 -10 23.5 10q23 18 52.5 32.5t64.5 14.5q18 0 47 -12.5t57.5 -26t57 -25.5t47.5 -12 q18 0 34.5 9t32 22.5t29.5 29t25 25.5q14 23 8 30t-27 -12q-20 -23 -38.5 -30t-63.5 -7q-20 0 -49 12.5t-58.5 27t-56.5 26.5t-45 12q-16 0 -34.5 -10t-35 -25.5t-32 -32t-27.5 -28.5q-12 -20 -11.5 -30z" />
<glyph unicode="&#xc4;" horiz-adv-x="2150" d="M37 301q-21 -104 18 -196.5t128 -153t212 -55.5q102 4 203.5 45t195 101t175.5 131t145.5 134.5t104.5 109.5t51 58q27 -4 79 -15t109.5 -22.5t108.5 -21.5t73 -13q-6 -31 -21 -97t-25.5 -150t-9.5 -174.5t24 -167.5q8 -18 16 -15.5t0 27.5q-16 68 -10 159t21.5 177 t33 151.5t25.5 83.5q14 0 38.5 1t49 7.5t44 15.5t25.5 23q8 20 3 56.5t-16 74t-23.5 71.5t-16.5 50q12 31 40 106t66 168t81 195.5t86 188.5q6 14 0.5 23t-14.5 17.5t-19 14.5t-10 14q-2 29 -13.5 49.5t-27 29.5t-32 6t-26.5 -21q-41 -66 -95 -151t-115.5 -177t-125 -185 t-124 -177t-113.5 -153t-92 -112q-133 31 -291 53.5t-310.5 23.5t-285.5 -25.5t-219 -96.5q-100 -82 -121 -186zM77 266.5q1 59.5 24.5 112.5t72.5 86q106 72 248.5 94.5t289 15t281.5 -34t232 -53.5q-55 -74 -144.5 -170t-200 -182t-235.5 -144.5t-254 -58.5q-76 0 -134 30 t-99 78t-61.5 107.5t-19.5 119zM1311 520q18 23 60 78t96.5 131t118 165t123.5 176t113.5 166t88.5 136q10 18 22.5 20.5t20.5 -7t10 -28t-6 -40.5q-39 -96 -81 -203.5t-83 -219.5t-79 -224.5t-64 -216.5q-20 0 -68.5 9t-103 20.5t-102.5 22.5t-66 15zM1710 444 q4 12 14.5 43t21.5 66t22.5 67.5t17.5 51.5q23 -53 37 -112.5t-2 -88.5q-16 -23 -53 -26t-58 -1zM1826 1727.5q1 -17.5 3 -37t6 -37t8 -23.5t19.5 -4t31 9t27.5 17.5t12 18.5q0 6 -1 23.5t-2 37t-4 36t-7 20.5q-6 6 -18.5 4t-26.5 -9t-27.5 -16.5t-17.5 -15.5t-3 -23.5z M2028 1726q0 -16 2 -35.5t6 -38t8 -24.5q6 -6 22.5 -4t32 9t27.5 16.5t12 17.5t-1 25.5t-3 37t-5 36t-9 20.5q-4 6 -16.5 3t-28 -9t-27.5 -15.5t-16 -15.5t-4 -23z" />
<glyph unicode="&#xc5;" horiz-adv-x="2181" d="M109.5 304.5q-21.5 -105.5 18.5 -198t130 -154t213 -56.5q102 4 204.5 45t196 102t176 132t146 134.5t105.5 111.5t53 60q27 -6 80 -17t110 -23.5t108.5 -22.5t73.5 -12q-6 -31 -21 -97.5t-25.5 -150.5t-10.5 -174q0 -92 23 -170q10 -18 17 -15.5t3 25.5q-16 70 -11 162 t20.5 179t34 153.5t26.5 84.5q14 0 38.5 1.5t49 6.5t44 14t25.5 24q8 23 3 58.5t-15 74.5t-22.5 71.5t-18.5 48.5q12 31 41 106t66 170t81 198.5t87 189.5q8 12 1.5 22.5t-15.5 18.5t-19 15.5t-10 13.5q-2 29 -14.5 50t-28 30.5t-33 6.5t-27.5 -22q-41 -68 -95 -152.5 t-115.5 -177t-126 -186.5t-125 -179t-114 -155.5t-91.5 -113.5q-133 33 -291 55t-312.5 23t-290 -26.5t-221.5 -96.5q-100 -82 -121.5 -187.5zM148.5 270.5q1.5 59.5 26 112.5t73.5 86q72 49 160 74.5t185 34t196.5 2t192.5 -19.5t177 -32.5t148 -35.5 q-57 -74 -146.5 -170.5t-200 -182.5t-236.5 -145.5t-255 -59.5q-76 0 -136.5 30t-101.5 78t-62.5 108.5t-20 120zM1393 528q18 20 60 77t97.5 132.5t119 164.5t123.5 177t114.5 168t89.5 135q23 35 43 14.5t4 -69.5q-39 -98 -81 -206.5t-84 -220.5t-79 -224.5t-65 -218.5 q-20 0 -69.5 9t-104 20.5t-102.5 23.5t-66 18zM1800 449q2 14 11.5 44.5t20.5 65.5t22.5 66.5t17.5 50.5q12 -25 22.5 -54.5t16.5 -57t6 -52.5q0 -23 -8 -35q-16 -23 -53 -27t-56 -1zM1995 1714q0 -37 24.5 -63.5t59.5 -26.5t59.5 26.5t24.5 63.5q0 41 -24.5 71t-59.5 30 t-59.5 -30t-24.5 -71zM2011 1714q0 35 19.5 56.5t48.5 21.5q27 0 46 -21.5t19 -56.5q0 -29 -19 -49t-46 -20q-29 0 -48.5 20.5t-19.5 48.5z" />
<glyph unicode="&#xc6;" horiz-adv-x="1761" d="M-55 6q0 -25 7 -45t17 -20q12 0 27 41q27 70 65.5 148.5t83.5 159.5t95.5 160.5t99.5 151.5l4 2q72 41 172 78t205.5 65.5t206 46t174.5 21.5l10 -14q-27 -66 -58.5 -149t-59 -168t-47 -162.5t-19.5 -128.5v-17q2 -33 7 -70.5t17.5 -69.5t33 -54.5t48.5 -22.5 q16 -2 31 -2h31q70 0 149.5 7t152 17.5t130 24.5t82.5 31q23 14 30 24.5t7 16.5q0 4 -7 4q-10 0 -22 -6h-2q-20 -10 -59 -20.5t-90.5 -17.5t-109 -11t-112.5 -4q-66 0 -124 6t-99 20q-41 10 -52.5 20.5t-11.5 41.5v18t3 25q0 4 1 6t1 6v2q6 61 28.5 141t55 166t68.5 173 t71 161l8 6q51 12 126 20.5t146 8.5q41 0 76 -3t60 -12h2q6 -2 12 -2q14 0 14 7q0 10 -31 16q-35 8 -94 10t-121 2h-79q-39 0 -72 -2l-10 14q29 61 63.5 132t74.5 144t85 142.5t92 124.5l4 4q61 27 154.5 44.5t179.5 17.5q84 0 137 -19q53 -23 53 -65q0 -23 -8 -41t-8 -27 q10 2 35 33v-2q10 20 10 39q0 20 -9 39.5t-21.5 36t-26 28t-21.5 17.5q-18 10 -58 13t-89 3q-59 0 -124 -5t-110 -13l-12 8q-4 18 -19.5 25.5t-31.5 7.5q-4 0 -12.5 -2.5t-18.5 -4.5q-14 -8 -43 -53t-61 -100l-19 10q6 18 6 31q0 33 -19.5 58.5t-47 44t-59 27.5t-58.5 9 q-4 0 -8 -1t-8 -1q-61 -14 -156.5 -85t-212.5 -189.5t-251 -277.5t-271 -347l-4 -4q-27 -12 -63 -33.5t-56 -38.5q-20 -14 -27.5 -31.5t-7.5 -35.5q0 -37 14 -56v-12q-23 -35 -54.5 -86t-65 -109.5t-65.5 -119t-54 -113.5q-6 -18 -6 -35zM434 729q88 123 184.5 246 t193.5 228.5t192.5 186t185.5 121.5q20 10 48 18.5t56 8.5q35 0 59.5 -15.5t24.5 -58.5q0 -4 -1 -9t-1 -9v-2q-16 -92 -57 -187.5t-94 -201.5q-23 -47 -47.5 -98.5t-47.5 -104.5l-8 -6q-10 -2 -22 -2q-10 0 -21 -2q-61 -6 -139 -15.5t-162 -24t-170 -37t-162 -52.5z" />
<glyph unicode="&#xc7;" horiz-adv-x="1888" d="M41 410q0 -188 197 -306q45 -29 95 -49t103 -37q-27 -16 -51.5 -34.5t-40.5 -34.5t14 -29q61 -14 86 -43t2 -70q-10 -16 -33.5 -33.5t-53 -33.5t-62.5 -27.5t-64 -13.5q-23 0 -20.5 -13.5t29.5 -13.5q39 4 81 17.5t79.5 32t67.5 39t42 38.5q18 31 14 55.5t-19 43t-38 29 t-37 14.5q-14 6 -13 13t7 15q10 10 20.5 21.5t22.5 19.5q89 -14 193 -18q156 -4 316.5 31.5t332.5 107.5q317 133 510 326q12 14 12 22q0 10 -8 10q-10 0 -23 -14q-96 -88 -219 -160.5t-276 -136.5q-166 -66 -326 -101.5t-317 -39.5q-270 -6 -420 102q-131 94 -131 246 q0 53 16 100q96 313 522 633q401 301 750 367q29 4 54.5 6t49.5 2q166 0 203 -82q-45 -47 -88 -106.5t-90 -130.5q-115 -186 -115 -300q0 -8 31 -14q31 -4 37 0q115 68 200 168q72 82 98.5 152.5t26.5 150.5q0 82 -28 117q27 29 26 39q0 12 -8 14q-14 4 -16 -6l-27 -27 q-68 61 -223 62q-53 0 -111 -6q-215 -27 -544 -203q-172 -94 -314.5 -198.5t-259.5 -221.5q-262 -268 -262 -491zM1466 915q27 111 101 244q37 72 74.5 125t76.5 94q20 -35 21 -92q0 -66 -27 -127q-72 -166 -223 -262q-8 -6 -19 0q-6 4 -4 18z" />
<glyph unicode="&#xc8;" horiz-adv-x="1212" d="M-163 1289.5q-1 -15.5 7.5 -27t26.5 -7.5q37 8 88 12.5t102.5 3.5t96.5 -4t69 -5q16 -4 18.5 9t-7.5 17q-8 4 -10.5 10.5t-12.5 10.5q-20 4 -16 15t18 15q76 16 165 23.5t183 9.5q-45 -51 -96 -123.5t-101.5 -152.5t-96.5 -163t-83 -153q-27 -8 -58.5 -14t-55.5 -14 q-20 -6 -27.5 -17.5t-4.5 -24t13.5 -23.5t26.5 -17q16 -10 29.5 -15.5t29.5 -5.5q-35 -92 -56.5 -194.5t-16.5 -202.5q6 -80 35.5 -141.5t75.5 -102.5t103.5 -61.5t114.5 -18.5q102 0 203.5 32t193 78t168 99t130.5 101q14 10 10 23t-21 3q-55 -35 -132 -78t-168 -80.5 t-191.5 -65.5t-200.5 -30q-55 0 -102 12.5t-81 41t-54.5 77.5t-20.5 123q-2 113 31 223.5t80 208.5q49 8 124.5 20.5t163.5 24t183.5 18.5t184.5 8t166 -6t128 -28q25 -10 34 -2t5 21.5t-18.5 27t-32.5 17.5q-86 20 -201 25t-239 0t-245.5 -15t-218.5 -23q29 53 78 134 t107.5 166t119 164t109.5 130q66 6 137 6q72 0 144.5 -6t140.5 -18t123 -31q23 -12 35 -42t-4 -64q-41 -78 -93.5 -119t-115.5 -74q-14 -10 -13.5 -25.5t23.5 -7.5q78 27 147.5 71t92.5 85q18 25 20 58.5t-7 66.5t-26.5 57.5t-40.5 34.5q-94 39 -217 52.5t-250 23.5 q-2 18 -11 38.5t-22.5 34t-29.5 18.5t-33 -7q-47 -35 -86 -100q-78 -4 -174 -11.5t-194.5 -17.5t-193.5 -26.5t-169 -39.5q-16 -2 -25.5 -16t-10.5 -29.5zM459 1952.5q-2 -15.5 10 -25.5q27 -23 65.5 -50.5t79.5 -56t81 -57t71 -51.5q10 -6 17 1.5t-3 19.5 q-29 27 -63.5 60.5t-69.5 68t-67.5 67.5t-57.5 58q-12 12 -26.5 9t-24.5 -15.5t-12 -28z" />
<glyph unicode="&#xc9;" horiz-adv-x="1222" d="M-151 1236q-1 -15 7.5 -25.5t26.5 -8.5q37 8 88.5 12.5t100.5 4.5q51 0 96 -3.5t70 -5.5q14 -6 17 8.5t-9 20.5q-6 2 -8 7t-15 9q-16 4 -13 15.5t15 15.5q76 14 165 20.5t183 8.5q-45 -49 -96 -118t-100 -146.5t-95 -157.5t-81 -148q-29 -4 -60.5 -12t-54.5 -12 q-20 -6 -27.5 -17.5t-5.5 -23.5t12.5 -22.5t26.5 -16.5q16 -10 30.5 -14t31.5 -4q-35 -90 -57.5 -188.5t-18.5 -194.5q6 -78 35.5 -137.5t76 -98.5t102.5 -58.5t114 -17.5q102 0 203.5 31t192.5 75t168 96t130 95q14 10 9 22.5t-22 2.5q-53 -33 -129.5 -74t-167 -78 t-190.5 -62.5t-201 -27.5q-55 0 -102 11.5t-82 39t-54.5 74.5t-19.5 117q-2 111 30 217t79 197q49 10 125 21t164 22.5t183 18.5t184 8t165 -6t127 -26q25 -8 34 -0.5t5 19.5t-17.5 25.5t-31.5 17.5q-84 18 -200 22.5t-239.5 0t-244.5 -14.5t-217 -22q27 53 76 130.5 t107 158.5t118.5 158t109.5 126q66 6 138.5 5t143.5 -7t138.5 -18.5t122.5 -30.5q23 -10 35 -38t-4 -63q-41 -72 -93.5 -112.5t-115.5 -69.5q-14 -12 -12 -26.5t24 -4.5q37 12 75 30t70.5 37t57.5 40t35 39q18 25 20 57.5t-6 63t-26.5 55.5t-40.5 33q-94 37 -215 51t-250 25 q-2 18 -11.5 37.5t-22.5 31.5t-29.5 16.5t-33.5 -8.5q-49 -37 -86 -94q-78 -6 -173 -12t-193.5 -16.5t-192.5 -25.5t-168 -36q-16 -4 -25.5 -17.5t-10.5 -28.5zM508 1596.5q6 -11.5 18 -3.5q39 14 88.5 31.5t97.5 34t92 31t77 24.5q16 6 19 20.5t-2 28t-16.5 22.5t-25.5 3 q-29 -14 -72 -36.5t-90 -47.5t-94 -48.5t-84 -39.5q-14 -8 -8 -19.5z" />
<glyph unicode="&#xca;" horiz-adv-x="1230" d="M-144 1243q-1 -14 7 -24.5t26 -6.5q37 8 87.5 11.5t99.5 3.5q51 0 96 -3t72 -5q16 -4 18 8t-10 16q-6 4 -8 10.5t-17 10.5q-18 4 -15 14t17 14q78 16 165 23.5t184 9.5q-47 -49 -97.5 -119.5t-100.5 -148.5t-95 -158t-82 -149q-29 -4 -59.5 -10.5t-53.5 -14.5 q-20 -6 -27.5 -17.5t-4.5 -23.5t13.5 -22.5t24.5 -16.5q33 -18 62 -18q-35 -90 -57.5 -189.5t-16.5 -193.5q4 -80 35 -139.5t77 -99.5t102 -59.5t112 -17.5q100 0 200.5 31t191.5 75t166.5 96t131.5 95q14 14 9 25.5t-22 1.5q-55 -33 -130.5 -75t-166 -79t-188.5 -62.5 t-199 -27.5q-55 0 -102 11.5t-81 40t-53.5 74.5t-21.5 118q-2 111 31 218.5t80 199.5q49 8 123 19t162 22.5t182 18.5t183 8t165 -6t127 -27q25 -8 33 0t4 20t-16.5 26.5t-30.5 18.5q-86 18 -201 22.5t-237.5 0t-242.5 -14.5t-214 -22q27 51 75 129t105 159.5t116.5 158.5 t108.5 128q66 6 138 6q74 0 144.5 -6t137 -18.5t121.5 -30.5q23 -10 36 -39t-5 -63q-41 -74 -92.5 -115t-112.5 -72q-12 -10 -11 -24.5t21 -3.5q37 12 75 28.5t70.5 36t57.5 41t35 41.5q16 25 19 57.5t-6 63.5t-26.5 55.5t-42.5 34.5q-92 37 -213.5 49t-246.5 23 q-2 18 -11.5 37.5t-23.5 34t-30.5 18.5t-33.5 -8q-45 -37 -84 -97q-78 -4 -172 -11t-192 -17.5t-191.5 -25.5t-167.5 -38q-16 -2 -25 -16.5t-10 -28.5zM485 1661q0 -8 4 -8q6 0 13 6q57 29 103 50.5t85 31.5q10 2 60 -33q18 -12 37.5 -26.5t35.5 -28.5q6 -6 11 -4l6 3t2 7 q0 4 -6 10q-131 135 -142 139q-4 4 -82 -51q-47 -35 -76.5 -54.5t-41.5 -27.5q-8 -8 -9 -14z" />
<glyph unicode="&#xcb;" horiz-adv-x="1224" d="M-148.5 1234q-1.5 -15 7 -26.5t26.5 -7.5q37 8 87.5 12.5t101.5 4.5t96 -2.5t70 -4.5q16 -8 18 5.5t-10 19.5q-6 4 -8 9t-15 9q-18 4 -15 15.5t17 15.5q78 14 166 20.5t180 8.5q-45 -49 -95 -119t-99 -146.5t-95 -155.5t-83 -149q-29 -4 -59.5 -11t-55.5 -13 q-41 -12 -33 -40t39 -40q18 -10 32.5 -15.5t31.5 -5.5q-35 -88 -58.5 -185t-19.5 -191q6 -80 35.5 -139.5t76 -98.5t103.5 -58.5t115 -17.5q102 0 202.5 30t190.5 75t166.5 96t132.5 94q14 14 9 25.5t-22 1.5q-55 -33 -130.5 -74t-166 -78t-189.5 -63.5t-200 -28.5 q-55 0 -102 11.5t-82 40t-54.5 74.5t-19.5 118q-2 111 30 216t79 198q49 8 125 20t164 22.5t183 18.5t183 9t165 -7t128 -27q25 -8 33 -0.5t4 19.5t-16.5 26.5t-30.5 18.5q-86 18 -202 22.5t-238.5 0t-243.5 -15.5t-215 -23q27 51 75 128.5t105 159.5t117.5 159t109.5 128 q66 4 138 4q74 0 144.5 -6t138 -18.5t122.5 -30.5q23 -10 35 -38t-4 -63q-41 -74 -92.5 -114.5t-114.5 -69.5q-12 -12 -11 -26.5t21 -6.5q78 27 146.5 68t91.5 82q18 25 20 56.5t-6 62t-25.5 55.5t-41.5 33q-94 37 -216 50t-249 23q-2 18 -11.5 39t-22.5 34t-29.5 16.5 t-33.5 -9.5q-23 -16 -44 -40.5t-42 -53.5q-78 -6 -173 -12t-193.5 -16.5t-191.5 -26t-167 -35.5q-16 -4 -25 -17.5t-10.5 -28.5zM566 1733.5q1 -15.5 3 -33t6.5 -33.5t8.5 -22t19 -4.5t31.5 9t29 16.5t12.5 15t-1 22.5t-3 35t-5 34t-8 19.5q-6 6 -18 3t-26.5 -9t-28 -15.5 t-17.5 -15.5t-3 -21.5zM774 1731q0 -14 2 -32t5 -34t7 -23q6 -6 22.5 -4t33 9.5t29 16.5t12.5 15t-1 22.5t-3 34t-5.5 33t-7.5 19.5q-4 6 -17 4t-28.5 -9t-29 -15.5t-15.5 -14.5q-4 -6 -4 -22z" />
<glyph unicode="&#xcc;" horiz-adv-x="1218" d="M-182 -25q0 -72 14 -142.5t47 -125.5t81 -87t114 -28q90 6 165.5 54.5t136 111t104.5 127t71 103.5q53 78 110.5 196.5t115 254.5t110.5 278.5t96 266.5t72.5 218t40.5 135q27 29 45 62t35 65q6 14 10 33t2 34t-8 22.5t-21 0.5q-16 -8 -30.5 -30.5t-28 -52t-25.5 -62.5 t-24 -63q-49 -43 -115 -94.5t-131.5 -109t-126 -122t-98.5 -133.5q-35 -53 -52.5 -129t-25.5 -135q-2 -31 9 -36t15 36q6 61 35 123.5t55 109.5q43 70 97.5 135.5t112 121.5t112.5 103.5t96 77.5q-27 -100 -67.5 -219t-90 -243.5t-101.5 -247.5t-101 -230.5t-91 -192.5 t-69 -132q-25 -41 -71 -110t-106.5 -134.5t-128 -114.5t-134.5 -53q-88 -4 -137.5 56.5t-66.5 150.5t-6 195.5t42 195.5q10 29 3.5 34t-24.5 -22q-33 -47 -50 -113.5t-17 -138.5zM897 1966q-2 -14 10 -24q29 -20 67 -47t79 -56t79.5 -56.5t69.5 -49.5q10 -6 18.5 1t-3.5 17 q-29 27 -63 60.5t-68.5 68.5t-66.5 66.5t-56 56.5q-12 10 -27.5 6t-26 -16.5t-12.5 -26.5z" />
<glyph unicode="&#xcd;" horiz-adv-x="1298" d="M-182 -25q0 -72 14 -142.5t47 -125.5t81 -87t114 -28q90 6 165.5 54.5t136 111t104.5 127t71 103.5q53 78 110.5 196.5t115 254.5t110.5 278.5t96 266.5t72.5 218t40.5 135q27 29 45 62t35 65q6 14 10 33t2 34t-8 22.5t-21 0.5q-16 -8 -30.5 -30.5t-28 -52t-25.5 -62.5 t-24 -63q-49 -43 -115 -94.5t-131.5 -109t-126 -122t-98.5 -133.5q-35 -53 -52.5 -129t-25.5 -135q-2 -31 9 -36t15 36q6 61 35 123.5t55 109.5q43 70 97.5 135.5t112 121.5t112.5 103.5t96 77.5q-27 -100 -67.5 -219t-90 -243.5t-101.5 -247.5t-101 -230.5t-91 -192.5 t-69 -132q-25 -41 -71 -110t-106.5 -134.5t-128 -114.5t-134.5 -53q-88 -4 -137.5 56.5t-66.5 150.5t-6 195.5t42 195.5q10 29 3.5 34t-24.5 -22q-33 -47 -50 -113.5t-17 -138.5zM1006 1717.5q6 -13.5 20 -9.5q37 16 84 33.5t93 35t88 33t71 27.5q16 6 20 20.5t-1 30 t-17 24.5t-25 3q-29 -14 -69.5 -38t-85.5 -48.5l-90 -49t-80 -42.5q-14 -6 -8 -19.5z" />
<glyph unicode="&#xce;" horiz-adv-x="1257" d="M-182 -25q0 -72 14 -142.5t47 -125.5t81 -87t114 -28q90 6 165.5 54.5t136 111t104.5 127t71 103.5q53 78 110.5 196.5t115 254.5t110.5 278.5t96 266.5t72.5 218t40.5 135q27 29 45 62t35 65q6 14 10 33t2 34t-8 22.5t-21 0.5q-16 -8 -30.5 -30.5t-28 -52t-25.5 -62.5 t-24 -63q-49 -43 -115 -94.5t-131.5 -109t-126 -122t-98.5 -133.5q-35 -53 -52.5 -129t-25.5 -135q-2 -31 9 -36t15 36q6 61 35 123.5t55 109.5q43 70 97.5 135.5t112 121.5t112.5 103.5t96 77.5q-27 -100 -67.5 -219t-90 -243.5t-101.5 -247.5t-101 -230.5t-91 -192.5 t-69 -132q-25 -41 -71 -110t-106.5 -134.5t-128 -114.5t-134.5 -53q-88 -4 -137.5 56.5t-66.5 150.5t-6 195.5t42 195.5q10 29 3.5 34t-24.5 -22q-33 -47 -50 -113.5t-17 -138.5zM961 1696q0 -14 14 0q57 33 103 55.5t81 32.5q16 4 62 -33q16 -16 34.5 -30.5t34.5 -30.5 q6 -6 13 -4l6 3t2 7l-1 4t-5 8q-66 74 -101 110.5t-39 41.5q-4 4 -80 -58q-47 -37 -76.5 -57.5t-41.5 -28.5q-4 -6 -5 -9t-1 -11z" />
<glyph unicode="&#xcf;" horiz-adv-x="1218" d="M-182 -25q0 -72 14 -142.5t47 -125.5t81 -87t114 -28q90 6 165.5 54.5t136 111t104.5 127t71 103.5q53 78 110.5 196.5t115 254.5t110.5 278.5t96 266.5t72.5 218t40.5 135q27 29 45 62t35 65q6 14 10 33t2 34t-8 22.5t-21 0.5q-16 -8 -30.5 -30.5t-28 -52t-25.5 -62.5 t-24 -63q-49 -43 -115 -94.5t-131.5 -109t-126 -122t-98.5 -133.5q-35 -53 -52.5 -129t-25.5 -135q-2 -31 9 -36t15 36q6 61 35 123.5t55 109.5q43 70 97.5 135.5t112 121.5t112.5 103.5t96 77.5q-27 -100 -67.5 -219t-90 -243.5t-101.5 -247.5t-101 -230.5t-91 -192.5 t-69 -132q-25 -41 -71 -110t-106.5 -134.5t-128 -114.5t-134.5 -53q-88 -4 -137.5 56.5t-66.5 150.5t-6 195.5t42 195.5q10 29 3.5 34t-24.5 -22q-33 -47 -50 -113.5t-17 -138.5zM992 1804.5q1 -16.5 3 -36t6.5 -37t8.5 -23.5t19 -4t30.5 9t28 17.5t12.5 18.5q0 6 -1 23.5 t-2 36t-4 35t-8 22.5q-6 6 -19 4t-27.5 -9.5t-27 -17.5t-16.5 -16t-3 -22.5zM1194 1802q0 -16 2 -35.5t6 -37t8 -23.5q6 -6 21.5 -4t32 9t29 16.5t12.5 15.5q0 8 -1 25.5t-3.5 37t-5.5 36t-9 22.5q-4 6 -16.5 3t-27.5 -10.5t-27.5 -16.5t-16.5 -15t-4 -23z" />
<glyph unicode="&#xd0;" horiz-adv-x="1120" d="M-87 705q3 -11 26 18q23 25 55.5 46.5t66.5 27.5q16 4 38 0t51 -13q-12 -174 -17.5 -313t-5.5 -227q4 -10 -3 -6t-15 4q-16 8 -23.5 10t-9.5 3t-3 3t-7 10q-18 14 -37 15q-16 0 -25.5 -10.5t-8.5 -27t21 -30.5q23 -23 41.5 -36t53.5 -34q2 -4 3 -9t11 -15q2 -12 1 -16.5 t-2 -6.5t-1 -6t6 -16q4 -12 34 -16.5t46 12.5q25 12 33 4q53 -18 112.5 -38t122 -33t128 -16t132.5 11q106 18 175 71.5t108 123t52 148.5t9 151q-16 190 -77.5 362t-145.5 312.5t-180 244t-182 158.5q-49 23 -77 29t-52 2q-18 4 -23.5 5t0.5 17q10 18 10 31q0 12 -7 15 t-18.5 -2t-21.5 -19q-57 -82 -84 -183q-23 -104 -39 -270t-30 -346h2v-2h-2v2q-33 10 -62 17t-45 3t-33.5 -18t-34 -33.5t-31 -41t-24.5 -36.5q-14 -25 -11 -36zM215 434q-4 152 2 330l98 -16q18 4 35 18t31 32.5t26.5 37t20.5 32.5q16 25 7 34t-25 -19q-20 -27 -40 -40.5 t-69 -17.5q-16 -6 -36.5 -3t-43.5 9q10 174 23.5 331t52.5 292q29 47 69 68.5t101 -0.5q45 -20 105.5 -75.5t122 -134.5t118.5 -178.5t100 -209t64.5 -224t11.5 -225.5q-6 -53 -18.5 -111.5t-39 -111.5t-74.5 -96t-124 -66q-55 -16 -125.5 -14t-139.5 15t-129 36t-97 45 q-10 4 -13.5 6t-3.5 10q-6 94 -10 246z" />
<glyph unicode="&#xd1;" horiz-adv-x="1515" d="M-10 20q10 -12 30 -12t43 10.5t29 24.5q43 90 125 206t186.5 238.5t224.5 245.5t237.5 227.5t225 182.5t189.5 112q70 29 96.5 -10t-20.5 -137q-37 -84 -112 -225.5t-166 -313.5t-188 -357t-180 -355t-140.5 -311.5t-67.5 -223.5q-4 -33 5 -55.5t24.5 -35.5t36 -16 t40.5 1q33 6 70 24.5t72.5 42t67.5 49t54 47.5q27 25 34 37.5t2 14.5t-19.5 -7.5t-32.5 -27.5q-14 -14 -36.5 -30.5t-46 -30t-45 -24.5t-34.5 -18q-23 -8 -30 -13t-15 -6t-23.5 2t-52.5 11q-29 6 -11 80t69 190.5t125.5 268t161 315.5t174.5 328t164.5 306.5t134 253 t79.5 167.5q10 25 9.5 54.5t-17 52t-47.5 33t-80 -4.5q-63 -18 -144 -68.5t-170 -120t-182.5 -153.5t-180.5 -171t-163.5 -171t-134.5 -153q-18 -23 -29.5 -27t-16.5 4t-3 23.5t13 33.5q43 76 101 180.5t114.5 214t103.5 212t72 172.5q20 61 23 105t-18.5 65.5t-70.5 22.5 t-131 -23q-53 -16 -131 -58.5t-151.5 -100.5t-132 -129t-72.5 -145q-10 -59 1 -95t19 -56q10 -23 20.5 -22t12.5 26q2 27 -1 61.5t11 73.5q12 33 49 92.5t94.5 122t130 116.5t158.5 77q63 16 95 -24t10 -126q-14 -57 -53 -145t-93.5 -194.5t-119 -225.5t-130 -235.5 t-128 -226t-111.5 -200.5q-16 -31 -6 -43zM852 1682q2 -10 25 10q23 18 53.5 32.5t64.5 14.5q20 0 51 -12.5t62 -25.5t59.5 -25.5t49.5 -12.5q18 0 35.5 9t32.5 23.5t28.5 29t23.5 26.5q16 23 10 30t-26 -12q-23 -25 -40 -31.5t-64 -6.5q-23 0 -52.5 12t-60.5 25.5 t-59.5 25.5t-49.5 12q-35 0 -71.5 -33.5t-59.5 -60.5q-14 -20 -12 -30z" />
<glyph unicode="&#xd2;" horiz-adv-x="1785" d="M29 475q0 -217 168 -354q145 -119 354 -127q227 -12 481 104q137 63 252 146.5t207 189.5q215 248 260 547q2 10 3 23.5t1 27.5q0 180 -119 352q-143 207 -381 244q-78 12 -153 12q-203 0 -387 -73q-199 -84 -318 -224q-106 -125 -106 -243q0 -29 6 -60 q-189 -188 -244 -387q-10 -47 -17 -91t-7 -87zM66 481q0 41 5 83t17 87q25 82 90 197q35 55 65.5 94t59.5 66q23 -68 96 -123q39 -29 79 -44.5t87 -17.5q31 -6 31 15q0 14 -23 14q-80 0 -159 57q-74 59 -82 127q80 115 338 248q297 158 542 158q59 0 115 -12q23 -6 23 14 q-1 12 -21 14q-29 4 -57.5 7t-59.5 3q-229 0 -503 -131q-121 -57 -215.5 -121.5t-167.5 -136.5q-4 20 -4 41q0 100 100 207q113 119 295 191q193 80 391 79q31 0 60.5 -2t58.5 -6q125 -20 219 -68t160 -132q115 -145 114 -345q0 -248 -194 -487q-178 -221 -459 -369 q-274 -143 -516 -131q-229 10 -357 122t-128 302zM752 2044q-2 -14 10 -23q27 -20 64.5 -45.5t77.5 -53.5t80 -53.5t71 -45.5q8 -6 16 1t-4 17q-27 25 -60.5 56.5t-68.5 64.5t-67.5 62.5t-55.5 52.5q-12 10 -26.5 6t-24.5 -14.5t-12 -24.5z" />
<glyph unicode="&#xd3;" horiz-adv-x="1785" d="M29 475q0 -217 168 -354q145 -119 354 -127q227 -12 481 104q137 63 252 146.5t207 189.5q215 248 260 547q2 10 3 23.5t1 27.5q0 180 -119 352q-143 207 -381 244q-78 12 -153 12q-203 0 -387 -73q-199 -84 -318 -224q-106 -125 -106 -243q0 -29 6 -60 q-189 -188 -244 -387q-10 -47 -17 -91t-7 -87zM66 481q0 41 5 83t17 87q25 82 90 197q35 55 65.5 94t59.5 66q23 -68 96 -123q39 -29 79 -44.5t87 -17.5q31 -6 31 15q0 14 -23 14q-80 0 -159 57q-74 59 -82 127q80 115 338 248q297 158 542 158q59 0 115 -12q23 -6 23 14 q-1 12 -21 14q-29 4 -57.5 7t-59.5 3q-229 0 -503 -131q-121 -57 -215.5 -121.5t-167.5 -136.5q-4 20 -4 41q0 100 100 207q113 119 295 191q193 80 391 79q31 0 60.5 -2t58.5 -6q125 -20 219 -68t160 -132q115 -145 114 -345q0 -248 -194 -487q-178 -221 -459 -369 q-274 -143 -516 -131q-229 10 -357 122t-128 302zM724 1856.5q5 -11.5 19 -7.5q39 14 86.5 30.5t95.5 32t91 30t74 24.5q16 6 19 19.5t-2 28t-16.5 23.5t-25.5 3q-29 -14 -71 -36t-88 -45.5t-91 -46t-82 -38.5q-14 -6 -9 -17.5z" />
<glyph unicode="&#xd4;" horiz-adv-x="1785" d="M29 475q0 -217 168 -354q145 -119 354 -127q227 -12 481 104q137 63 252 146.5t207 189.5q215 248 260 547q2 10 3 23.5t1 27.5q0 180 -119 352q-143 207 -381 244q-78 12 -153 12q-203 0 -387 -73q-199 -84 -318 -224q-106 -125 -106 -243q0 -29 6 -60 q-189 -188 -244 -387q-10 -47 -17 -91t-7 -87zM66 481q0 41 5 83t17 87q25 82 90 197q35 55 65.5 94t59.5 66q23 -68 96 -123q39 -29 79 -44.5t87 -17.5q31 -6 31 15q0 14 -23 14q-80 0 -159 57q-74 59 -82 127q80 115 338 248q297 158 542 158q59 0 115 -12q23 -6 23 14 q-1 12 -21 14q-29 4 -57.5 7t-59.5 3q-229 0 -503 -131q-121 -57 -215.5 -121.5t-167.5 -136.5q-4 20 -4 41q0 100 100 207q113 119 295 191q193 80 391 79q31 0 60.5 -2t58.5 -6q125 -20 219 -68t160 -132q115 -145 114 -345q0 -248 -194 -487q-178 -221 -459 -369 q-274 -143 -516 -131q-229 10 -357 122t-128 302zM784 1872q0 -12 17 -2q108 57 186 80q10 2 62 -33q16 -12 34.5 -24.5t34.5 -26.5q6 -6 10 -4q8 4 9 8q0 2 -7 12q-129 125 -139 131q-2 4 -82 -49q-47 -33 -76.5 -51.5t-41.5 -24.5q-6 -10 -7 -16z" />
<glyph unicode="&#xd5;" horiz-adv-x="1785" d="M29 475q0 -217 168 -354q145 -119 354 -127q227 -12 481 104q137 63 252 146.5t207 189.5q215 248 260 547q2 10 3 23.5t1 27.5q0 180 -119 352q-143 207 -381 244q-78 12 -153 12q-203 0 -387 -73q-199 -84 -318 -224q-106 -125 -106 -243q0 -29 6 -60 q-189 -188 -244 -387q-10 -47 -17 -91t-7 -87zM66 481q0 41 5 83t17 87q25 82 90 197q35 55 65.5 94t59.5 66q23 -68 96 -123q39 -29 79 -44.5t87 -17.5q31 -6 31 15q0 14 -23 14q-80 0 -159 57q-74 59 -82 127q80 115 338 248q297 158 542 158q59 0 115 -12q23 -6 23 14 q-1 12 -21 14q-29 4 -57.5 7t-59.5 3q-229 0 -503 -131q-121 -57 -215.5 -121.5t-167.5 -136.5q-4 20 -4 41q0 100 100 207q113 119 295 191q193 80 391 79q31 0 60.5 -2t58.5 -6q125 -20 219 -68t160 -132q115 -145 114 -345q0 -248 -194 -487q-178 -221 -459 -369 q-274 -143 -516 -131q-229 10 -357 122t-128 302zM653.5 1849q1.5 -9 24.5 11q23 16 53.5 28.5t65.5 12.5q20 0 50 -11.5t60.5 -24t59 -23.5t49.5 -11q35 0 67.5 29.5t53.5 50.5q16 20 10 26.5t-27 -10.5q-23 -23 -40 -29t-64 -6q-20 0 -50 11.5t-61 23.5t-59.5 23.5 t-48.5 11.5q-16 0 -35 -9t-36 -22.5t-32.5 -28t-25.5 -26.5q-16 -18 -14.5 -27z" />
<glyph unicode="&#xd6;" horiz-adv-x="1785" d="M29 475q0 -217 168 -354q145 -119 354 -127q227 -12 481 104q137 63 252 146.5t207 189.5q215 248 260 547q2 10 3 23.5t1 27.5q0 180 -119 352q-143 207 -381 244q-78 12 -153 12q-203 0 -387 -73q-199 -84 -318 -224q-106 -125 -106 -243q0 -29 6 -60 q-189 -188 -244 -387q-10 -47 -17 -91t-7 -87zM66 481q0 41 5 83t17 87q25 82 90 197q35 55 65.5 94t59.5 66q23 -68 96 -123q39 -29 79 -44.5t87 -17.5q31 -6 31 15q0 14 -23 14q-80 0 -159 57q-74 59 -82 127q80 115 338 248q297 158 542 158q59 0 115 -12q23 -6 23 14 q-1 12 -21 14q-29 4 -57.5 7t-59.5 3q-229 0 -503 -131q-121 -57 -215.5 -121.5t-167.5 -136.5q-4 20 -4 41q0 100 100 207q113 119 295 191q193 80 391 79q31 0 60.5 -2t58.5 -6q125 -20 219 -68t160 -132q115 -145 114 -345q0 -248 -194 -487q-178 -221 -459 -369 q-274 -143 -516 -131q-229 10 -357 122t-128 302zM790 1908.5q1 -14.5 3 -31.5t6 -32.5t8 -21.5t19.5 -4t30.5 8t27.5 14t12.5 14t-1 22.5t-2 34t-4 32t-7 18.5q-6 6 -18.5 4t-27 -8t-27.5 -14.5t-17 -14.5t-3 -20.5zM993 1907q0 -14 2 -31.5t6.5 -33t8.5 -21.5 q6 -6 22.5 -4t31.5 8t27.5 14t12.5 14t-1 22.5t-3 34t-5 32t-10 18.5q-4 6 -16 4t-27.5 -8t-28 -14.5t-16.5 -14.5t-4 -20z" />
<glyph unicode="&#xd7;" horiz-adv-x="1253" d="M19 320.5q12 -35.5 26 -41.5q16 -4 27 -5h20q14 0 14 11q0 12 -18 14q-16 0 -37 14q-16 10 -9 38t24 48q41 55 99 115.5t118.5 118t115 102.5t88.5 70q41 -141 113 -276.5t180 -229.5q45 -39 106.5 -67.5t125 -35t122 16t99.5 88.5q10 18 -1 23.5t-20 -9.5 q-23 -43 -65.5 -66.5t-96 -24.5t-115 24.5t-122.5 83.5q-41 39 -81 99.5t-74.5 132t-60.5 148t-36 148.5q49 37 104.5 76t108.5 73.5t100.5 65.5t79.5 49q10 4 13.5 14.5t0.5 19.5t-12.5 13.5t-23.5 -4.5q-39 -23 -87 -53.5t-100.5 -64t-102.5 -69.5t-93 -67q-6 25 -11.5 61 t-8.5 72.5t-4 72.5t1 61q0 25 -11 32t-26.5 2.5t-27.5 -17.5t-15 -28q-4 -25 -4 -61q0 -37 4.5 -79t11.5 -86t17 -85q-59 -49 -129 -112.5t-134.5 -126t-114.5 -121t-70 -99.5q-20 -43 -8 -78.5z" />
<glyph unicode="&#xd8;" horiz-adv-x="1468" d="M47 496.5q-6 -99.5 27 -199.5q43 -129 145 -193q-88 -139 -82 -202q8 -43 17 -56q12 1 18 48q2 61 82 188q70 -37 149.5 -48t163.5 5q150 27 296.5 108.5t264 193.5t198.5 239t101 243q25 139 -5.5 239.5t-90.5 172.5q41 35 80 67.5t78 63.5q27 20 22 37q-2 18 -26 18 q-25 0 -45 -18q-35 -29 -74 -58.5t-78 -64.5q-37 35 -78 60.5t-80 41.5q-88 39 -189 59.5t-203.5 27t-202 -2t-181.5 -28t-140 -49t-83 -66.5q-27 -41 -28 -82t16.5 -82t52.5 -80t82 -75q6 -6 2 -14.5t-8 -12.5q-47 -53 -92 -128t-74 -164t-35 -188.5zM154 480 q-2 93 18.5 178t58 159t80.5 127q6 6 11 6q4 0 14 -4q39 -20 89 -42.5t77 -31.5q45 -12 45 -4t-43 31q-10 6 -27.5 15.5t-37 20.5t-39 24.5t-33.5 25.5q-8 6 -2 21q14 18 45.5 46.5t75.5 56.5t97.5 50.5t108.5 30.5q27 2 52.5 -16.5t60.5 -20.5q20 0 35.5 5t21.5 14.5 t-1 20.5t-32 21q-53 18 -119.5 12.5t-135 -29t-136 -61.5t-119.5 -85q-8 -8 -14 -9q-4 0 -14 11q-25 23 -48.5 50t-39 57t-21.5 62.5t4 63.5q12 37 66.5 65.5t133.5 45t176 21.5t197.5 -3t195 -31.5t167.5 -62.5q33 -16 60.5 -38.5t56.5 -47.5q-135 -121 -283.5 -273.5 t-318.5 -338.5q-123 -135 -213 -246t-154 -199q-23 23 -44 51.5t-33 65.5q-37 92 -39 185zM303 154q66 88 161 200.5t222 249.5q166 174 312.5 320.5t281.5 265.5q66 -78 95.5 -172.5t6.5 -190.5q-29 -137 -110.5 -260t-189 -219t-226.5 -158.5t-219 -76.5q-35 -6 -77 -9.5 t-86 -0.5t-88 14.5t-83 36.5z" />
<glyph unicode="&#xd9;" horiz-adv-x="1505" d="M70 82q0 -31 16 -60.5t41 -52t54.5 -37t58.5 -14.5q20 0 36 6q66 33 159 114t199.5 189.5t217.5 232.5t211 245.5t184 230t133 182.5q27 43 52 43t24 -31q0 -20 -12 -47h-2q-53 -100 -120 -240.5t-125 -283.5t-97 -272t-39 -209q0 -6 1 -11.5t1 -11.5q2 -14 10 -33.5 t19.5 -38t24.5 -30.5t26 -12h4q61 49 61 69q0 2 -6 2q-12 0 -24 -6q-35 -18 -48 -18q-27 0 -26 35q0 16 2 32.5t6 38.5q2 6 2 12t2 13q8 63 38 153t73 194.5t96 218.5t107.5 224.5t107.5 213t94 184.5q8 16 15.5 29.5t13.5 25.5q0 2 1 4t1 6q0 20 -21.5 39t-42.5 19h-6 q-23 -4 -36 -20.5t-27 -39.5q-8 -16 -10 -18q-74 -96 -174.5 -223.5t-213 -263.5t-230.5 -273t-228.5 -255t-207.5 -208t-167 -131q-59 -39 -104 -39q-70 0 -70 94q0 16 2 33.5t6 36.5q18 94 66.5 214t112 248t138 258t147.5 245.5t135.5 211t105.5 154.5q10 16 10 27 q0 16 -16.5 25.5t-38.5 9.5q-16 0 -36 -7.5t-30 -25.5q-47 -70 -112.5 -176.5t-137 -232.5t-143.5 -264t-129.5 -270t-94 -249t-40.5 -203v-6zM1069 1907q0 -4 14 -19q35 -27 80 -56.5t94 -62.5q31 -20 60 -38.5t51 -34.5h2q-2 0 -2 2h2q-37 35 -84 80t-92 86 q-23 20 -41 37.5t-35 31.5h-2q-6 6 -12 6q-14 0 -24.5 -10t-10.5 -22zM1370 1694q2 0 2 2h-2v-2z" />
<glyph unicode="&#xda;" horiz-adv-x="1505" d="M70 82q0 -31 16 -60.5t41 -52t54.5 -37t58.5 -14.5q20 0 36 6q66 33 159 114t199.5 189.5t217.5 232.5t211 245.5t184 230t133 182.5q27 43 52 43t24 -31q0 -20 -12 -47h-2q-53 -100 -120 -240.5t-125 -283.5t-97 -272t-39 -209q0 -6 1 -11.5t1 -11.5q2 -14 10 -33.5 t19.5 -38t24.5 -30.5t26 -12h4q61 49 61 69q0 2 -6 2q-12 0 -24 -6q-35 -18 -48 -18q-27 0 -26 35q0 16 2 32.5t6 38.5q2 6 2 12t2 13q8 63 38 153t73 194.5t96 218.5t107.5 224.5t107.5 213t94 184.5q8 16 15.5 29.5t13.5 25.5q0 2 1 4t1 6q0 20 -21.5 39t-42.5 19h-6 q-23 -4 -36 -20.5t-27 -39.5q-8 -16 -10 -18q-74 -96 -174.5 -223.5t-213 -263.5t-230.5 -273t-228.5 -255t-207.5 -208t-167 -131q-59 -39 -104 -39q-70 0 -70 94q0 16 2 33.5t6 36.5q18 94 66.5 214t112 248t138 258t147.5 245.5t135.5 211t105.5 154.5q10 16 10 27 q0 16 -16.5 25.5t-38.5 9.5q-16 0 -36 -7.5t-30 -25.5q-47 -70 -112.5 -176.5t-137 -232.5t-143.5 -264t-129.5 -270t-94 -249t-40.5 -203v-6zM1143 1704q0 -4 4 -4q2 0 3 1t3 1h-4q39 14 86 30.5t95 32t92 29.5t75 25h2q12 2 12 18q0 14 -8 25.5t-18 11.5l-4 -2 q-23 -10 -56.5 -26.5t-70.5 -35.5q-53 -29 -108.5 -57.5t-98.5 -46.5q-2 -2 -4 -2z" />
<glyph unicode="&#xdb;" horiz-adv-x="1505" d="M70 82q0 -31 16 -60.5t41 -52t54.5 -37t58.5 -14.5q20 0 36 6q66 33 159 114t199.5 189.5t217.5 232.5t211 245.5t184 230t133 182.5q27 43 52 43t24 -31q0 -20 -12 -47h-2q-53 -100 -120 -240.5t-125 -283.5t-97 -272t-39 -209q0 -6 1 -11.5t1 -11.5q2 -14 10 -33.5 t19.5 -38t24.5 -30.5t26 -12h4q61 49 61 69q0 2 -6 2q-12 0 -24 -6q-35 -18 -48 -18q-27 0 -26 35q0 16 2 32.5t6 38.5q2 6 2 12t2 13q8 63 38 153t73 194.5t96 218.5t107.5 224.5t107.5 213t94 184.5q8 16 15.5 29.5t13.5 25.5q0 2 1 4t1 6q0 20 -21.5 39t-42.5 19h-6 q-23 -4 -36 -20.5t-27 -39.5q-8 -16 -10 -18q-74 -96 -174.5 -223.5t-213 -263.5t-230.5 -273t-228.5 -255t-207.5 -208t-167 -131q-59 -39 -104 -39q-70 0 -70 94q0 16 2 33.5t6 36.5q18 94 66.5 214t112 248t138 258t147.5 245.5t135.5 211t105.5 154.5q10 16 10 27 q0 16 -16.5 25.5t-38.5 9.5q-16 0 -36 -7.5t-30 -25.5q-47 -70 -112.5 -176.5t-137 -232.5t-143.5 -264t-129.5 -270t-94 -249t-40.5 -203v-6zM1071 1671q4 0 4 -4v2l6 6q-2 -2 -4 -2q-2 -2 -6 -2zM1081 1675q117 62 185 78h6q23 0 63 -33q4 -4 10.5 -7t10.5 -7l41 -31 q-59 59 -92 90t-37 33l-4 2q0 -4 -66 -49q-47 -33 -73.5 -48t-37.5 -22zM1397 1675q2 -6 8 -8l-2 -2h4v-2q2 0 2 2v2l-2 2h-2z" />
<glyph unicode="&#xdc;" horiz-adv-x="1544" d="M70 82q0 -31 16 -60.5t41 -52t54.5 -37t58.5 -14.5q20 0 36 6q66 33 159 114t199.5 189.5t217.5 232.5t211 245.5t184 230t133 182.5q27 43 52 43t24 -31q0 -20 -12 -47h-2q-53 -100 -120 -240.5t-125 -283.5t-97 -272t-39 -209q0 -6 1 -11.5t1 -11.5q2 -14 10 -33.5 t19.5 -38t24.5 -30.5t26 -12h4q61 49 61 69q0 2 -6 2q-12 0 -24 -6q-35 -18 -48 -18q-27 0 -26 35q0 16 2 32.5t6 38.5q2 6 2 12t2 13q8 63 38 153t73 194.5t96 218.5t107.5 224.5t107.5 213t94 184.5q8 16 15.5 29.5t13.5 25.5q0 2 1 4t1 6q0 20 -21.5 39t-42.5 19h-6 q-23 -4 -36 -20.5t-27 -39.5q-8 -16 -10 -18q-74 -96 -174.5 -223.5t-213 -263.5t-230.5 -273t-228.5 -255t-207.5 -208t-167 -131q-59 -39 -104 -39q-70 0 -70 94q0 16 2 33.5t6 36.5q18 94 66.5 214t112 248t138 258t147.5 245.5t135.5 211t105.5 154.5q10 16 10 27 q0 16 -16.5 25.5t-38.5 9.5q-16 0 -36 -7.5t-30 -25.5q-47 -70 -112.5 -176.5t-137 -232.5t-143.5 -264t-129.5 -270t-94 -249t-40.5 -203v-6zM1124 1786q0 2 1 -1t1 -9q0 -23 4.5 -46.5t10.5 -31.5h6q16 0 40.5 10t24.5 18v21q0 14 -2 29.5t-4 29t-4 17.5q-2 2 -6 2 q-16 0 -41 -14.5t-31 -24.5zM1139 1696h2v2q-2 0 -2 -2zM1331 1772q0 -23 2 -44.5t6 -25.5q6 -6 13 -6q18 0 42.5 10t24.5 18q0 6 -1 20.5t-2 31t-4 29t-5 16.5h-2h-2q0 2 -2 2q-16 0 -40 -11.5t-28 -19.5v-4q-2 -2 -2 -16z" />
<glyph unicode="&#xdd;" horiz-adv-x="1253" d="M-242 -498q-2 -25 10.5 -48t31 -41.5t41 -30t38.5 -7.5q76 16 182.5 94t226.5 192t244.5 252t239.5 275q63 78 137 173.5t150 198t147.5 204.5t134 195.5t109.5 172.5t72 130q6 14 2 35.5t-15.5 37t-27 18.5t-27.5 -20q-12 -25 -36.5 -58.5t-52.5 -69.5t-53.5 -70.5 t-43.5 -61.5q-16 -25 -15.5 -47t0.5 -45q-29 -57 -85 -148.5t-123.5 -189.5t-137 -192.5t-125.5 -157.5q-12 74 -32.5 176t-50 218t-68.5 235.5t-86 227t-103.5 194t-119.5 135.5q-47 37 -105.5 33.5t-113 -30t-99.5 -70.5t-67 -89q-10 -27 -13.5 -56.5t-2.5 -59t6 -56.5 t10 -47q10 -29 24 -29q12 0 10 35q-2 59 6.5 115.5t30.5 109.5q43 94 119 119t154 -43q55 -49 107 -140t98 -205t85 -241t66 -247.5t42 -225t13 -174.5q-43 -55 -102.5 -124.5t-128 -145.5t-142 -150.5t-145.5 -139t-140.5 -113t-123.5 -70.5q-51 -20 -75.5 -5t-14.5 56 q6 31 15 63.5t19.5 65.5t21.5 61.5t18 47.5q10 23 3.5 25.5t-22.5 -15.5q-14 -20 -32.5 -47t-35 -57.5t-31 -63.5t-18.5 -64zM826 1609q6 -13 20 -7q39 16 86 34.5t94 36t90 33.5t74 27q16 6 19 21t-2 30.5t-17 26t-25 4.5q-29 -14 -70.5 -39t-87.5 -52.5t-91.5 -53 t-81.5 -42.5q-14 -6 -8 -19z" />
<glyph unicode="&#xde;" horiz-adv-x="1150" d="M45 -82q8 -4 18.5 -1t20.5 8t17.5 7t11.5 -4q25 70 64.5 179.5t84.5 232.5t89 245t75 218q104 80 189 127t159 69q186 41 217 -118q53 -180 -67 -383q-131 -121 -249 -193t-210 -112.5t-152.5 -61t-74.5 -41.5q-6 -10 -9.5 -17t0.5 -16q18 -61 80 -41q111 59 217.5 111.5 t198.5 109t168 120t126 146.5t69.5 188.5t1.5 244.5q-4 12 -22.5 41t-50.5 54.5t-77 40.5t-102 1q-152 -31 -379 -176q76 217 140.5 394t133.5 323q8 29 17.5 33t7.5 14q-2 33 -41 6q-90 -59 -103 -82q-104 -262 -180 -453.5t-127 -318.5q-66 -41 -98.5 -77t-36.5 -60 q0 -39 72 -80q-47 -172 -99.5 -344t-99.5 -334z" />
<glyph unicode="&#xdf;" horiz-adv-x="1087" d="M-134 -618.5q5 -18.5 13 -22.5t19.5 7t17.5 42q68 283 157 557.5t192.5 524t218 467t235.5 382.5q92 129 172 187.5t147 70.5q88 16 143.5 -11t80 -76.5t23.5 -106.5t-21 -100q-37 -74 -104.5 -141.5t-147.5 -125t-162 -104.5t-150 -82q-78 -41 -107.5 -79t-20 -72.5 t55.5 -63.5t120 -49q35 -10 75.5 -23.5t79.5 -23.5q100 -27 129 -85.5t-28 -127.5q-57 -66 -126 -109t-145 -72.5t-154.5 -46t-158.5 -26.5q-23 -2 -39 3t-24.5 13t-3.5 20.5t28 24.5t6.5 25.5t-68.5 -4.5q-23 -6 -39 -25.5t-20 -42.5q-8 -12 -2 -30.5t22.5 -34t43 -25.5 t61.5 -8q78 6 178.5 27.5t198.5 60.5t186 95t142 128q27 41 20.5 87t-31 88t-58.5 73t-58 41l-40 15t-50.5 18.5t-51 18.5t-41.5 15q-82 31 -89 59.5t77 69.5q57 29 143 83.5t171 120t154.5 139t96.5 141.5q35 90 20.5 165.5t-60.5 131t-115.5 85t-143.5 25.5 q-39 0 -86 -19.5t-98 -55t-102.5 -87t-96.5 -116.5q-90 -123 -159.5 -248t-129.5 -231q-45 -12 -112.5 -22.5t-120.5 -39.5q-12 -8 -18.5 -23.5t-2 -27.5t16.5 -17.5t37 9.5q43 23 88 27.5t74 9.5q-63 -141 -131 -316.5t-129.5 -362t-113.5 -374t-83 -352.5q-6 -29 -1 -47.5 z" />
<glyph unicode="&#xe0;" d="M-25 -2q0 -70 52 -70q27 1 47 15q66 41 143.5 96t165.5 133q90 76 158.5 142.5t117.5 125.5q4 4 9 4q14 0 2 -22q-35 -53 -69 -116.5t-69 -139.5q-57 -123 -86.5 -226.5t-33.5 -189.5q-4 -104 67 -160q66 -53 166 -53q31 0 60.5 5t58.5 16q111 43 278 180 q92 78 160 148.5t113 140.5q10 14 10 22q0 4 -2 8q-8 0 -25 -20q-96 -125 -266 -262q-174 -141 -284 -176q-72 -25 -144 -25q-160 0 -160 137v21q0 8 2 18q18 119 66.5 251t134.5 275q53 92 112.5 181.5t117.5 181.5q2 6 -3.5 15.5t-15.5 9.5q-6 0 -10 -5q-25 -20 -55 -26 q-4 -2 -37 2q-53 18 -101 18q-45 0 -84 -16q-78 -33 -171 -96.5t-197 -167.5q-227 -227 -228 -375zM98 70q1 22 11 47q57 135 192 286q147 162 244 187q25 6 47 6q43 0 68.5 -18.5t25.5 -40.5q0 -10 -6 -17q-143 -174 -271 -295t-243 -194q-16 -10 -31 -11q-37 0 -37 50z M453 1063q-2 -14 10 -23q27 -20 64.5 -45.5t77.5 -52.5t80 -53.5t71 -46.5q8 -6 16 1t-4 17q-27 25 -60.5 56.5t-68.5 64.5t-67.5 63.5t-55.5 53.5q-12 10 -26.5 6t-24.5 -15.5t-12 -25.5z" />
<glyph unicode="&#xe1;" d="M-25 -2q0 -70 52 -70q27 1 47 15q66 41 143.5 96t165.5 133q90 76 158.5 142.5t117.5 125.5q4 4 9 4q14 0 2 -22q-35 -53 -69 -116.5t-69 -139.5q-57 -123 -86.5 -226.5t-33.5 -189.5q-4 -104 67 -160q66 -53 166 -53q31 0 60.5 5t58.5 16q111 43 278 180 q92 78 160 148.5t113 140.5q10 14 10 22q0 4 -2 8q-8 0 -25 -20q-96 -125 -266 -262q-174 -141 -284 -176q-72 -25 -144 -25q-160 0 -160 137v21q0 8 2 18q18 119 66.5 251t134.5 275q53 92 112.5 181.5t117.5 181.5q2 6 -3.5 15.5t-15.5 9.5q-6 0 -10 -5q-25 -20 -55 -26 q-4 -2 -37 2q-53 18 -101 18q-45 0 -84 -16q-78 -33 -171 -96.5t-197 -167.5q-227 -227 -228 -375zM98 70q1 22 11 47q57 135 192 286q147 162 244 187q25 6 47 6q43 0 68.5 -18.5t25.5 -40.5q0 -10 -6 -17q-143 -174 -271 -295t-243 -194q-16 -10 -31 -11q-37 0 -37 50z M411 853q5 -11 19 -5q39 14 86 30.5t95 32t92.5 29.5t74.5 25q14 4 17.5 18t-2 27.5t-16.5 22.5t-25 3q-29 -14 -71 -35.5t-88 -44t-91 -45t-82 -39.5q-14 -8 -9 -19z" />
<glyph unicode="&#xe2;" d="M-25 -2q0 -70 52 -70q27 1 47 15q66 41 143.5 96t165.5 133q90 76 158.5 142.5t117.5 125.5q4 4 9 4q14 0 2 -22q-35 -53 -69 -116.5t-69 -139.5q-57 -123 -86.5 -226.5t-33.5 -189.5q-4 -104 67 -160q66 -53 166 -53q31 0 60.5 5t58.5 16q111 43 278 180 q92 78 160 148.5t113 140.5q10 14 10 22q0 4 -2 8q-8 0 -25 -20q-96 -125 -266 -262q-174 -141 -284 -176q-72 -25 -144 -25q-160 0 -160 137v21q0 8 2 18q18 119 66.5 251t134.5 275q53 92 112.5 181.5t117.5 181.5q2 6 -3.5 15.5t-15.5 9.5q-6 0 -10 -5q-25 -20 -55 -26 q-4 -2 -37 2q-53 18 -101 18q-45 0 -84 -16q-78 -33 -171 -96.5t-197 -167.5q-227 -227 -228 -375zM98 70q1 22 11 47q57 135 192 286q147 162 244 187q25 6 47 6q43 0 68.5 -18.5t25.5 -40.5q0 -10 -6 -17q-143 -174 -271 -295t-243 -194q-16 -10 -31 -11q-37 0 -37 50z M424 840q0 -12 16 -2q109 57 187 80q10 2 59 -33q16 -10 35.5 -23.5t36.5 -27.5q6 -6 10 -5q10 4 10 9q0 4 -8 12q-66 66 -100.5 98.5t-38.5 34.5q-2 2 -82 -51q-47 -31 -77 -50.5t-42 -25.5q-4 -4 -5 -7t-1 -9z" />
<glyph unicode="&#xe3;" d="M-25 -2q0 -70 52 -70q27 1 47 15q66 41 143.5 96t165.5 133q90 76 158.5 142.5t117.5 125.5q4 4 9 4q14 0 2 -22q-35 -53 -69 -116.5t-69 -139.5q-57 -123 -86.5 -226.5t-33.5 -189.5q-4 -104 67 -160q66 -53 166 -53q31 0 60.5 5t58.5 16q111 43 278 180 q92 78 160 148.5t113 140.5q10 14 10 22q0 4 -2 8q-8 0 -25 -20q-96 -125 -266 -262q-174 -141 -284 -176q-72 -25 -144 -25q-160 0 -160 137v21q0 8 2 18q18 119 66.5 251t134.5 275q53 92 112.5 181.5t117.5 181.5q2 6 -3.5 15.5t-15.5 9.5q-6 0 -10 -5q-25 -20 -55 -26 q-4 -2 -37 2q-53 18 -101 18q-45 0 -84 -16q-78 -33 -171 -96.5t-197 -167.5q-227 -227 -228 -375zM98 70q1 22 11 47q57 135 192 286q147 162 244 187q25 6 47 6q43 0 68.5 -18.5t25.5 -40.5q0 -10 -6 -17q-143 -174 -271 -295t-243 -194q-16 -10 -31 -11q-37 0 -37 50z M335.5 857.5q1.5 -9.5 24.5 10.5q23 16 53.5 28.5t65.5 12.5q20 0 50 -11t61 -23.5t59.5 -23.5t48.5 -11q35 0 68 29.5t53 50.5q16 20 10 26t-26 -10q-23 -23 -40.5 -29t-64.5 -6q-23 0 -51.5 11.5t-59 23.5t-59 23.5t-49.5 11.5q-16 0 -34.5 -9.5t-36 -22.5t-33 -27.5 t-27.5 -26.5q-14 -18 -12.5 -27.5z" />
<glyph unicode="&#xe4;" d="M-25 -2q0 -70 52 -70q27 1 47 15q66 41 143.5 96t165.5 133q90 76 158.5 142.5t117.5 125.5q4 4 9 4q14 0 2 -22q-35 -53 -69 -116.5t-69 -139.5q-57 -123 -86.5 -226.5t-33.5 -189.5q-4 -104 67 -160q66 -53 166 -53q31 0 60.5 5t58.5 16q111 43 278 180 q92 78 160 148.5t113 140.5q10 14 10 22q0 4 -2 8q-8 0 -25 -20q-96 -125 -266 -262q-174 -141 -284 -176q-72 -25 -144 -25q-160 0 -160 137v21q0 8 2 18q18 119 66.5 251t134.5 275q53 92 112.5 181.5t117.5 181.5q2 6 -3.5 15.5t-15.5 9.5q-6 0 -10 -5q-25 -20 -55 -26 q-4 -2 -37 2q-53 18 -101 18q-45 0 -84 -16q-78 -33 -171 -96.5t-197 -167.5q-227 -227 -228 -375zM98 70q1 22 11 47q57 135 192 286q147 162 244 187q25 6 47 6q43 0 68.5 -18.5t25.5 -40.5q0 -10 -6 -17q-143 -174 -271 -295t-243 -194q-16 -10 -31 -11q-37 0 -37 50z M423 942.5q1 -14.5 3 -32t6 -33t8 -21.5t18.5 -4t30 8t27.5 15.5t12 15.5v20q0 16 -2 34t-4 32t-6 18q-6 6 -19.5 4t-27.5 -8t-26.5 -14t-16.5 -14t-3 -20.5zM627 940q0 -14 2 -31.5t5 -33t7 -21.5q6 -6 22.5 -4t33 8t28.5 14.5t12 14.5t-1 22.5t-3 34t-5 31.5t-9 18 q-4 6 -17.5 4t-28 -8t-27.5 -14t-15 -14q-4 -6 -4 -21z" />
<glyph unicode="&#xe5;" d="M-25 -2q0 -70 52 -70q27 1 47 15q66 41 143.5 96t165.5 133q90 76 158.5 142.5t117.5 125.5q4 4 9 4q14 0 2 -22q-35 -53 -69 -116.5t-69 -139.5q-57 -123 -86.5 -226.5t-33.5 -189.5q-4 -104 67 -160q66 -53 166 -53q31 0 60.5 5t58.5 16q111 43 278 180 q92 78 160 148.5t113 140.5q10 14 10 22q0 4 -2 8q-8 0 -25 -20q-96 -125 -266 -262q-174 -141 -284 -176q-72 -25 -144 -25q-160 0 -160 137v21q0 8 2 18q18 119 66.5 251t134.5 275q53 92 112.5 181.5t117.5 181.5q2 6 -3.5 15.5t-15.5 9.5q-6 0 -10 -5q-25 -20 -55 -26 q-4 -2 -37 2q-53 18 -101 18q-45 0 -84 -16q-78 -33 -171 -96.5t-197 -167.5q-227 -227 -228 -375zM98 70q1 22 11 47q57 135 192 286q147 162 244 187q25 6 47 6q43 0 68.5 -18.5t25.5 -40.5q0 -10 -6 -17q-143 -174 -271 -295t-243 -194q-16 -10 -31 -11q-37 0 -37 50z M369 918q0 -35 24.5 -58.5t59.5 -23.5t60.5 23.5t25.5 58.5t-26 58t-60 23q-35 0 -59.5 -23.5t-24.5 -57.5zM387 918q0 27 19.5 47t46.5 20q29 0 48 -20.5t19 -46.5q0 -29 -19 -47.5t-48 -18.5q-27 0 -46.5 18.5t-19.5 47.5z" />
<glyph unicode="&#xe6;" horiz-adv-x="1144" d="M-2 92q0 -70 51 -69l49 6q90 16 175 69.5t157 121t129 139t92 126.5q-25 -45 -49 -104t-47 -119q-31 -86 -29 -164t31 -134t82 -86t129 -17q37 6 75 20.5t71.5 32.5t62.5 37.5t49 36.5q14 12 6 19t-24 -3q-49 -33 -123 -61.5t-140 -36.5q-27 -4 -52 1t-47.5 21.5t-38 45 t-19.5 73.5q-2 49 8 95t26.5 89t37 81t38.5 69h144q82 0 163.5 2t150.5 4t104 8q53 8 97 40t60 54q10 14 1 18.5t-17 -9.5q-20 -23 -62.5 -45.5t-85.5 -26.5q-63 -10 -173.5 -11t-225.5 -1q100 16 175 56t99 97q12 31 5 68t-28.5 66.5t-54 45t-69.5 1.5q-29 -10 -59.5 -31 t-63.5 -45q10 16 20.5 31.5t20.5 31.5q2 4 -3 14.5t-15 10.5q-6 0 -11 -4q-18 -18 -55 -29q-4 -2 -37 2q-53 18 -100 19q-23 0 -44.5 -4.5t-39.5 -10.5q-78 -33 -171 -97.5t-198 -168.5q-227 -227 -227 -375zM121 164q0 22 10 47q29 66 76 138.5t117 148.5q150 166 243 186 q23 8 47 8q43 0 69 -19.5t26 -41.5q0 -10 -7 -17q-283 -340 -514 -487q-16 -12 -30 -12q-37 0 -37 49zM719 414q57 78 126.5 147.5t141.5 114.5q27 16 50.5 17t38 -12t16 -37.5t-16.5 -57.5q-20 -37 -58 -69t-86 -54.5t-103.5 -35.5t-108.5 -13z" />
<glyph unicode="&#xe7;" horiz-adv-x="636" d="M16.5 -156q1.5 -6 12.5 -6q41 4 85 26.5t54 43.5q10 16 8 29.5t-9 23.5t-18.5 15.5t-19.5 7.5q-8 4 -7 8t5 8t12 16q14 -8 29.5 -11t32.5 -5q43 0 135 33q57 23 104 47t82 57q14 8 15 19q0 4 -2 4q-12 0 -21 -15q-53 -45 -133 -77q-98 -41 -176 -31q-86 10 -111 57 q-10 27 -10 68q0 45 13.5 98t37.5 121q43 106 137 225q53 66 103.5 108t97.5 64q8 4 27 4q20 0 40.5 -5t37.5 -9q12 -4 22 14q4 6 7 13.5t5 11.5q0 4 -10 11t-20 7q-35 2 -109 -28q-121 -47 -233 -179q-49 -57 -88 -116.5t-68 -122.5q-25 -53 -39 -101.5t-14 -91.5 q0 -63 53 -123q20 -27 45 -38q-14 -10 -25.5 -19.5t-19.5 -17.5q-8 -6 6 -15q33 -10 46.5 -25.5t-1.5 -35.5q-10 -18 -44 -38.5t-64 -23.5q-12 0 -10.5 -6z" />
<glyph unicode="&#xe8;" horiz-adv-x="692" d="M18 121q-2 -45 18.5 -84t51.5 -67.5t66.5 -44t66.5 -9.5q37 6 76 22.5t75 37t66.5 43t53.5 40.5q16 10 8 18.5t-25 -3.5q-27 -18 -60.5 -36t-69.5 -32t-72.5 -25.5t-69.5 -15.5q-27 -2 -51.5 3t-44 22.5t-30.5 49.5t-9 81q2 53 18 104t37.5 97.5t47.5 88.5t48 76h141 q82 0 162 1t146.5 3.5t101.5 8.5q59 10 105.5 44.5t64.5 59.5q10 16 2 20.5t-18 -12.5q-23 -23 -66 -48t-88 -29q-33 -6 -78 -8.5t-97 -3.5t-110 -1h-110q100 16 179 60.5t108 107.5q18 31 16 72t-19.5 72.5t-47 48t-68.5 2.5q-70 -31 -159 -108t-168 -182.5t-135 -228 t-63 -245.5zM242 522q68 84 143.5 161t153.5 126q29 18 51 18q25 0 37 -14t10 -40.5t-25 -63.5q-25 -41 -65.5 -75t-90.5 -58.5t-105.5 -39t-108.5 -14.5zM371 1218.5q-2 -14.5 10 -22.5q27 -20 64.5 -46t77.5 -52.5l80 -53t71 -47.5q8 -6 16 1.5t-4 17.5q-27 25 -60.5 56.5 t-68.5 64t-67.5 63.5t-55.5 53q-12 10 -26.5 6t-24.5 -15t-12 -25.5z" />
<glyph unicode="&#xe9;" horiz-adv-x="692" d="M18 121q-2 -45 18.5 -84t51.5 -67.5t66.5 -44t66.5 -9.5q37 6 76 22.5t75 37t66.5 43t53.5 40.5q16 10 8 18.5t-25 -3.5q-27 -18 -60.5 -36t-69.5 -32t-72.5 -25.5t-69.5 -15.5q-27 -2 -51.5 3t-44 22.5t-30.5 49.5t-9 81q2 53 18 104t37.5 97.5t47.5 88.5t48 76h141 q82 0 162 1t146.5 3.5t101.5 8.5q59 10 105.5 44.5t64.5 59.5q10 16 2 20.5t-18 -12.5q-23 -23 -66 -48t-88 -29q-33 -6 -78 -8.5t-97 -3.5t-110 -1h-110q100 16 179 60.5t108 107.5q18 31 16 72t-19.5 72.5t-47 48t-68.5 2.5q-70 -31 -159 -108t-168 -182.5t-135 -228 t-63 -245.5zM242 522q68 84 143.5 161t153.5 126q29 18 51 18q25 0 37 -14t10 -40.5t-25 -63.5q-25 -41 -65.5 -75t-90.5 -58.5t-105.5 -39t-108.5 -14.5zM594 998.5q8 -9.5 18 -1.5q33 25 75 52.5t85 55.5t81 52.5t67 42.5q12 8 11 22.5t-10.5 27t-22.5 18.5t-24 -2 q-25 -20 -59.5 -52t-73.5 -67t-76.5 -70t-68.5 -59q-10 -10 -2 -19.5z" />
<glyph unicode="&#xea;" horiz-adv-x="692" d="M18 121q-2 -45 18.5 -84t51.5 -67.5t66.5 -44t66.5 -9.5q37 6 76 22.5t75 37t66.5 43t53.5 40.5q16 10 8 18.5t-25 -3.5q-27 -18 -60.5 -36t-69.5 -32t-72.5 -25.5t-69.5 -15.5q-27 -2 -51.5 3t-44 22.5t-30.5 49.5t-9 81q2 53 18 104t37.5 97.5t47.5 88.5t48 76h141 q82 0 162 1t146.5 3.5t101.5 8.5q59 10 105.5 44.5t64.5 59.5q10 16 2 20.5t-18 -12.5q-23 -23 -66 -48t-88 -29q-33 -6 -78 -8.5t-97 -3.5t-110 -1h-110q100 16 179 60.5t108 107.5q18 31 16 72t-19.5 72.5t-47 48t-68.5 2.5q-70 -31 -159 -108t-168 -182.5t-135 -228 t-63 -245.5zM242 522q68 84 143.5 161t153.5 126q29 18 51 18q25 0 37 -14t10 -40.5t-25 -63.5q-25 -41 -65.5 -75t-90.5 -58.5t-105.5 -39t-108.5 -14.5zM336 1016q0 -12 16 -2q113 60 187 78q10 4 61 -31q16 -12 34.5 -24.5t35.5 -26.5q6 -6 10 -4q10 4 10 8l-8 12 q-129 125 -139 131q-4 2 -80 -49q-47 -33 -78 -51.5t-43 -24.5q-6 -10 -6 -16z" />
<glyph unicode="&#xeb;" horiz-adv-x="692" d="M18 121q-2 -45 18.5 -84t51.5 -67.5t66.5 -44t66.5 -9.5q37 6 76 22.5t75 37t66.5 43t53.5 40.5q16 10 8 18.5t-25 -3.5q-27 -18 -60.5 -36t-69.5 -32t-72.5 -25.5t-69.5 -15.5q-27 -2 -51.5 3t-44 22.5t-30.5 49.5t-9 81q2 53 18 104t37.5 97.5t47.5 88.5t48 76h141 q82 0 162 1t146.5 3.5t101.5 8.5q59 10 105.5 44.5t64.5 59.5q10 16 2 20.5t-18 -12.5q-23 -23 -66 -48t-88 -29q-33 -6 -78 -8.5t-97 -3.5t-110 -1h-110q100 16 179 60.5t108 107.5q18 31 16 72t-19.5 72.5t-47 48t-68.5 2.5q-70 -31 -159 -108t-168 -182.5t-135 -228 t-63 -245.5zM242 522q68 84 143.5 161t153.5 126q29 18 51 18q25 0 37 -14t10 -40.5t-25 -63.5q-25 -41 -65.5 -75t-90.5 -58.5t-105.5 -39t-108.5 -14.5zM386 1137.5q1 -15.5 3 -31.5t6 -31.5t8 -21.5q6 -6 20.5 -4t30 8t28 14t12.5 14t-1 22.5t-2.5 33t-4.5 32t-7 19.5 q-6 6 -18 4t-26.5 -9t-28 -15.5t-17.5 -14.5q-4 -4 -3 -19.5zM590 1135q0 -14 2 -31t6 -32t8 -21q6 -6 22.5 -4t32 8t27.5 14t12 14t-1 22.5t-3 33t-5 32t-9 19.5q-4 6 -16.5 3t-27.5 -9t-27.5 -14.5t-16.5 -14.5q-4 -4 -4 -20z" />
<glyph unicode="&#xec;" horiz-adv-x="491" d="M27 109q0 -37 19.5 -63t45 -41t51 -19t37.5 0q45 20 105.5 57t121 79t111.5 80.5t76 63.5q12 10 18 22.5t5 18.5t-9 4t-26 -20q-29 -27 -82.5 -66t-114.5 -77.5t-120.5 -69.5t-98.5 -39q-18 -4 -39 -5t-34 10t-13 38q0 29 24 82q27 61 62 123.5t74 121t75.5 107.5 t65.5 84q27 33 19.5 53.5t-28 28.5t-44 1t-27.5 -32q-2 -10 -22.5 -44t-50 -83t-65.5 -107.5t-65.5 -115.5t-50 -108.5t-20.5 -83.5zM261 993.5q-1 -16.5 18 -28.5q31 -25 63.5 -49.5t63 -48t58.5 -44t48 -37.5q27 -20 33.5 -5.5t-13.5 32.5q-49 43 -103 100.5t-99 108.5 q-12 14 -28.5 12t-28 -13t-12.5 -27.5z" />
<glyph unicode="&#xed;" horiz-adv-x="503" d="M27 109q0 -37 19.5 -63t45 -41t51 -19t37.5 0q45 20 105.5 57t121 79t111.5 80.5t76 63.5q12 10 18 22.5t5 18.5t-9 4t-26 -20q-29 -27 -82.5 -66t-114.5 -77.5t-120.5 -69.5t-98.5 -39q-18 -4 -39 -5t-34 10t-13 38q0 29 24 82q27 61 62 123.5t74 121t75.5 107.5 t65.5 84q27 33 19.5 53.5t-28 28.5t-44 1t-27.5 -32q-2 -10 -22.5 -44t-50 -83t-65.5 -107.5t-65.5 -115.5t-50 -108.5t-20.5 -83.5zM319.5 799.5q4.5 -15.5 34.5 1.5q23 12 56.5 29.5t73.5 38l80 41t75 38.5q20 8 23.5 22.5t-4 27t-22.5 17.5t-32 -7q-27 -20 -61.5 -45 t-70.5 -49.5t-70.5 -47t-61.5 -39.5q-25 -12 -20.5 -27.5z" />
<glyph unicode="&#xee;" horiz-adv-x="491" d="M27 109q0 -37 19.5 -63t45 -41t51 -19t37.5 0q45 20 105.5 57t121 79t111.5 80.5t76 63.5q12 10 18 22.5t5 18.5t-9 4t-26 -20q-29 -27 -82.5 -66t-114.5 -77.5t-120.5 -69.5t-98.5 -39q-18 -4 -39 -5t-34 10t-13 38q0 29 24 82q27 61 62 123.5t74 121t75.5 107.5 t65.5 84q27 33 19.5 53.5t-28 28.5t-44 1t-27.5 -32q-2 -10 -22.5 -44t-50 -83t-65.5 -107.5t-65.5 -115.5t-50 -108.5t-20.5 -83.5zM175 789.5q7 -15.5 32 1.5q20 14 52 29.5t67.5 31.5t73.5 31.5t71 31.5q2 0 5 1.5t13 -3.5q20 -16 53 -47.5t58 -60.5q18 -23 27.5 -16 t-2.5 34q-23 35 -47.5 76t-51.5 78q-10 14 -33.5 16t-43.5 -10q-16 -10 -50 -31.5t-73 -46t-76 -48t-62 -40.5q-20 -12 -13 -27.5z" />
<glyph unicode="&#xef;" horiz-adv-x="491" d="M27 109q0 -37 19.5 -63t45 -41t51 -19t37.5 0q45 20 105.5 57t121 79t111.5 80.5t76 63.5q12 10 18 22.5t5 18.5t-9 4t-26 -20q-29 -27 -82.5 -66t-114.5 -77.5t-120.5 -69.5t-98.5 -39q-18 -4 -39 -5t-34 10t-13 38q0 29 24 82q27 61 62 123.5t74 121t75.5 107.5 t65.5 84q27 33 19.5 53.5t-28 28.5t-44 1t-27.5 -32q-2 -10 -22.5 -44t-50 -83t-65.5 -107.5t-65.5 -115.5t-50 -108.5t-20.5 -83.5zM222 893q1 -14 3 -31.5t6.5 -33t8.5 -21.5t19 -4t30.5 8t28 14.5t12.5 14.5t-1 22.5t-2 33.5t-4.5 31.5t-7.5 18.5q-6 6 -19 4t-27.5 -8 t-27 -14t-16.5 -15q-4 -6 -3 -20zM426 889q0 -14 2 -30.5t6 -32t8 -21.5q6 -6 21.5 -4t32 8t29 14.5t12.5 14.5t-1 22.5t-3.5 32.5t-5.5 31.5t-9 19.5q-4 6 -16.5 4t-27.5 -9t-27.5 -15.5t-16.5 -14.5q-4 -4 -4 -20z" />
<glyph unicode="&#xf0;" horiz-adv-x="909" d="M22.5 545q-2.5 -62 14.5 -139q31 -170 121 -273q39 -35 82 -70q158 -96 301 23q104 86 166.5 231.5t76.5 344.5q14 113 15.5 211t-8.5 190q35 -29 63 -35q35 -12 76 5.5t67 33.5q25 14 19 23.5t-29 -3.5q-31 -16 -51 -16t-66 14q-23 8 -45 23.5t-45 34.5 q-12 59 -25.5 117.5t-33 111.5t-48 99.5t-69.5 82.5q-14 -8 12 -45q86 -133 103 -315q-16 10 -30.5 18.5t-24.5 12.5q-18 4 -40 0t-43.5 -12.5t-42 -18.5t-34.5 -18q-16 -14 -17.5 -21.5t27.5 2.5t64.5 13.5t70.5 -7.5q16 -6 37 -19.5t49 -35.5l-2 -100q6 -254 -74 -500 q-37 106 -85 192t-103 152q-16 18 -31.5 30.5t-27.5 18.5q-133 86 -248 -22q-94 -72 -123 -217q-16 -55 -18.5 -117zM77 522.5q7 65.5 29 122.5q16 39 38 68.5t53 54.5q104 86 194 51q29 -10 55.5 -33.5t55.5 -58.5q104 -117 151 -256q-31 -199 -188 -321q-82 -76 -164 -64 q-29 4 -58.5 21.5t-56.5 48.5q-41 45 -62.5 102t-37.5 127q-16 72 -9 137.5z" />
<glyph unicode="&#xf1;" horiz-adv-x="976" d="M-19 15q1 -21 7 -34.5t16 -15.5t23 10q76 86 165 179.5t182 180.5t182 159.5t165 119.5q25 16 43 17q20 0 31.5 -9.5t12.5 -26.5t-7 -34q-12 -23 -47 -66.5t-81 -101t-97.5 -122t-93.5 -125t-68.5 -110.5t-26.5 -81q-2 -18 6 -38.5t22.5 -39t33 -32t40.5 -15.5 q23 -4 62.5 18.5t62.5 42.5q18 16 16.5 36t-28.5 -1q-16 -12 -45 -24.5t-43 -16.5q-45 -12 -51 6.5t2 77.5q4 29 33.5 79t71.5 110.5t92.5 127t96.5 130t83 119t55 94.5q12 27 -13.5 51.5t-58.5 21.5q-51 -4 -135 -60t-179 -138t-188.5 -173t-162.5 -167 q-10 -12 -23.5 -17.5t-23 -2.5t-11.5 15.5t11 35.5q39 70 89 154.5t103 165.5t103.5 147.5t89.5 99.5q20 18 20 35q0 18 -12 29.5t-31.5 10.5t-38.5 -20q-35 -37 -79 -96t-91 -132t-92 -152t-84 -150.5t-66.5 -132t-37.5 -95.5q-6 -23 -5 -44zM342 984.5q2 -9.5 25 8.5 q23 16 54.5 29.5t65.5 13.5q20 0 49 -11t60 -23.5t59.5 -23.5t49.5 -11q35 0 68.5 28.5t53.5 48.5q16 23 9 28t-27 -11q-20 -20 -38.5 -26.5t-65.5 -6.5q-20 0 -50 11.5t-61 23.5t-59.5 23.5t-47.5 11.5q-16 0 -34.5 -9.5t-37 -22.5t-33.5 -28.5t-26 -25.5 q-16 -18 -14 -27.5z" />
<glyph unicode="&#xf2;" horiz-adv-x="759" d="M39 39q0 -16 9 -30.5t22.5 -25t30 -15.5t30.5 -3q180 27 420 234q123 104 183.5 193t66.5 167q0 4 -2 10t-4 13q-4 6 0 12q18 25 82 24q31 0 30 13q0 4 -30 8q-86 2 -153 4t-114 4q-4 2 -7 4t-7 4q-59 39 -92 37q-45 -2 -90 -45q-14 -8 -23 -8q-2 0 -78 -2 q-47 -2 -53 -12.5t-6 -16.5q0 -12 18.5 -25.5t36.5 -23.5q12 -4 4 -18q-270 -332 -274 -502zM90 29q0 22 12 45q119 283 338 485q31 20 35 19q37 14 80 19t92 -1q92 -10 78 -72q-31 -150 -236 -331q-195 -178 -333 -201q-66 -12 -66 37zM434 1007.5q-2 -14.5 10 -22.5 q27 -20 65 -46t78 -53.5t80 -53t70 -46.5q8 -6 16.5 1.5t-3.5 17.5q-27 25 -61 56.5t-68.5 64t-67.5 62.5t-55 52q-12 10 -26.5 6t-25 -14t-12.5 -24.5z" />
<glyph unicode="&#xf3;" horiz-adv-x="759" d="M39 39q0 -16 9 -30.5t22.5 -25t30 -15.5t30.5 -3q180 27 420 234q123 104 183.5 193t66.5 167q0 4 -2 10t-4 13q-4 6 0 12q18 25 82 24q31 0 30 13q0 4 -30 8q-86 2 -153 4t-114 4q-4 2 -7 4t-7 4q-59 39 -92 37q-45 -2 -90 -45q-14 -8 -23 -8q-2 0 -78 -2 q-47 -2 -53 -12.5t-6 -16.5q0 -12 18.5 -25.5t36.5 -23.5q12 -4 4 -18q-270 -332 -274 -502zM90 29q0 22 12 45q119 283 338 485q31 20 35 19q37 14 80 19t92 -1q92 -10 78 -72q-31 -150 -236 -331q-195 -178 -333 -201q-66 -12 -66 37zM440.5 843q8.5 -9 18.5 -1 q33 25 74.5 52.5t85 55t81 52t66.5 42.5q14 8 12 22.5t-11 27t-22.5 18.5t-23.5 -2q-25 -20 -59.5 -52t-73.5 -67t-77 -69.5t-67 -59.5q-12 -10 -3.5 -19z" />
<glyph unicode="&#xf4;" horiz-adv-x="759" d="M39 39q0 -16 9 -30.5t22.5 -25t30 -15.5t30.5 -3q180 27 420 234q123 104 183.5 193t66.5 167q0 4 -2 10t-4 13q-4 6 0 12q18 25 82 24q31 0 30 13q0 4 -30 8q-86 2 -153 4t-114 4q-4 2 -7 4t-7 4q-59 39 -92 37q-45 -2 -90 -45q-14 -8 -23 -8q-2 0 -78 -2 q-47 -2 -53 -12.5t-6 -16.5q0 -12 18.5 -25.5t36.5 -23.5q12 -4 4 -18q-270 -332 -274 -502zM90 29q0 22 12 45q119 283 338 485q31 20 35 19q37 14 80 19t92 -1q92 -10 78 -72q-31 -150 -236 -331q-195 -178 -333 -201q-66 -12 -66 37zM424 838q0 -12 16 -2q109 56 187 79 q10 2 59 -32q16 -10 35.5 -23.5t36.5 -28.5q6 -6 10 -4q10 4 10 9l-8 12q-66 66 -100.5 97.5t-38.5 35.5q-2 2 -82 -51q-47 -33 -77 -51.5t-42 -24.5q-4 -4 -5 -7t-1 -9z" />
<glyph unicode="&#xf5;" horiz-adv-x="759" d="M39 39q0 -16 9 -30.5t22.5 -25t30 -15.5t30.5 -3q180 27 420 234q123 104 183.5 193t66.5 167q0 4 -2 10t-4 13q-4 6 0 12q18 25 82 24q31 0 30 13q0 4 -30 8q-86 2 -153 4t-114 4q-4 2 -7 4t-7 4q-59 39 -92 37q-45 -2 -90 -45q-14 -8 -23 -8q-2 0 -78 -2 q-47 -2 -53 -12.5t-6 -16.5q0 -12 18.5 -25.5t36.5 -23.5q12 -4 4 -18q-270 -332 -274 -502zM90 29q0 22 12 45q119 283 338 485q31 20 35 19q37 14 80 19t92 -1q92 -10 78 -72q-31 -150 -236 -331q-195 -178 -333 -201q-66 -12 -66 37zM366.5 885q1.5 -8 24.5 10 q23 16 54.5 29.5t66.5 13.5q20 0 49 -11.5t59.5 -23.5t59.5 -23.5t49 -11.5q37 0 69.5 29t53.5 49q16 20 9 26.5t-27 -9.5q-20 -20 -39 -27.5t-66 -7.5q-20 0 -50 11t-60.5 23.5t-59.5 23.5t-47 11q-16 0 -34.5 -9t-37 -22.5t-34 -27.5t-25.5 -25q-16 -20 -14.5 -28z" />
<glyph unicode="&#xf6;" horiz-adv-x="759" d="M39 39q0 -16 9 -30.5t22.5 -25t30 -15.5t30.5 -3q180 27 420 234q123 104 183.5 193t66.5 167q0 4 -2 10t-4 13q-4 6 0 12q18 25 82 24q31 0 30 13q0 4 -30 8q-86 2 -153 4t-114 4q-4 2 -7 4t-7 4q-59 39 -92 37q-45 -2 -90 -45q-14 -8 -23 -8q-2 0 -78 -2 q-47 -2 -53 -12.5t-6 -16.5q0 -12 18.5 -25.5t36.5 -23.5q12 -4 4 -18q-270 -332 -274 -502zM90 29q0 22 12 45q119 283 338 485q31 20 35 19q37 14 80 19t92 -1q92 -10 78 -72q-31 -150 -236 -331q-195 -178 -333 -201q-66 -12 -66 37zM456 917.5q1 -14.5 3 -32t6 -32.5 t8 -22q6 -6 20.5 -4t30 8.5t27.5 14.5t12 14t-1 22.5t-2 34t-4 32t-7 18.5q-6 6 -18.5 4t-27 -8t-27.5 -14.5t-17 -14.5t-3 -20.5zM659 915q0 -14 3.5 -31.5l6.5 -32.5t7 -22q6 -6 22.5 -4t31.5 8.5t27.5 14.5t12.5 14t-1 22.5t-3 34t-5 32t-9 18.5q-4 6 -16.5 4t-28 -8.5 t-27.5 -14.5t-16 -14t-5 -21z" />
<glyph unicode="&#xf7;" horiz-adv-x="909" d="M28 676q-3 -4 1 -19q4 -8 14 -19t21.5 -23.5t22.5 -21.5t17 -11q47 -8 129 -13.5t181 -7.5h32q106 4 215 12.5t191 30.5q18 8 33.5 23.5t-2.5 48.5q-10 16 -34 37.5t-40 23.5q-27 8 -4 -14q10 -6 18 -14.5t15 -12.5q10 -12 8 -21t-9.5 -15.5t-19.5 -11.5t-22 -7 q-76 -25 -174.5 -31t-198.5 -4l-39 2q-78 4 -149.5 11.5t-129.5 17.5q-16 4 -38.5 13t-32.5 26q-2 4 -5 0zM374 762.5q3 -17.5 9 -36.5t13 -35.5t14 -20.5q6 -6 20 -6q16 0 33.5 3t33 8t21.5 9q6 8 4 29.5t-8 43t-14.5 38t-14.5 16.5t-22.5 -1t-34.5 -4t-32.5 -8t-18.5 -12 q-6 -6 -3 -23.5zM381 449.5q2 -17.5 9 -36t15.5 -35t14.5 -22.5q6 -4 20 -4q16 0 32.5 3t32 8.5t19.5 11.5q6 6 5 25.5t-7 40t-14 37t-14 16.5t-22.5 -1t-34 -2.5t-33 -5.5t-19.5 -10q-6 -8 -4 -25.5z" />
<glyph unicode="&#xf8;" horiz-adv-x="735" d="M-57 -119q0 -14 2 -22.5t2 -12.5q8 0 14 29q8 29 32.5 69t72.5 95q16 -18 39.5 -32.5t48 -23t47 -10.5t39.5 4q78 35 161.5 107t157.5 162t128 189.5t77 191.5q8 41 -14 78q33 29 63.5 55t60.5 49q18 6 19 22q0 10 -14 11q-10 0 -27 -11q-29 -23 -59.5 -47t-63.5 -51 q-35 35 -82 51q-16 4 -57 1t-76 -13q10 23 1 43.5t-40 -0.5q-37 -25 -85 -70t-99 -105t-100.5 -131t-85 -143.5t-53 -145.5t-7.5 -136q0 -8 2 -14.5t4 -10.5q-98 -123 -108 -178zM109 125q0 12 2 18q8 63 40.5 138t78.5 149t99.5 139.5t104.5 110.5q41 16 77 23.5t95 15.5 q31 4 52.5 1t33.5 -20q-166 -145 -381 -362q-61 -61 -111 -114.5t-91 -98.5zM111 88q43 49 99 107.5t126 128.5q102 100 193.5 186t175.5 160v-23q-1 -10 -3 -20q-10 -68 -56 -155t-107.5 -172t-129 -154.5t-122.5 -100.5q-68 -35 -119 -30t-57 73z" />
<glyph unicode="&#xf9;" horiz-adv-x="962" d="M23 109q-4 -68 41 -94.5t131 16.5q53 29 128.5 89t153.5 129.5t149.5 137.5t114.5 111q18 18 29.5 20t18 -5t6.5 -21q0 -12 -7 -27q-10 -23 -31.5 -69t-45 -106.5t-47 -130t-39 -142t-16.5 -142.5t18 -129q8 -25 33.5 -47.5t58.5 -37.5t68.5 -22.5t66.5 3.5 q39 10 82 35.5t82 58.5t72.5 69.5t58.5 67.5q12 16 4 22.5t-23 -8.5q-25 -29 -59.5 -59.5t-73.5 -58t-79.5 -49t-75.5 -33.5q-72 -23 -119 1.5t-53 65.5q-10 66 0 146t33.5 165t58.5 169.5t70.5 162.5t71.5 142.5t63 107.5q8 10 7 28.5t-9.5 34t-22.5 19.5t-35 -12 q-61 -55 -150 -144.5t-187.5 -183.5t-197 -179t-177.5 -134q-55 -35 -79 -11.5t1 113.5q14 55 55 136t91 168t102.5 169t91.5 140q16 25 16 36q0 12 -8 15.5t-21.5 -1.5t-23.5 -18q-27 -31 -65 -82t-81 -113.5t-87 -134t-78.5 -140t-58 -132t-27.5 -112.5zM550 1136.5 q-1 -16.5 17 -30.5q31 -25 64 -49.5t63.5 -48t58 -44t48.5 -36.5q27 -20 34 -6t-16 32q-47 43 -101 101.5t-102 109.5q-12 14 -27.5 11.5t-26.5 -13t-12 -27z" />
<glyph unicode="&#xfa;" horiz-adv-x="962" d="M23 109q-4 -68 41 -94.5t131 16.5q53 29 128.5 89t153.5 129.5t149.5 137.5t114.5 111q18 18 29.5 20t18 -5t6.5 -21q0 -12 -7 -27q-10 -23 -31.5 -69t-45 -106.5t-47 -130t-39 -142t-16.5 -142.5t18 -129q8 -25 33.5 -47.5t58.5 -37.5t68.5 -22.5t66.5 3.5 q39 10 82 35.5t82 58.5t72.5 69.5t58.5 67.5q12 16 4 22.5t-23 -8.5q-25 -29 -59.5 -59.5t-73.5 -58t-79.5 -49t-75.5 -33.5q-72 -23 -119 1.5t-53 65.5q-10 66 0 146t33.5 165t58.5 169.5t70.5 162.5t71.5 142.5t63 107.5q8 10 7 28.5t-9.5 34t-22.5 19.5t-35 -12 q-61 -55 -150 -144.5t-187.5 -183.5t-197 -179t-177.5 -134q-55 -35 -79 -11.5t1 113.5q14 55 55 136t91 168t102.5 169t91.5 140q16 25 16 36q0 12 -8 15.5t-21.5 -1.5t-23.5 -18q-27 -31 -65 -82t-81 -113.5t-87 -134t-78.5 -140t-58 -132t-27.5 -112.5zM636.5 856.5 q4.5 -16.5 35.5 -0.5q23 12 57.5 29.5t73.5 39t79.5 42.5t75.5 39q18 8 21.5 22t-3.5 26.5t-22.5 16.5t-31.5 -8q-27 -20 -62 -45t-70.5 -49.5t-70.5 -47t-62 -38.5q-25 -10 -20.5 -26.5z" />
<glyph unicode="&#xfb;" horiz-adv-x="962" d="M23 109q-4 -68 41 -94.5t131 16.5q53 29 128.5 89t153.5 129.5t149.5 137.5t114.5 111q18 18 29.5 20t18 -5t6.5 -21q0 -12 -7 -27q-10 -23 -31.5 -69t-45 -106.5t-47 -130t-39 -142t-16.5 -142.5t18 -129q8 -25 33.5 -47.5t58.5 -37.5t68.5 -22.5t66.5 3.5 q39 10 82 35.5t82 58.5t72.5 69.5t58.5 67.5q12 16 4 22.5t-23 -8.5q-25 -29 -59.5 -59.5t-73.5 -58t-79.5 -49t-75.5 -33.5q-72 -23 -119 1.5t-53 65.5q-10 66 0 146t33.5 165t58.5 169.5t70.5 162.5t71.5 142.5t63 107.5q8 10 7 28.5t-9.5 34t-22.5 19.5t-35 -12 q-61 -55 -150 -144.5t-187.5 -183.5t-197 -179t-177.5 -134q-55 -35 -79 -11.5t1 113.5q14 55 55 136t91 168t102.5 169t91.5 140q16 25 16 36q0 12 -8 15.5t-21.5 -1.5t-23.5 -18q-27 -31 -65 -82t-81 -113.5t-87 -134t-78.5 -140t-58 -132t-27.5 -112.5zM576 919.5 q6 -14.5 32 2.5q20 14 51 29.5t68 31.5t75 31.5t70 29.5q2 0 5.5 2.5t13.5 -4.5q20 -16 53 -46.5t55 -59.5q20 -23 29.5 -16t-2.5 32q-23 35 -47.5 77t-50.5 79q-10 14 -34 16t-44 -12q-16 -10 -50 -30.5t-73 -45t-76 -48t-61 -40.5q-20 -14 -14 -28.5z" />
<glyph unicode="&#xfc;" horiz-adv-x="962" d="M23 109q-4 -68 41 -94.5t131 16.5q53 29 128.5 89t153.5 129.5t149.5 137.5t114.5 111q18 18 29.5 20t18 -5t6.5 -21q0 -12 -7 -27q-10 -23 -31.5 -69t-45 -106.5t-47 -130t-39 -142t-16.5 -142.5t18 -129q8 -25 33.5 -47.5t58.5 -37.5t68.5 -22.5t66.5 3.5 q39 10 82 35.5t82 58.5t72.5 69.5t58.5 67.5q12 16 4 22.5t-23 -8.5q-25 -29 -59.5 -59.5t-73.5 -58t-79.5 -49t-75.5 -33.5q-72 -23 -119 1.5t-53 65.5q-10 66 0 146t33.5 165t58.5 169.5t70.5 162.5t71.5 142.5t63 107.5q8 10 7 28.5t-9.5 34t-22.5 19.5t-35 -12 q-61 -55 -150 -144.5t-187.5 -183.5t-197 -179t-177.5 -134q-55 -35 -79 -11.5t1 113.5q14 55 55 136t91 168t102.5 169t91.5 140q16 25 16 36q0 12 -8 15.5t-21.5 -1.5t-23.5 -18q-27 -31 -65 -82t-81 -113.5t-87 -134t-78.5 -140t-58 -132t-27.5 -112.5zM593 1038.5 q1 -14.5 3 -32t6 -33t8 -21.5q6 -6 20.5 -4t30 8.5t27.5 15.5t12 15t-1 22.5l-2 33t-4 30.5t-7 19q-6 6 -18.5 4t-26.5 -8.5t-27.5 -14.5t-17.5 -14t-3 -20.5zM799 1036q0 -14 2 -31.5t5 -33t7 -21.5q6 -6 22.5 -4t32 8.5t27.5 15.5t12 15t-1 22.5t-3 33t-5 30.5t-7 19 q-4 6 -17.5 4t-28 -8.5t-27.5 -14.5t-15 -14q-4 -6 -4 -21z" />
<glyph unicode="&#xfd;" horiz-adv-x="1368" d="M-1016 -1170.5q10 -54.5 41 -103.5q35 -53 96.5 -84t140.5 -42t168 -6t181 24q252 51 453.5 188t354 334.5t255 440.5t153.5 505q78 43 176.5 97.5t194.5 116.5t178 130t127 135q18 27 33.5 58.5t24 63.5t7 64.5t-15.5 63.5q-16 41 -50 69.5t-64 43.5q-20 10 -26.5 2 t11.5 -21q31 -18 56.5 -48t36.5 -64q6 -29 0.5 -59.5t-17.5 -58.5t-26.5 -52.5t-24.5 -38.5q-31 -49 -96.5 -107.5t-150.5 -119t-181 -118t-189 -104.5q16 76 27.5 173.5t5.5 189.5q14 35 9 59.5t-19 36.5t-33.5 11t-34.5 -17q-47 -53 -118.5 -124t-151.5 -139.5 t-158.5 -129t-138.5 -93.5q-66 -41 -93.5 -28.5t1.5 88.5q20 55 58 130t84 150.5t92.5 145.5t82.5 115q18 25 14.5 40t-19 18t-37 -7t-40.5 -37q-35 -47 -85 -121t-100 -159t-92 -174t-58 -169q-4 -20 7 -40.5t31.5 -36t45 -20.5t47.5 7q66 33 140.5 86t147 114.5t139 125 t115.5 115.5q68 74 74 -19q2 -29 1 -71t-5 -88t-10 -92t-12 -83q-127 -70 -267.5 -142.5t-286 -147t-289 -152.5t-276.5 -156t-249.5 -154.5t-206.5 -152.5q-78 -66 -123 -128t-60.5 -120.5t-5.5 -113zM-945.5 -1130.5q3.5 55.5 26 107.5t59.5 98t78 83q172 141 369.5 265 t399 232.5t395 206t359.5 187.5q-45 -250 -147 -481.5t-250.5 -419.5t-336 -320.5t-402.5 -179.5q-74 -16 -156 -22t-154.5 5t-131 42t-87.5 90q-25 51 -21.5 106.5zM598 988.5q6 -11.5 18 -5.5q39 14 86.5 30.5t95.5 32t92 30t75 24.5q16 4 19 18.5t-2 27.5t-17.5 22.5 t-24.5 2.5q-29 -14 -72 -35.5t-89 -44t-91 -45t-82 -38.5q-14 -8 -8 -19.5z" />
<glyph unicode="&#xfe;" horiz-adv-x="1462" d="M49 446q-2 -31 17.5 -32.5t17.5 26.5q4 49 20.5 108.5t45 121t71.5 122t103 109.5q70 61 147.5 76.5t152 -6t142.5 -74.5t117 -129q-74 -82 -161 -180.5t-171 -192.5t-156.5 -174t-115.5 -125q-12 -12 -15.5 -23.5t-0.5 -18.5t9 -7q8 0 19 10q72 78 156.5 171.5 t171 184.5t165 171t140.5 133q51 -84 77.5 -206t19.5 -255t-51 -264t-134 -236q-90 -102 -164 -151q-18 27 -33.5 74t-26 92t-16.5 75.5t-6 24.5q-4 -66 6 -139.5t39 -145.5q-63 -35 -117 -41q-10 0 -15 -6t-4 -14t7 -13.5t16 -5.5q61 4 131 41q25 -51 57.5 -95t77.5 -79 q80 -61 176.5 -73.5t182.5 29.5t147.5 142.5t71.5 264.5q8 102 -24.5 228t-91 262t-132.5 276.5t-145 271.5l103.5 103.5t188 192.5t252 260.5t295 306t317.5 332.5t319.5 337t301 319.5t262 281.5t203.5 223.5t125 144.5q121 160 211 276.5t147.5 204.5t80 154.5t8.5 126.5 q-10 -4 -19 -45q-8 -78 -125.5 -251t-347.5 -448q-47 -55 -164.5 -183t-281.5 -301t-358.5 -376t-395.5 -410.5t-393.5 -406.5t-349 -361.5t-266 -275.5t-144.5 -148q-20 29 -39.5 53.5t-42.5 47.5q-76 96 -163 212t-162.5 234.5t-130 234.5t-64.5 212q-16 129 17.5 227 t101 152.5t159 58.5t193.5 -53q117 -68 188.5 -174.5t85.5 -220.5q4 -29 13.5 -32.5t5.5 23.5q-6 63 -26.5 131t-55.5 131.5t-84 116.5t-111 88q-90 45 -186 41t-173 -60t-121 -165t-28 -270q12 -133 85 -284t176 -304q35 -47 70.5 -96.5t72.5 -102.5q-104 47 -216 25.5 t-220 -117.5q-49 -43 -93 -106.5t-76 -132t-50.5 -136t-18.5 -119.5zM694 -430q41 27 85 68t89 94q57 70 101.5 160t71 191t33.5 207.5t-9 211.5q59 -104 109.5 -208t87 -201t56 -188t17.5 -171q-4 -129 -51 -220.5t-120.5 -134.5t-165 -32.5t-181.5 84.5q-39 29 -69.5 64.5 t-53.5 74.5z" />
<glyph unicode="&#xff;" horiz-adv-x="1368" d="M-1016 -1170.5q10 -54.5 41 -103.5q35 -53 96.5 -84t140.5 -42t168 -6t181 24q252 51 453.5 188t354 334.5t255 440.5t153.5 505q78 43 176.5 97.5t194.5 116.5t178 130t127 135q18 27 33.5 58.5t24 63.5t7 64.5t-15.5 63.5q-16 41 -50 69.5t-64 43.5q-20 10 -26.5 2 t11.5 -21q31 -18 56.5 -48t36.5 -64q6 -29 0.5 -59.5t-17.5 -58.5t-26.5 -52.5t-24.5 -38.5q-31 -49 -96.5 -107.5t-150.5 -119t-181 -118t-189 -104.5q16 76 27.5 173.5t5.5 189.5q14 35 9 59.5t-19 36.5t-33.5 11t-34.5 -17q-47 -53 -118.5 -124t-151.5 -139.5 t-158.5 -129t-138.5 -93.5q-66 -41 -93.5 -28.5t1.5 88.5q20 55 58 130t84 150.5t92.5 145.5t82.5 115q18 25 14.5 40t-19 18t-37 -7t-40.5 -37q-35 -47 -85 -121t-100 -159t-92 -174t-58 -169q-4 -20 7 -40.5t31.5 -36t45 -20.5t47.5 7q66 33 140.5 86t147 114.5t139 125 t115.5 115.5q68 74 74 -19q2 -29 1 -71t-5 -88t-10 -92t-12 -83q-127 -70 -267.5 -142.5t-286 -147t-289 -152.5t-276.5 -156t-249.5 -154.5t-206.5 -152.5q-78 -66 -123 -128t-60.5 -120.5t-5.5 -113zM-945.5 -1130.5q3.5 55.5 26 107.5t59.5 98t78 83q172 141 369.5 265 t399 232.5t395 206t359.5 187.5q-45 -250 -147 -481.5t-250.5 -419.5t-336 -320.5t-402.5 -179.5q-74 -16 -156 -22t-154.5 5t-131 42t-87.5 90q-25 51 -21.5 106.5zM551 983q0 -14 2 -31.5t6 -33t8 -21.5q6 -6 20.5 -4t30 8t27.5 14.5t12 14.5v22t-2 34t-4 32t-6 18 q-6 6 -19.5 4t-27.5 -8t-26.5 -14t-16.5 -14t-4 -21zM756 979q0 -14 2 -30.5t5 -32t7 -21.5q6 -6 22.5 -4t32 8t27.5 14.5t12 14.5t-1 22.5t-3 32.5t-5 31.5t-7 19.5q-4 6 -17.5 4t-28 -9t-27.5 -15t-15 -15q-4 -4 -4 -20z" />
<glyph unicode="&#x152;" horiz-adv-x="1869" d="M31 307q0 -16 1 -34.5t3 -34.5q8 -84 36.5 -141.5t67.5 -91.5t83 -48t85 -14q14 0 28.5 2t26.5 6q121 41 249 148.5t263 287.5l19 -10q-18 -59 -31.5 -117.5t-13.5 -97.5v-15q0 -31 6 -62.5t19.5 -58t33 -44t47.5 -17.5h31q68 0 150 6t157.5 16.5t137 25t88.5 32.5h2 q37 20 36 35q0 4 -10 4t-37 -10q-18 -10 -54 -18.5t-84 -14.5t-102.5 -9t-109.5 -3q-66 0 -122 5t-95 17q-39 14 -51 23.5t-12 38.5v18t2 23q0 4 1 5t1 5q4 51 23.5 117.5t47 140.5t59 149.5t60.5 143.5q8 18 15.5 34.5t13.5 32.5l6 4q33 18 79 33t94 25t96 16t85 6 q49 0 72 -8q6 -2 12 -2q16 0 17 6q0 8 -33 15q-29 8 -72 11t-90 3q-53 0 -102 -5t-86 -18l-15 15q27 61 62 124.5t72.5 126t78.5 121t78 107.5l4 4q68 27 152 40t157 13q90 0 140 -18q57 -18 57 -55q0 -20 -14 -43q-6 -16 -6 -23v-2q12 0 36 33v2q10 10 11 28q0 18 -8.5 36 t-20.5 33t-25.5 27.5t-21.5 16.5h-2q-29 16 -76 24.5t-100 8.5q-41 0 -85 -5t-81 -16l-12 7q-8 20 -18.5 38.5t-26.5 18.5q-4 0 -17 -4v-2q-16 -4 -33.5 -24.5t-33.5 -47.5l-7 -4q-25 -8 -65.5 -24.5t-59.5 -26.5q-16 -16 -16 -29q0 -18 6 -27q20 -31 21 -53q0 -10 -2 -19 t-13 -20q-4 -6 -8 -13t-12 -22q-16 -29 -35.5 -61.5t-34.5 -60.5l-18 6q4 20 5 49t1 53v10q0 76 -20.5 137.5t-56.5 104.5t-84 65.5t-103 22.5q-25 0 -56 -6l-12 10q-2 20 -14 29.5t-29 9.5q-23 0 -55 -14q-68 -35 -148.5 -109t-161.5 -174t-158 -220t-135.5 -248t-94 -259 t-35.5 -252zM86 229v17q0 111 33 232.5t87 243.5t125.5 238.5t150.5 218t160 182.5t153 130l4 2q33 8 78 8q49 0 97 -15.5t85 -51t60.5 -93t23.5 -141.5q0 -123 -39 -255t-102.5 -261t-145.5 -247t-170 -211t-174 -156.5t-156 -81.5q-18 -4 -39.5 -9.5t-48.5 -5.5 q-31 0 -61.5 10.5t-57 39t-44 79t-19.5 127.5z" />
<glyph unicode="&#x153;" horiz-adv-x="1148" d="M37 70q0 -16 9 -29.5t22.5 -24t30 -15.5t30.5 -3q182 29 420 231q12 10 24.5 21.5t22.5 21.5q-16 -41 -26.5 -80.5t-12.5 -80.5q-2 -35 14.5 -65t43 -52.5t58.5 -33.5t60 -5q33 2 67 15.5t64.5 28.5t57 32.5t47.5 29.5q14 10 7 17.5t-24 -2.5q-47 -27 -112.5 -52.5 t-122.5 -31.5q-23 -4 -45.5 0t-40 17.5t-26.5 38t-5 63.5q4 80 46 154.5t83 129.5h125q72 0 140.5 1t127 4t86.5 8q51 8 91.5 34.5t58.5 44.5q10 10 2 14.5t-21 -5.5q-20 -23 -55 -40.5t-76 -25.5q-57 -6 -151 -7t-187 -1q80 16 150 49t100 78q12 27 10 58.5t-17 58t-42 39 t-61 0.5q-100 -39 -219 -158q4 10 4 20q0 12 2 23q0 10 -4 22q-4 6 0 15q20 25 81 24q31 0 31 11q0 6 -31 10q-176 4 -266 6q-10 2 -14 8q-55 41 -92 37q-45 -2 -90 -45q-16 -6 -23 -6q-2 0 -78 -2q-47 -2 -53 -12.5t-6 -18.5q0 -10 17.5 -23.5t37.5 -25.5q10 -4 4 -19 q-270 -332 -274 -501zM88 61q0 18 10 45q123 281 338 484q31 20 37 18q72 31 172 21q92 -10 78 -72q-31 -150 -236 -334q-195 -176 -333 -200q-66 -10 -66 38zM748 422q59 66 127.5 125t134.5 100q25 12 45 12t31.5 -11t9 -32.5t-20.5 -48.5q-47 -61 -138 -103t-189 -42z " />
<glyph unicode="&#x178;" horiz-adv-x="1159" d="M-334 -498q-2 -25 10.5 -48t31 -41.5t40 -30t37.5 -7.5q76 16 182.5 94t227 192t245.5 252t240 275q63 78 137 173.5t149.5 198t147.5 204.5t133.5 195.5t108 172.5t71.5 130q8 14 3 35.5t-15 37t-25.5 18.5t-29.5 -20q-12 -25 -36 -58.5t-51.5 -69.5t-53 -70.5 t-43.5 -61.5q-16 -25 -17 -47v-45q-29 -57 -85 -148.5t-122.5 -189.5t-136.5 -192.5t-125 -157.5q-12 74 -33.5 176t-51.5 218t-67.5 235.5t-84.5 227t-103.5 194t-120.5 135.5q-47 37 -105 33.5t-112.5 -30t-99.5 -70.5t-68 -89q-23 -53 -16.5 -115.5t16.5 -103.5 q10 -29 25 -29q12 0 10 35q-4 59 5.5 115.5t31.5 109.5q43 94 119 119t153 -43q55 -49 107.5 -140t98.5 -205t85 -241t65.5 -247.5t42 -225t13.5 -174.5q-43 -55 -102.5 -124.5t-128 -145.5t-142 -150.5t-145.5 -139t-140.5 -113t-123.5 -70.5q-51 -20 -76 -5t-14 56 q4 31 14 63.5t20.5 65.5t21.5 61.5t17 47.5q10 23 4 25.5t-22 -15.5q-14 -20 -32.5 -47t-35 -57.5t-31 -63.5t-18.5 -64zM709 1638q0 -14 2 -31.5t6 -32.5t8 -22q6 -6 20.5 -4t30 8.5t27.5 14.5t12 14v23q0 16 -2 33.5t-4 32t-6 18.5q-6 6 -19.5 4t-28 -8.5t-26.5 -14.5 t-16 -14t-4 -21zM913 1636q0 -14 2.5 -31.5t5.5 -33t7 -21.5q6 -6 22.5 -4t31.5 8.5t27.5 14.5t12.5 14t-1 22.5t-3 34t-5 32t-7 18.5q-4 6 -17.5 4t-28 -8.5t-27.5 -14.5t-15 -14q-4 -6 -5 -21z" />
<glyph unicode="&#x2c6;" horiz-adv-x="638" d="M68 1030q0 -20 24 -4q166 69 277 98q18 2 88 -39q27 -16 52.5 -32.5t51.5 -32.5q8 -8 19 -6q10 4 10 12q0 6 -8 14q-193 160 -205 164q-4 4 -123 -61q-139 -80 -176 -94q-10 -14 -10 -19z" />
<glyph unicode="&#x2dc;" horiz-adv-x="606" d="M53 1032q0 -4 4 -4l47 27q47 27 95 26q27 0 110 -37q78 -33 109 -32q43 0 121 78q10 16 10 22t-6 6t-23 -12q-33 -33 -102 -33q-16 0 -44 7t-71 26q-41 16 -66.5 26.5t-37.5 10.5q-41 0 -131 -86q-14 -23 -15 -25z" />
<glyph unicode="&#x2000;" horiz-adv-x="2018" />
<glyph unicode="&#x2001;" horiz-adv-x="4037" />
<glyph unicode="&#x2002;" horiz-adv-x="2018" />
<glyph unicode="&#x2003;" horiz-adv-x="4037" />
<glyph unicode="&#x2004;" horiz-adv-x="1345" />
<glyph unicode="&#x2005;" horiz-adv-x="1009" />
<glyph unicode="&#x2006;" horiz-adv-x="672" />
<glyph unicode="&#x2007;" horiz-adv-x="672" />
<glyph unicode="&#x2008;" horiz-adv-x="504" />
<glyph unicode="&#x2009;" horiz-adv-x="807" />
<glyph unicode="&#x200a;" horiz-adv-x="224" />
<glyph unicode="&#x2010;" horiz-adv-x="468" d="M41 358q0 -18 35 -18h301q53 0 53 35q0 20 -35 20h-289q-66 0 -65 -37z" />
<glyph unicode="&#x2011;" horiz-adv-x="468" d="M41 358q0 -18 35 -18h301q53 0 53 35q0 20 -35 20h-289q-66 0 -65 -37z" />
<glyph unicode="&#x2012;" horiz-adv-x="468" d="M41 358q0 -18 35 -18h301q53 0 53 35q0 20 -35 20h-289q-66 0 -65 -37z" />
<glyph unicode="&#x2013;" horiz-adv-x="684" d="M76 365q0 -17 39 -17h243q113 0 207 4q61 0 62 29q0 16 -43 16h-430q-78 0 -78 -32z" />
<glyph unicode="&#x2014;" horiz-adv-x="1175" d="M145 365q0 -11 41 -11h875q51 0 51 15q0 12 -37 12h-870q-59 0 -60 -16z" />
<glyph unicode="&#x2018;" horiz-adv-x="270" d="M6 958q-6 -23 8 -67q12 -49 29 -51q10 -4 49 22q41 31 33 43q-12 27 -19.5 45.5t-3.5 34.5q8 113 131 201q8 6 9 12q0 14 -15 14q-6 0 -10 -4q-176 -154 -211 -250z" />
<glyph unicode="&#x2019;" horiz-adv-x="364" d="M420 840q0 -6 10 -11q10 -3 16 7q131 184 209 282q6 8 7 15q0 39 -48 38q-20 0 -28 -16l-164 -305q-2 -2 -2 -10z" />
<glyph unicode="&#x201a;" horiz-adv-x="323" d="M37 -111q0 -14 12 -14q6 0 12 6q172 147 209 250q6 18 -6 68q-16 47 -31 49q-14 4 -51 -25q-39 -29 -28 -41q10 -25 17 -43t5 -35q-12 -119 -133 -200q-6 -10 -6 -15z" />
<glyph unicode="&#x201c;" horiz-adv-x="548" d="M43 938q-6 -23 6 -68q14 -45 29 -51q12 -4 51 23q39 31 31 43q-25 53 -23 80q10 115 133 200q6 6 6 13q0 14 -12 14q-8 0 -12 -4q-174 -152 -209 -250zM293 938q-6 -23 6 -68q14 -45 31 -51q10 -4 49 23q41 33 31 43q-10 27 -17.5 45t-5.5 35q12 115 133 200q6 6 6 13 q0 14 -12 14q-8 0 -12 -4q-174 -152 -209 -250z" />
<glyph unicode="&#x201d;" horiz-adv-x="571" d="M53 836q0 -12 15 -13q6 0 10 4q174 145 211 250q6 20 -8 68q-12 47 -29 49q-14 4 -51 -25q-39 -31 -29 -41q10 -25 17.5 -44t5.5 -33q-12 -117 -134 -201q-8 -8 -8 -14zM303 836q0 -12 14 -13q5 0 13 4q172 147 209 250q6 18 -7 68q-16 47 -30 49q-14 4 -51 -25 q-39 -31 -29 -41q10 -25 17 -44t5 -33q-12 -117 -133 -201q-8 -8 -8 -14z" />
<glyph unicode="&#x201e;" horiz-adv-x="563" d="M41 -113q0 -14 12 -14q9 0 13 6q172 147 208 250q6 18 -6 68q-12 45 -28 49q-14 4 -54 -25q-39 -29 -28 -41q25 -53 22 -78q-10 -117 -133 -200q-6 -10 -6 -15zM291 -113q0 -14 12 -14q8 0 12 6q172 147 209 250q6 18 -6 68q-12 45 -29 49q-14 4 -53 -25t-28 -41 q25 -53 22 -78q-10 -117 -133 -200q-6 -10 -6 -15z" />
<glyph unicode="&#x2022;" horiz-adv-x="434" d="M82 469q0 -55 39 -95t96 -40q59 0 97 40t38 95q0 59 -38 97t-97 38q-57 0 -96 -38t-39 -97z" />
<glyph unicode="&#x2026;" horiz-adv-x="1253" d="M127 137q0 -14 2 -31.5t6 -33t8 -21.5q6 -6 20.5 -4t30 8t27.5 15.5t12 15.5v23q0 16 -2 32.5t-4 31.5t-6 20q-6 6 -19.5 3t-27.5 -9.5t-26.5 -14.5t-16.5 -14t-4 -21zM586 137q0 -14 2 -31.5t6 -33t8 -21.5q6 -6 21.5 -4t32 8t28.5 15.5t12 15.5t-1 22.5t-3 33t-5 31.5 t-9 20q-4 6 -16.5 3t-28 -9.5t-27.5 -14.5t-16 -14t-4 -21zM1036 131q0 -14 2 -31.5t6.5 -33t8.5 -21.5q6 -6 21.5 -4t31.5 8t28.5 14.5t12.5 14.5t-1 22.5t-3 34t-5 31.5t-10 18q-4 6 -16 4t-27.5 -8t-28 -14t-16.5 -14t-4 -21z" />
<glyph unicode="&#x202f;" horiz-adv-x="807" />
<glyph unicode="&#x2039;" horiz-adv-x="446" d="M70 354q-8 -18 61 -284q4 -18 12 -19q16 0 13 23q-24 217 -6 250q16 33 77.5 92t171.5 145q12 12 7 21q-2 8 -23 -4q-47 -31 -93 -62t-93 -61q-117 -78 -127 -101z" />
<glyph unicode="&#x203a;" horiz-adv-x="464" d="M78 59q0 -12 14 -12q8 0 19 6q47 31 93 61.5t93 61.5q117 78 127 100q8 18 -62 285q-4 18 -14 19q-14 0 -10 -23q24 -213 6 -250q-10 -23 -74.5 -80t-183.5 -155q-8 -8 -8 -13z" />
<glyph unicode="&#x205f;" horiz-adv-x="1009" />
<glyph unicode="&#x2122;" horiz-adv-x="1531" d="M10 1124q14 -57 56 -92q8 -4 11 -2t-3 6q-12 12 -27.5 33t-17.5 55q-4 37 15 70t69 61q55 29 128.5 42.5t146.5 17.5t135.5 0t94.5 -10q-2 -14 -14 -40t-22 -48q-23 -33 -63 -95.5t-83 -135.5t-78.5 -147.5t-48.5 -129.5q-6 0 -6 -9q-4 -23 -3 -43t11 -34q2 -16 13 -19 q23 -29 78 -25.5t114 39.5q55 33 112.5 86.5t118 119t120 141t116.5 155.5q-12 -43 -27.5 -97t-28 -108.5t-20.5 -100.5t-6 -73q4 -35 39 -53t76 12q45 33 88 81t83 102.5t78 110t70 104.5q-18 -49 -37.5 -103.5t-36 -107.5t-26.5 -102.5t-10 -88.5q-4 -37 15.5 -62.5 t47.5 -29.5q29 -4 45 10q4 6 2 10.5t-6 0.5q-12 -10 -35 -7q-25 4 -33 29t-4 58q4 47 21.5 107t40 124.5t50.5 130.5t54 121q29 37 53.5 77t28.5 68q4 16 -12 25.5t-27 -0.5q-25 -23 -47 -70t-45 -96q-12 -23 -35.5 -60.5t-56.5 -81.5t-69.5 -92.5t-73.5 -93.5t-72 -82 t-61 -59q-39 -29 -53.5 -19.5t-10.5 44.5q2 51 14.5 113.5t30 127t35.5 125t35 103.5q16 16 28.5 45.5t12.5 54.5q0 16 -15.5 22.5t-25.5 -10.5q-10 -16 -20.5 -42.5t-18.5 -53.5q-37 -59 -99.5 -146.5t-135 -175.5t-147.5 -163.5t-136 -112.5q-102 -61 -158 -27q6 6 -4 6 q-12 6 -13 24.5t-1 31.5q12 55 47 126.5t80 146.5t93 145.5t83 123.5q10 25 22.5 47.5t1.5 38.5q66 -4 141.5 -20t116.5 -43q10 -12 16.5 5.5t-1.5 27.5q-2 8 -15.5 17t-30 18.5t-34 16.5t-27.5 9q-12 2 -16 1t-15 -7q-61 14 -147 25.5t-180 11.5t-187.5 -16.5t-169.5 -57.5 q-55 -31 -78.5 -75t-13.5 -87z" />
<glyph unicode="&#x25fc;" horiz-adv-x="675" d="M0 0v676h676v-676h-676z" />
<glyph unicode="&#xfb04;" horiz-adv-x="0" d="M-3803 -882.5q2 -96.5 44 -180.5t120 -148.5t183 -100.5t237 -36q131 0 278 45q113 -43 254 -43q160 0 332 62q193 68 390.5 220.5t410.5 391.5q86 98 173 208t175 237q295 49 375 135q6 6 6 20q0 23 -14.5 50.5t-32.5 44.5q-2 2 -4.5 3t-4.5 3q-4 2 -7 5t-7 3 q-29 4 -58.5 6t-62.5 4q25 41 50.5 83t52.5 87q98 160 196.5 321.5t186.5 323.5q10 16 34 17q74 0 131.5 -2.5t104.5 2.5q-27 -47 -27 -48q-47 -80 -97 -171t-100.5 -183t-97.5 -180t-86 -163t-67.5 -131t-42.5 -83q-4 -10 -2 -20.5t6 -17.5t10 -8t12 9q45 86 100.5 187.5 t114 205t114.5 203t104.5 182t83 142t49.5 84.5q150 -4 343 10t418.5 57t478.5 119t519 197q162 74 260 168t142 195.5t38 203.5t-53 191.5t-131 158t-197.5 102t-251 26.5t-290.5 -70q-145 -59 -278.5 -147.5t-255.5 -193t-228.5 -219t-198.5 -225.5q-180 -2 -375 -147 q-74 -55 -154.5 -154.5t-174.5 -243.5h-459q35 57 74.5 129t90 137.5t113 116t146.5 62.5q47 8 93 -11.5t81 -54.5q4 -4 11 1t13 14.5t10.5 19.5t4.5 14q0 10 -17.5 30t-40.5 24q-55 8 -96 8t-78 -9.5t-72.5 -29.5t-78.5 -53q-45 -35 -91.5 -82t-89.5 -100.5t-82.5 -108.5 t-72.5 -107q-25 -2 -47.5 -1t-44.5 1q-12 0 -33 1.5t-25 -15.5q-8 -18 11.5 -27.5t35.5 -19.5q14 -10 28.5 -30.5t-1.5 -49.5q-61 -115 -167.5 -307.5t-254.5 -417.5q-164 8 -378 -3t-448.5 -52t-475 -116t-457.5 -191q-154 -82 -249 -178.5t-139 -195.5t-42 -195.5z M-3767.5 -939q-11.5 83 27.5 175t135.5 188.5t262.5 192.5q238 137 477 220t459.5 127t410 56.5t326.5 8.5q-84 -8 -166 -22t-168 -30q-473 -94 -833 -288q-430 -231 -431 -563q0 -197 162 -334q59 -47 127 -78q-109 -33 -217 -33q-111 0 -208 27.5t-177 79t-128 121 t-59.5 152.5zM-3234 -901q0 272 426 520q268 156 559 253t609 134q-121 -186 -264.5 -378.5t-304.5 -364.5t-336 -309.5t-359 -215.5q-6 -2 -23 -6q-35 12 -68.5 30.5t-66.5 41.5q-172 117 -172 295zM-2884 -1284q158 57 310.5 165.5t297 249t279.5 304.5t256 334 q63 10 124 26.5t111 34.5t86 37.5t54 38.5q8 10 7 27.5t-10 36t-21.5 33.5t-24.5 24q104 6 207 6q31 0 59.5 -1t54.5 -1q-665 -1031 -1273 -1291q-141 -59 -293 -59q-115 0 -224 35zM-1726 -209q41 57 79.5 112.5t73.5 110.5q16 2 30.5 4t29.5 2q43 -2 75 -10 q39 -6 41 -32.5t-20 -45.5q-14 -10 -42 -29.5t-67 -40t-90 -40t-110 -31.5zM-1552 47q86 133 160.5 257t136 230.5t107.5 190.5t77 137q4 6 11 11.5t24 5.5q82 4 154.5 -0.5t144.5 0.5h35h43h41h26q2 0 3 -1l1 -1h-4q-2 -6 -10 -22.5t-16.5 -34t-16.5 -33t-10 -19.5 q-102 -205 -216 -379t-218 -338l-70 4t-72 2q-78 0 -151.5 -4t-151.5 -8h-12t-16 2zM-1190 -207q41 57 81 116t79 120q37 -4 67 -6q16 -2 30.5 -4.5t29.5 -4.5q41 -10 41 -39q0 -20 -21 -41q-125 -104 -307 -141zM-610 852l18 25q-8 -2 -15 -7.5t-3 -17.5zM-504 924 q53 104 122 191t141.5 150.5t142 103.5t125.5 52q33 6 69 -4q-129 -162 -216 -296t-128 -206zM-285 838q2 0 2 4q0 -2 -1 -2zM-170 922q63 106 142 226t171 247q2 0 4.5 -1t4.5 -1q57 -35 53 -39q12 0 24.5 20.5t12.5 28.5q-2 16 -16.5 29.5t-37.5 21.5q90 115 193.5 227.5 t219.5 213t242 184.5t261 139q111 45 227.5 52t222 -16.5t195.5 -74.5t147.5 -122.5t77 -159t-16.5 -181.5t-131 -193.5t-267 -195.5q-256 -143 -511 -224t-483.5 -122t-419 -50t-315.5 -9z" />
</font>
</defs>
</svg>
